<svg width="75" height="47" viewBox="0 0 75 47" fill="none" xmlns="http://www.w3.org/2000/svg">
<path d="M20.9954 1.75282V1.49122H20.6009C17.2996 1.48835 14.0464 2.31058 11.118 3.88799C8.18957 5.46541 5.67245 7.75137 3.78063 10.5515C1.88881 13.3517 0.678236 16.5832 0.251833 19.9715C-0.174571 23.3597 0.195802 26.8044 1.33146 30.0127C2.46713 33.221 4.33449 36.098 6.77481 38.3992C9.21513 40.7004 12.1562 42.3577 15.3481 43.2302C18.5399 44.1027 21.8881 44.1646 25.1081 43.4106C28.328 42.6566 31.3244 41.1091 33.8425 38.8996C41.123 33.221 45.3273 26.4322 49.5377 19.6307C51.8107 15.789 54.3079 12.0942 57.0154 8.56709L56.8181 8.4012L57.0216 8.56709C58.0446 7.26871 59.3683 6.2592 60.8694 5.63245C62.3706 5.00571 64.0006 4.78209 65.6077 4.9824C67.2148 5.18271 68.7469 5.80044 70.0614 6.77813C71.3759 7.75583 72.4301 9.06172 73.1261 10.5744C73.822 12.087 74.137 13.7572 74.0418 15.4297C73.9466 17.1022 73.4443 18.7226 72.5816 20.1402C71.7188 21.5577 70.5237 22.7265 69.1074 23.5377C67.6911 24.3488 66.35 24.6079 66.0417 24.684C65.7335 24.7601 66.185 24.8531 65.7335 24.7887C65.2852 24.7226 66.1676 24.9223 65.7335 24.7887V25.2453C65.7335 25.2453 66.2059 25.3037 67.7071 24.7887C69.2083 24.2736 70.5718 23.4012 71.6881 22.2416C72.8043 21.082 73.6421 19.6676 74.1342 18.1119C74.6263 16.5563 74.7589 14.9028 74.5213 13.2845C74.2837 11.6662 73.6826 10.1281 72.7663 8.79393C71.8501 7.45975 70.6441 6.36666 69.2455 5.60253C67.8469 4.8384 66.2945 4.42454 64.7133 4.39422C63.132 4.36389 61.5659 4.71795 60.1409 5.42793C58.7825 6.10176 57.5848 7.07782 56.6332 8.28636C53.9116 11.8269 51.402 15.5366 49.1185 19.3946C44.3224 27.1468 39.5263 34.8863 30.1684 40.9349C29.3073 41.4261 28.4132 41.8526 27.493 42.211C23.2014 43.8785 18.4865 43.969 14.1382 42.4672C9.78987 40.9654 6.07229 37.9626 3.60825 33.9618C1.1442 29.9611 0.0833978 25.2054 0.603548 20.4916C1.1237 15.7778 3.19321 11.3921 6.46536 8.06942C9.88674 4.5283 15.5027 1.77196 20.644 2.03355" fill="url(#paint0_linear_192_9967)"/>
<path d="M24.3729 7.91611C24.8048 7.73858 25.1971 7.47151 25.5257 7.13132C25.847 6.79727 26.1043 6.40325 26.2839 5.97009C26.4654 5.51713 26.5576 5.03122 26.5552 4.54087C26.5503 3.55926 26.1714 2.61929 25.5008 1.92517C24.8301 1.23106 23.9219 0.838885 22.9735 0.833856C22.506 0.82581 22.042 0.918672 21.6111 1.10652C21.1801 1.29437 20.7918 1.57309 20.4707 1.92491C20.1367 2.26622 19.8727 2.67389 19.6948 3.12343C19.5168 3.57297 19.4284 4.0551 19.435 4.54087C19.4383 5.50998 19.8125 6.43824 20.4758 7.1223C21.139 7.80637 22.0372 8.19047 22.9735 8.19047C23.453 8.19604 23.9287 8.10277 24.3729 7.91611ZM26.4319 30.1774V11.5785C26.4464 11.4688 26.436 11.3572 26.4017 11.2524C26.3674 11.1476 26.31 11.0524 26.2341 10.9745C26.1582 10.8965 26.0658 10.8379 25.9643 10.8032C25.8627 10.7685 25.7548 10.7587 25.649 10.7745H25.5134L17.6411 11.9613C17.9116 12.0155 18.1688 12.1253 18.3975 12.2842C18.6262 12.4431 18.8218 12.6479 18.9727 12.8865C19.3284 13.3712 19.5231 13.9621 19.5275 14.5709V31.5109C19.5174 32.1127 19.3231 32.6958 18.9727 33.1762C18.8253 33.4204 18.6311 33.6309 18.4021 33.7944C18.1731 33.9579 17.9141 34.071 17.6411 34.1268H28.2813C28.0077 34.0704 27.7481 33.9571 27.5181 33.7936C27.2882 33.6302 27.0927 33.4201 26.9436 33.1762C26.6103 32.6894 26.4315 32.1074 26.4319 31.5109V30.1774Z" fill="url(#paint1_linear_192_9967)"/>
<path d="M44.7903 26.1706L38.2619 12.0188C38.1115 11.7062 37.8732 11.4481 37.5783 11.2784C37.2834 11.1087 36.9457 11.0354 36.6098 11.0682H28.7499C29.2479 11.1689 29.7004 11.4355 30.0383 11.8274C30.4281 12.2152 30.7549 12.6655 31.0062 13.1609L39.8709 32.4936C40.1979 33.2079 40.3704 33.9874 40.3764 34.7778C40.3848 35.5698 40.2116 36.3526 39.8709 37.062L44.7903 26.1706ZM46.2143 11.0937C46.6795 11.092 47.1403 11.1856 47.5704 11.369C48.0004 11.5525 48.3912 11.8222 48.7201 12.1626C49.049 12.503 49.3095 12.9074 49.4868 13.3525C49.664 13.7976 49.7545 14.2746 49.7528 14.756C49.7659 15.298 49.6561 15.8355 49.4323 16.3256C49.736 15.7002 50.1061 15.1117 50.5357 14.571C50.9915 13.9832 51.4992 13.4406 52.0522 12.9504C52.5861 12.4701 53.1715 12.0548 53.7968 11.7126C54.3747 11.3948 54.9997 11.1791 55.6462 11.0745L46.2143 11.0937ZM27.5848 36.0985C28.0831 35.5742 28.722 35.2167 29.4188 35.0722C30.1155 34.9277 30.8382 35.003 31.4932 35.2882C31.9051 35.4762 32.2794 35.7424 32.5966 36.073C32.9264 36.4097 33.1847 36.8139 33.3549 37.2598C33.5401 37.7207 33.6344 38.2153 33.6323 38.7145C33.6416 39.1889 33.5567 39.6602 33.3828 40.0992C33.2089 40.5382 32.9497 40.9356 32.6213 41.2667L31.863 42.0514C31.6269 42.2808 31.4874 42.597 31.4747 42.9319C31.4747 43.3786 31.7706 43.6657 32.3685 43.7869C33.0385 43.9076 33.7273 43.8438 34.3659 43.6019C33.5294 43.9488 32.6219 44.0717 31.7274 43.9592C30.8284 43.8572 29.9595 43.564 29.1753 43.0978C28.4147 42.6443 27.7635 42.0182 27.2704 41.2667C26.7692 40.5173 26.5043 39.6258 26.5121 38.7145C26.5085 38.2257 26.6019 37.7413 26.7864 37.2914C26.9709 36.8414 27.2426 36.4354 27.5848 36.0985Z" fill="url(#paint2_linear_192_9967)"/>
<path d="M66.0952 13.6586C66.0999 13.0677 66.2856 12.4936 66.6253 12.0188C66.9246 11.5327 67.3922 11.1835 67.9322 11.0426H66.0828V6.81238C64.9606 8.01634 63.6416 9.00562 62.1868 9.7346C60.6634 10.4773 59.0164 10.9105 57.3352 11.0107C57.8903 11.155 58.3697 11.5164 58.6729 12.0188C59.0101 12.495 59.1954 13.0682 59.2031 13.6586V29.3097C59.1998 30.0204 59.3383 30.7242 59.61 31.377C59.8771 32.0047 60.2485 32.5791 60.7073 33.0741C61.1678 33.5689 61.7189 33.9637 62.3286 34.2354C62.9534 34.5221 63.6301 34.6678 64.3136 34.6629C64.9151 34.6691 65.5146 34.5897 66.0952 34.4268C66.6172 34.2777 67.1249 34.0791 67.6117 33.8334C68.04 33.6118 68.4521 33.358 68.8446 33.0741C69.2145 32.7998 69.535 32.5573 69.8124 32.334C69.4263 32.5845 68.9797 32.7172 68.524 32.7168C68.2028 32.7215 67.884 32.6583 67.5872 32.531C67.2904 32.4037 67.0219 32.2151 66.7979 31.9767C66.5648 31.7381 66.3816 31.4524 66.2596 31.1374C66.1377 30.8224 66.0796 30.4848 66.089 30.1455V13.6586H66.0952Z" fill="url(#paint3_linear_192_9967)"/>
<path d="M45.98 37.0046H46.9232V36.8131H46.6211C46.6288 36.6984 46.6288 36.5833 46.6211 36.4686V34.631C46.6211 34.4843 46.6211 34.3822 46.6211 34.3184C46.622 34.2895 46.6284 34.261 46.6401 34.2347C46.6517 34.2084 46.6683 34.1848 46.6889 34.1653C46.7483 34.1165 46.8228 34.0915 46.8985 34.0951V33.9547H45.9553V34.1461H46.2574C46.2574 34.2355 46.2574 34.3375 46.2574 34.4588V36.3282C46.2574 36.475 46.2574 36.5834 46.2574 36.6409C46.251 36.6994 46.2248 36.7536 46.1834 36.794C46.124 36.8428 46.0496 36.8677 45.9738 36.8642L45.98 37.0046Z" fill="url(#paint4_linear_192_9967)"/>
<path d="M49.087 37.0046H50.0733V36.8131H49.7219C49.7303 36.6985 49.7303 36.5833 49.7219 36.4686V34.1078H50.0795C50.1941 34.099 50.3086 34.128 50.4062 34.1908C50.4892 34.2471 50.5486 34.3336 50.5727 34.4332C50.6084 34.5748 50.625 34.7208 50.622 34.8671H50.7823V33.9547H48.3164V34.8671H48.4705C48.4568 34.6709 48.4951 34.4745 48.5815 34.2993C48.622 34.2379 48.6777 34.189 48.7428 34.1575C48.8079 34.1261 48.8799 34.1133 48.9514 34.1206H49.3829V36.4495C49.3901 36.5521 49.3731 36.655 49.3336 36.7493C49.3052 36.7844 49.2692 36.812 49.2284 36.8298C49.1877 36.8475 49.1434 36.855 49.0993 36.8514L49.087 37.0046Z" fill="url(#paint5_linear_192_9967)"/>
<path d="M52.2863 34.9254C52.383 34.812 52.4565 34.6795 52.5022 34.5359C52.5567 34.3999 52.588 34.2551 52.5948 34.1081C52.5963 34.0062 52.5684 33.9061 52.5146 33.8207C52.4917 33.7899 52.4629 33.7644 52.43 33.7457C52.397 33.727 52.3607 33.7156 52.3233 33.7122C52.2924 33.7116 52.2617 33.7175 52.2331 33.7296C52.2044 33.7417 52.1785 33.7597 52.1568 33.7824C52.1343 33.8059 52.1167 33.8338 52.105 33.8646C52.0933 33.8953 52.0879 33.9282 52.0889 33.9612C52.0875 33.9893 52.0916 34.0175 52.1012 34.0438C52.1107 34.0702 52.1255 34.0943 52.1444 34.1145C52.1607 34.1353 52.1814 34.1519 52.205 34.163C52.2286 34.1741 52.2543 34.1793 52.2801 34.1783H52.385V34.2549C52.385 34.3728 52.3641 34.4897 52.3233 34.5997C52.291 34.6955 52.2453 34.7859 52.1876 34.8679L52.2863 34.9254Z" fill="url(#paint6_linear_192_9967)"/>
<path d="M54.9622 37.0747C55.1439 37.0804 55.3247 37.0456 55.4923 36.9726C55.6279 36.912 55.743 36.8112 55.8231 36.6828C55.9032 36.5545 55.9447 36.4044 55.9424 36.2517C55.9486 36.0969 55.9053 35.9444 55.8191 35.8178C55.7413 35.7053 55.6429 35.6099 55.5293 35.5371C55.4122 35.4669 55.2581 35.3839 55.067 35.2946C54.8759 35.2053 54.7711 35.1478 54.6786 35.0904C54.5871 35.038 54.5073 34.9663 54.4443 34.8799C54.38 34.7966 54.3452 34.693 54.3457 34.5864C54.3443 34.519 54.3562 34.452 54.3805 34.3895C54.4049 34.3269 54.4413 34.2702 54.4875 34.2227C54.5954 34.1222 54.737 34.0696 54.882 34.0759C54.9829 34.0701 55.0838 34.0884 55.1768 34.1293C55.2697 34.1703 55.3524 34.2328 55.4184 34.312C55.5489 34.4759 55.6227 34.6803 55.628 34.8926H55.7821V33.9356H55.5663V34.127C55.4623 34.0444 55.3425 33.9857 55.2149 33.9547C55.0919 33.9225 54.9657 33.9053 54.8389 33.9037C54.6627 33.8937 54.4874 33.9357 54.3334 34.0249C54.2177 34.0938 54.1235 34.1957 54.0621 34.3184C54.0136 34.4286 53.9883 34.5482 53.9882 34.6693C53.9823 34.8191 54.0234 34.9668 54.1053 35.0904C54.1793 35.2023 54.2761 35.2959 54.3889 35.3648C54.4937 35.435 54.6478 35.5115 54.8327 35.6072C54.966 35.6673 55.0957 35.7354 55.2211 35.8114C55.3168 35.8682 55.4006 35.9441 55.4677 36.0347C55.533 36.1272 55.5676 36.2392 55.5663 36.3537C55.5683 36.4289 55.5538 36.5035 55.5239 36.572C55.494 36.6405 55.4495 36.7012 55.3937 36.7493C55.2707 36.8486 55.1181 36.9005 54.9622 36.8961C54.7532 36.9044 54.5487 36.8316 54.3889 36.6919C54.3105 36.6199 54.248 36.5315 54.2055 36.4324C54.1629 36.3334 54.1414 36.2261 54.1423 36.1177H53.9758V37.0428H54.1978V36.8514C54.3049 36.927 54.4238 36.9831 54.5491 37.0173C54.6835 37.0564 54.8226 37.0758 54.9622 37.0747Z" fill="url(#paint7_linear_192_9967)"/>
<path d="M46.6522 41.7898H47.6386V41.5984H47.2872C47.2949 41.4837 47.2949 41.3686 47.2872 41.2539V40.9221C47.2872 40.7626 47.2872 40.6158 47.2872 40.4691L47.8112 39.4418C47.8867 39.2871 47.9844 39.1452 48.1009 39.0207C48.1916 38.9375 48.3066 38.8881 48.4276 38.8804V38.74H47.5769V38.9314H47.9037C47.8265 39.032 47.7603 39.1411 47.7064 39.2568L47.6201 39.4291C47.4167 39.8183 47.2687 40.1118 47.1701 40.3096C47.0386 40.1267 46.8844 39.8842 46.7077 39.5822L46.5783 39.3653C46.5193 39.2833 46.4831 39.1862 46.4735 39.0845C46.4735 38.9569 46.5844 38.8931 46.8002 38.8931V38.7528H45.7275V38.9442H45.9865C46.0342 39.1204 46.1114 39.2867 46.2145 39.4355L46.942 40.6286V41.2666C46.9469 41.3691 46.9301 41.4715 46.8927 41.5665C46.8637 41.6008 46.8275 41.6279 46.7869 41.6456C46.7463 41.6633 46.7024 41.6711 46.6584 41.6686L46.6522 41.7898Z" fill="url(#paint8_linear_192_9967)"/>
<path d="M51.1583 41.6813C50.9329 41.6907 50.7125 41.6108 50.5419 41.458C50.3774 41.3001 50.2525 41.1029 50.1782 40.8838C50.0964 40.6639 50.0547 40.4303 50.0549 40.1947C50.0532 39.9761 50.093 39.7594 50.172 39.5567C50.2471 39.3595 50.3702 39.1858 50.5296 39.0526C50.689 38.9225 50.8876 38.8547 51.0905 38.8612C51.3006 38.86 51.5041 38.937 51.6638 39.0781C51.8332 39.2318 51.9625 39.4271 52.0399 39.646C52.126 39.8715 52.1699 40.1118 52.1693 40.3542C52.1716 40.5728 52.1318 40.7897 52.0522 40.9923C51.9787 41.1869 51.8576 41.3583 51.7008 41.4899C51.5464 41.6158 51.355 41.6834 51.1583 41.6813ZM51.1583 41.86C51.4409 41.8707 51.7195 41.788 51.9536 41.6239C52.1687 41.4737 52.3411 41.2666 52.4529 41.0242C52.5558 40.7895 52.6104 40.5353 52.6132 40.2777C52.6131 40.0169 52.5562 39.7596 52.4468 39.5248C52.3346 39.2806 52.1597 39.0732 51.9413 38.925C51.7003 38.7606 51.4159 38.6781 51.1275 38.6889C50.8431 38.6791 50.5629 38.7616 50.3261 38.925C50.1144 39.0774 49.9445 39.2841 49.8329 39.5248C49.7235 39.7596 49.6666 40.0169 49.6665 40.2777C49.6661 40.5398 49.7207 40.7989 49.8268 41.0369C49.9329 41.2795 50.1041 41.4854 50.32 41.6303C50.5695 41.7899 50.859 41.8698 51.1522 41.86H51.1583Z" fill="url(#paint9_linear_192_9967)"/>
<path d="M55.455 41.86C55.6176 41.8742 55.7809 41.8453 55.9298 41.7761C56.0786 41.7069 56.208 41.5997 56.3057 41.4644C56.4971 41.1596 56.5919 40.8005 56.5769 40.4372V39.4355C56.5769 39.2887 56.5769 39.1866 56.5769 39.1228C56.5833 39.0643 56.6095 39.0101 56.6509 38.9697C56.7098 38.9198 56.7846 38.8948 56.8605 38.8995V38.7592H56.0838V38.9506H56.3797C56.3797 39.0399 56.3797 39.142 56.3797 39.2632V40.4819C56.3884 40.7792 56.3111 41.0725 56.1577 41.3241C56.086 41.4223 55.9927 41.5013 55.8854 41.5546C55.7782 41.6079 55.6602 41.6339 55.5413 41.6303C55.3461 41.6439 55.153 41.5826 54.9988 41.4581C54.8679 41.3396 54.7772 41.1808 54.7399 41.0051C54.6956 40.7956 54.6749 40.5814 54.6782 40.367V39.276C54.6766 39.1923 54.6935 39.1094 54.7276 39.0335C54.7276 38.9633 54.8385 38.9314 54.9618 38.9314V38.7911H53.9878V38.9761H54.2899C54.2899 39.1292 54.2899 39.2951 54.2899 39.4801V40.3606C54.2816 40.6605 54.319 40.9598 54.4008 41.2475C54.4624 41.454 54.5937 41.6307 54.7707 41.7452C54.9853 41.8445 55.2211 41.884 55.455 41.86Z" fill="url(#paint10_linear_192_9967)"/>
<path d="M59.1353 40.2777H58.9504V39.4546C58.9453 39.3526 58.9453 39.2503 58.9504 39.1483C58.9573 39.0913 58.981 39.0378 59.0182 38.9952C59.0793 38.9509 59.1536 38.9306 59.2278 38.9378C59.4298 38.9225 59.6306 38.9812 59.7949 39.1037C59.8578 39.1672 59.9068 39.2439 59.9387 39.3286C59.9706 39.4133 59.9847 39.5042 59.9799 39.595C59.9922 40.0416 59.721 40.2777 59.1353 40.2777ZM58.2969 41.7898H59.2401V41.5984H58.9381C58.9458 41.4837 58.9458 41.3686 58.9381 41.2539V40.418H59.2278L59.3326 40.5456C59.375 40.6072 59.4141 40.6711 59.4497 40.737L59.5052 40.8264L59.7888 41.2921C59.8566 41.407 59.9182 41.4963 59.9676 41.5665C60.0248 41.6407 60.0888 41.7091 60.1587 41.7707H60.6888V41.6303C60.614 41.6316 60.5399 41.6141 60.4731 41.5793C60.4177 41.5474 60.3695 41.5039 60.3313 41.4516C60.2881 41.3942 60.2388 41.3177 60.1772 41.2156L59.8936 40.7562C59.8442 40.6726 59.7907 40.5917 59.7333 40.5137L59.6038 40.3797C59.8412 40.3496 60.0602 40.2318 60.2203 40.048C60.3344 39.8945 60.3952 39.7057 60.3929 39.512C60.3998 39.3995 60.3778 39.287 60.3291 39.1861C60.2803 39.0853 60.2067 38.9996 60.1155 38.9378C59.852 38.7872 59.553 38.7164 59.2525 38.7336H58.9504H58.2908V38.925H58.5928C58.5928 39.0143 58.5928 39.1164 58.5928 39.2377V41.1071C58.5928 41.2539 58.5928 41.3623 58.5928 41.4197C58.5865 41.4782 58.5602 41.5325 58.5189 41.5729C58.46 41.6227 58.3852 41.6478 58.3093 41.6431L58.2969 41.7898Z" fill="url(#paint11_linear_192_9967)"/>
<path d="M46.6212 46.5751H47.6075V46.3837H47.2561C47.2639 46.269 47.2639 46.1539 47.2561 46.0392V43.6784H47.6137C47.7283 43.6695 47.8427 43.6986 47.9404 43.7613C48.0217 43.8193 48.0807 43.9052 48.1068 44.0038C48.1426 44.1454 48.1592 44.2914 48.1562 44.4377H48.3164V43.5253H45.8506V44.4377H46.0047C45.9909 44.2414 46.0293 44.0451 46.1157 43.8698C46.1562 43.8085 46.2119 43.7595 46.277 43.7281C46.342 43.6967 46.4141 43.6839 46.4855 43.6912H46.9171V46.02C46.9242 46.1226 46.9073 46.2255 46.8678 46.3199C46.8394 46.355 46.8033 46.3826 46.7626 46.4003C46.7218 46.4181 46.6776 46.4255 46.6335 46.422L46.6212 46.5751Z" fill="url(#paint12_linear_192_9967)"/>
<path d="M51.0905 46.6453C51.254 46.6594 51.4182 46.6305 51.568 46.5613C51.7178 46.4922 51.8483 46.385 51.9474 46.2497C52.1335 45.9424 52.2278 45.5851 52.2187 45.2225V44.2208C52.2187 44.074 52.2187 43.9719 52.2187 43.9081C52.225 43.8496 52.2513 43.7954 52.2926 43.755C52.352 43.7062 52.4265 43.6813 52.5022 43.6848V43.5444H51.7255V43.7358H52.0214C52.0214 43.8252 52.0214 43.9273 52.0214 44.0485V45.2671C52.0287 45.5635 51.9539 45.8557 51.8056 46.1094C51.7339 46.2076 51.6405 46.2866 51.5333 46.3399C51.4261 46.3932 51.3081 46.4191 51.1892 46.4156C51.002 46.436 50.8145 46.3811 50.6653 46.2623C50.5161 46.1436 50.4168 45.97 50.3878 45.7776C50.3411 45.5684 50.3184 45.3542 50.32 45.1395V44.0485C50.3183 43.9648 50.3352 43.8819 50.3693 43.806C50.4063 43.7358 50.4802 43.7039 50.6035 43.7039V43.5636H49.6665V43.7486H49.9686C49.9686 43.9017 49.9686 44.0676 49.9686 44.2527V45.1332C49.9603 45.433 49.9977 45.7323 50.0795 46.02C50.1411 46.2265 50.2724 46.4032 50.4494 46.5177C50.6498 46.6139 50.87 46.6577 51.0905 46.6453Z" fill="url(#paint13_linear_192_9967)"/>
<path d="M54.7891 45.0629H54.6042V44.2335C54.6042 44.0867 54.6042 43.9846 54.6042 43.9272C54.6106 43.8687 54.6368 43.8144 54.6782 43.7741C54.739 43.7293 54.8135 43.7089 54.8878 43.7166C55.0879 43.7012 55.2867 43.76 55.4488 43.8825C55.5116 43.9461 55.5607 44.0228 55.5926 44.1075C55.6244 44.1922 55.6385 44.283 55.6337 44.3738C55.6275 44.8268 55.344 45.0629 54.7891 45.0629ZM53.9507 46.5751H54.8939V46.3837H54.5919C54.5919 46.3071 54.5919 46.1922 54.5919 46.0391V45.1969H54.8754L54.9864 45.3245L55.1035 45.5159L55.1528 45.6052L55.4364 46.071C55.5042 46.1859 55.5659 46.2752 55.6152 46.3454C55.6725 46.4196 55.7364 46.488 55.8063 46.5495H56.3365V46.4092C56.2676 46.4102 56.1994 46.3945 56.1373 46.3635C56.0753 46.3325 56.021 46.287 55.9789 46.2305C55.9358 46.1731 55.8864 46.0965 55.8248 45.9944L55.5412 45.5351C55.4918 45.4515 55.4383 45.3705 55.3809 45.2926L55.2515 45.1586C55.4889 45.1285 55.7078 45.0107 55.8679 44.8268C55.9821 44.6733 56.0429 44.4845 56.0406 44.2909C56.0481 44.1789 56.027 44.0669 55.9794 43.9661C55.9318 43.8653 55.8593 43.7792 55.7693 43.7166C55.5032 43.5671 55.2025 43.4965 54.9001 43.5125H54.598H53.9446V43.7039H54.2467C54.2398 43.808 54.2398 43.9124 54.2467 44.0165V45.886C54.2517 45.9901 54.2517 46.0945 54.2467 46.1986C54.2397 46.2556 54.2161 46.3091 54.1788 46.3518C54.1194 46.4005 54.045 46.4255 53.9692 46.4219L53.9507 46.5751Z" fill="url(#paint14_linear_192_9967)"/>
<path d="M59.9184 46.6453H60.1218V44.0931C60.1142 44.0232 60.1142 43.9526 60.1218 43.8826L60.2019 43.7614C60.2574 43.726 60.3217 43.7082 60.3869 43.7103V43.5699H59.6163V43.7614H59.9184C59.9115 43.8655 59.9115 43.9699 59.9184 44.074V46.0583L58.1368 43.5891H57.6375V43.7805H57.921V46.154C57.9238 46.2385 57.9047 46.3222 57.8655 46.3965C57.8416 46.4334 57.8081 46.4626 57.7688 46.4806C57.7295 46.4987 57.6861 46.5049 57.6436 46.4986V46.6389H58.408V46.4475H58.1121C58.1121 46.3582 58.1121 46.2114 58.1121 46.02V44.1633L59.9184 46.6453Z" fill="url(#paint15_linear_192_9967)"/>
<defs>
<linearGradient id="paint0_linear_192_9967" x1="37.358" y1="1.49121" x2="37.358" y2="43.9337" gradientUnits="userSpaceOnUse">
<stop offset="0.19645" stop-color="#FFD75F"/>
<stop offset="0.403533" stop-color="#D2AA32"/>
<stop offset="0.592708" stop-color="#FFD75F"/>
<stop offset="0.8375" stop-color="#E4B118"/>
</linearGradient>
<linearGradient id="paint1_linear_192_9967" x1="22.9612" y1="0.833374" x2="22.9612" y2="34.1268" gradientUnits="userSpaceOnUse">
<stop offset="0.19645" stop-color="#FFD75F"/>
<stop offset="0.403533" stop-color="#D2AA32"/>
<stop offset="0.592708" stop-color="#FFD75F"/>
<stop offset="0.8375" stop-color="#E4B118"/>
</linearGradient>
<linearGradient id="paint2_linear_192_9967" x1="41.0791" y1="11.0605" x2="41.0791" y2="43.9996" gradientUnits="userSpaceOnUse">
<stop offset="0.19645" stop-color="#FFD75F"/>
<stop offset="0.403533" stop-color="#D2AA32"/>
<stop offset="0.592708" stop-color="#FFD75F"/>
<stop offset="0.8375" stop-color="#E4B118"/>
</linearGradient>
<linearGradient id="paint3_linear_192_9967" x1="63.5738" y1="6.81238" x2="63.5738" y2="34.6632" gradientUnits="userSpaceOnUse">
<stop offset="0.19645" stop-color="#FFD75F"/>
<stop offset="0.403533" stop-color="#D2AA32"/>
<stop offset="0.592708" stop-color="#FFD75F"/>
<stop offset="0.8375" stop-color="#E4B118"/>
</linearGradient>
<linearGradient id="paint4_linear_192_9967" x1="46.4392" y1="33.9547" x2="46.4392" y2="37.0046" gradientUnits="userSpaceOnUse">
<stop offset="0.19645" stop-color="#FFD75F"/>
<stop offset="0.403533" stop-color="#D2AA32"/>
<stop offset="0.592708" stop-color="#FFD75F"/>
<stop offset="0.8375" stop-color="#E4B118"/>
</linearGradient>
<linearGradient id="paint5_linear_192_9967" x1="49.5493" y1="33.9547" x2="49.5493" y2="37.0046" gradientUnits="userSpaceOnUse">
<stop offset="0.19645" stop-color="#FFD75F"/>
<stop offset="0.403533" stop-color="#D2AA32"/>
<stop offset="0.592708" stop-color="#FFD75F"/>
<stop offset="0.8375" stop-color="#E4B118"/>
</linearGradient>
<linearGradient id="paint6_linear_192_9967" x1="52.3417" y1="33.7122" x2="52.3417" y2="34.9254" gradientUnits="userSpaceOnUse">
<stop offset="0.19645" stop-color="#FFD75F"/>
<stop offset="0.403533" stop-color="#D2AA32"/>
<stop offset="0.592708" stop-color="#FFD75F"/>
<stop offset="0.8375" stop-color="#E4B118"/>
</linearGradient>
<linearGradient id="paint7_linear_192_9967" x1="54.9594" y1="33.9022" x2="54.9594" y2="37.0753" gradientUnits="userSpaceOnUse">
<stop offset="0.19645" stop-color="#FFD75F"/>
<stop offset="0.403533" stop-color="#D2AA32"/>
<stop offset="0.592708" stop-color="#FFD75F"/>
<stop offset="0.8375" stop-color="#E4B118"/>
</linearGradient>
<linearGradient id="paint8_linear_192_9967" x1="47.0776" y1="38.74" x2="47.0776" y2="41.7898" gradientUnits="userSpaceOnUse">
<stop offset="0.19645" stop-color="#FFD75F"/>
<stop offset="0.403533" stop-color="#D2AA32"/>
<stop offset="0.592708" stop-color="#FFD75F"/>
<stop offset="0.8375" stop-color="#E4B118"/>
</linearGradient>
<linearGradient id="paint9_linear_192_9967" x1="51.1399" y1="38.688" x2="51.1399" y2="41.8609" gradientUnits="userSpaceOnUse">
<stop offset="0.19645" stop-color="#FFD75F"/>
<stop offset="0.403533" stop-color="#D2AA32"/>
<stop offset="0.592708" stop-color="#FFD75F"/>
<stop offset="0.8375" stop-color="#E4B118"/>
</linearGradient>
<linearGradient id="paint10_linear_192_9967" x1="55.4242" y1="38.7592" x2="55.4242" y2="41.8669" gradientUnits="userSpaceOnUse">
<stop offset="0.19645" stop-color="#FFD75F"/>
<stop offset="0.403533" stop-color="#D2AA32"/>
<stop offset="0.592708" stop-color="#FFD75F"/>
<stop offset="0.8375" stop-color="#E4B118"/>
</linearGradient>
<linearGradient id="paint11_linear_192_9967" x1="59.4898" y1="38.7311" x2="59.4898" y2="41.7898" gradientUnits="userSpaceOnUse">
<stop offset="0.19645" stop-color="#FFD75F"/>
<stop offset="0.403533" stop-color="#D2AA32"/>
<stop offset="0.592708" stop-color="#FFD75F"/>
<stop offset="0.8375" stop-color="#E4B118"/>
</linearGradient>
<linearGradient id="paint12_linear_192_9967" x1="47.0835" y1="43.5253" x2="47.0835" y2="46.5751" gradientUnits="userSpaceOnUse">
<stop offset="0.19645" stop-color="#FFD75F"/>
<stop offset="0.403533" stop-color="#D2AA32"/>
<stop offset="0.592708" stop-color="#FFD75F"/>
<stop offset="0.8375" stop-color="#E4B118"/>
</linearGradient>
<linearGradient id="paint13_linear_192_9967" x1="51.0844" y1="43.5444" x2="51.0844" y2="46.6488" gradientUnits="userSpaceOnUse">
<stop offset="0.19645" stop-color="#FFD75F"/>
<stop offset="0.403533" stop-color="#D2AA32"/>
<stop offset="0.592708" stop-color="#FFD75F"/>
<stop offset="0.8375" stop-color="#E4B118"/>
</linearGradient>
<linearGradient id="paint14_linear_192_9967" x1="55.1405" y1="43.5103" x2="55.1405" y2="46.5751" gradientUnits="userSpaceOnUse">
<stop offset="0.19645" stop-color="#FFD75F"/>
<stop offset="0.403533" stop-color="#D2AA32"/>
<stop offset="0.592708" stop-color="#FFD75F"/>
<stop offset="0.8375" stop-color="#E4B118"/>
</linearGradient>
<linearGradient id="paint15_linear_192_9967" x1="59.0122" y1="43.5699" x2="59.0122" y2="46.6453" gradientUnits="userSpaceOnUse">
<stop offset="0.19645" stop-color="#FFD75F"/>
<stop offset="0.403533" stop-color="#D2AA32"/>
<stop offset="0.592708" stop-color="#FFD75F"/>
<stop offset="0.8375" stop-color="#E4B118"/>
</linearGradient>
</defs>
</svg>
