<svg width="696" height="484" viewBox="0 0 696 484" fill="none" xmlns="http://www.w3.org/2000/svg">
<path d="M1.02391 7.67809C1.02391 4.07117 3.9479 1.1472 7.55482 1.1472H13.8243C10.9616 1.76479 8.39083 2.7742 6.2803 4.07576C3.82079 5.59254 1.96464 7.52234 1.02391 9.70598V7.67809ZM1.02391 477.125V475.097C1.96463 477.281 3.82078 479.211 6.28029 480.728C8.39083 482.029 10.9617 483.039 13.8243 483.656H7.55479C3.94787 483.656 1.02391 480.732 1.02391 477.125ZM675.653 483.656H20.4162C15.0195 483.656 10.1502 482.307 6.64115 480.143C3.12667 477.975 1.02391 475.026 1.02391 471.829V12.9747C1.02391 9.77721 3.12667 6.82828 6.64116 4.6609C10.1502 2.49689 15.0195 1.1472 20.4162 1.1472H675.653C681.05 1.1472 685.919 2.49688 689.428 4.6609C692.943 6.82828 695.045 9.7772 695.045 12.9747V471.829C695.045 475.026 692.943 477.975 689.428 480.143C685.919 482.307 681.05 483.656 675.653 483.656ZM689.789 4.07576C687.678 2.7742 685.108 1.76479 682.245 1.1472H688.514C692.121 1.1472 695.045 4.07119 695.045 7.67811V9.70589C694.105 7.52229 692.248 5.59252 689.789 4.07576ZM689.789 480.728C692.248 479.211 694.105 477.281 695.045 475.098V477.125C695.045 480.732 692.121 483.656 688.514 483.656H682.245C685.108 483.039 687.678 482.029 689.789 480.728Z" fill="white" stroke="#ACACAC" stroke-width="0.687465"/>
</svg>
