<svg width="40" height="40" viewBox="0 0 40 40" fill="none" xmlns="http://www.w3.org/2000/svg">
<circle cx="19.9843" cy="19.8163" r="18.8857" stroke="black" stroke-width="0.803646"/>
<path d="M16.6089 11.7798H23.3595C25.9312 11.7798 28.0207 13.8693 28.0207 16.4409V23.1916C28.0207 24.4278 27.5296 25.6134 26.6555 26.4875C25.7813 27.3616 24.5957 27.8527 23.3595 27.8527H16.6089C14.0372 27.8527 11.9478 25.7632 11.9478 23.1916V16.4409C11.9478 15.2047 12.4388 14.0191 13.313 13.145C14.1871 12.2709 15.3727 11.7798 16.6089 11.7798ZM16.4482 13.3871C15.6809 13.3871 14.945 13.6919 14.4024 14.2345C13.8599 14.777 13.555 15.5129 13.555 16.2802V23.3523C13.555 24.9515 14.8489 26.2454 16.4482 26.2454H23.5203C24.2876 26.2454 25.0234 25.9406 25.566 25.398C26.1086 24.8555 26.4134 24.1196 26.4134 23.3523V16.2802C26.4134 14.6809 25.1195 13.3871 23.5203 13.3871H16.4482ZM24.2034 14.5925C24.4698 14.5925 24.7253 14.6984 24.9137 14.8868C25.1021 15.0752 25.2079 15.3307 25.2079 15.5971C25.2079 15.8635 25.1021 16.119 24.9137 16.3074C24.7253 16.4958 24.4698 16.6017 24.2034 16.6017C23.9369 16.6017 23.6814 16.4958 23.493 16.3074C23.3046 16.119 23.1988 15.8635 23.1988 15.5971C23.1988 15.3307 23.3046 15.0752 23.493 14.8868C23.6814 14.6984 23.9369 14.5925 24.2034 14.5925ZM19.9842 15.798C21.0499 15.798 22.072 16.2214 22.8255 16.9749C23.5791 17.7285 24.0024 18.7505 24.0024 19.8162C24.0024 20.8819 23.5791 21.904 22.8255 22.6576C22.072 23.4111 21.0499 23.8345 19.9842 23.8345C18.9185 23.8345 17.8965 23.4111 17.1429 22.6576C16.3893 21.904 15.966 20.8819 15.966 19.8162C15.966 18.7505 16.3893 17.7285 17.1429 16.9749C17.8965 16.2214 18.9185 15.798 19.9842 15.798ZM19.9842 17.4053C19.3448 17.4053 18.7316 17.6593 18.2794 18.1115C17.8273 18.5636 17.5733 19.1768 17.5733 19.8162C17.5733 20.4557 17.8273 21.0689 18.2794 21.521C18.7316 21.9732 19.3448 22.2272 19.9842 22.2272C20.6236 22.2272 21.2369 21.9732 21.689 21.521C22.1411 21.0689 22.3952 20.4557 22.3952 19.8162C22.3952 19.1768 22.1411 18.5636 21.689 18.1115C21.2369 17.6593 20.6236 17.4053 19.9842 17.4053Z" fill="black"/>
</svg>
