<svg width="24" height="24" viewBox="0 0 24 24" fill="none" xmlns="http://www.w3.org/2000/svg">
<g clip-path="url(#clip0_192_9997)">
<path d="M23.3553 7.12527C23.5742 7.12527 23.7512 6.94834 23.7512 6.72943C23.7512 6.51052 23.5742 6.3336 23.3553 6.3336H21.3761V5.93772H23.3553C23.5742 5.93772 23.7512 5.76079 23.7512 5.54188C23.7512 5.32297 23.5742 5.14605 23.3553 5.14605H21.3761V4.75016H22.9594C23.1783 4.75016 23.3553 4.57324 23.3553 4.35433C23.3553 4.13542 23.1783 3.95849 22.9594 3.95849H21.3761V3.56261H22.5636C22.7825 3.56261 22.9594 3.38568 22.9594 3.16678C22.9594 2.94787 22.7825 2.77094 22.5636 2.77094H21.3761V2.37506H22.1678C22.3867 2.37506 22.5636 2.19813 22.5636 1.97922C22.5636 1.76031 22.3867 1.58339 22.1678 1.58339H21.3761V1.18751H21.7719C21.9908 1.18751 22.1677 1.01058 22.1677 0.791671C22.1677 0.572762 21.9908 0.395835 21.7719 0.395835H21.3761C21.3761 0.176927 21.1991 0 20.9802 0C20.7613 0 20.5844 0.176927 20.5844 0.395835H20.1885C19.9696 0.395835 19.7927 0.572762 19.7927 0.791671C19.7927 1.01058 19.9696 1.18751 20.1885 1.18751H20.5843V1.58334H19.7926C19.5737 1.58334 19.3968 1.76027 19.3968 1.97918C19.3968 2.19809 19.5737 2.37501 19.7926 2.37501H20.5843V2.77085H19.3968C19.1779 2.77085 19.0009 2.94777 19.0009 3.16668C19.0009 3.38559 19.1779 3.56252 19.3968 3.56252H20.5843V3.95835H19.0009C18.782 3.95835 18.6051 4.13528 18.6051 4.35419C18.6051 4.5731 18.782 4.75002 19.0009 4.75002H20.5843V5.14586H18.6051C18.3862 5.14586 18.2092 5.32279 18.2092 5.54169C18.2092 5.7606 18.3862 5.93753 18.6051 5.93753H20.5843V6.33337H18.6051C18.3862 6.33337 18.2092 6.51029 18.2092 6.7292C18.2092 6.94811 18.3862 7.12504 18.6051 7.12504H20.5843V7.52087H18.6051C18.3862 7.52087 18.2092 7.6978 18.2092 7.91671C18.2092 8.13562 18.3862 8.31254 18.6051 8.31254H20.5843V8.70838H18.6051C18.3862 8.70838 18.2092 8.8853 18.2092 9.10421C18.2092 9.32312 18.3862 9.50005 18.6051 9.50005H20.5843V9.89588H19.0009C18.782 9.89588 18.6051 10.0728 18.6051 10.2917C18.6051 10.5106 18.782 10.6876 19.0009 10.6876H20.5843V11.0834H19.3968C19.1779 11.0834 19.0009 11.2603 19.0009 11.4792C19.0009 11.6981 19.1779 11.8751 19.3968 11.8751H20.5843V12.2709H19.7926C19.5737 12.2709 19.3968 12.4478 19.3968 12.6667C19.3968 12.8856 19.5737 13.0626 19.7926 13.0626H20.5843V14.646H20.1054C19.4966 14.646 19.0009 15.1416 19.0009 15.7504V16.6257H18.2092V23.751H23.7512V16.6257H22.9594V15.7508C22.9594 15.142 22.4638 14.6464 21.855 14.6464H21.3761V13.063H22.1678C22.3867 13.063 22.5636 12.8861 22.5636 12.6672C22.5636 12.4483 22.3867 12.2714 22.1678 12.2714H21.3761V11.8755H22.5636C22.7825 11.8755 22.9594 11.6986 22.9594 11.4796C22.9594 11.2607 22.7825 11.0838 22.5636 11.0838H21.3761V10.6879H22.9594C23.1783 10.6879 23.3553 10.511 23.3553 10.2921C23.3553 10.0732 23.1783 9.89625 22.9594 9.89625H21.3761V9.50037H23.3553C23.5742 9.50037 23.7512 9.32345 23.7512 9.10454C23.7512 8.88563 23.5742 8.7087 23.3553 8.7087H21.3761V8.31282H23.3553C23.5742 8.31282 23.7512 8.13589 23.7512 7.91699C23.7512 7.69808 23.5742 7.52115 23.3553 7.52115H21.3761V7.12527H23.3553ZM21.855 15.4381C22.0276 15.4381 22.1677 15.5783 22.1677 15.7508V16.6257H19.7926V15.7508C19.7926 15.5782 19.9328 15.4381 20.1053 15.4381H21.855Z" fill="black"/>
<path d="M15.0424 6.14409C15.1339 5.69954 15.0658 5.30329 14.801 5.03846C14.4946 4.73206 14.016 4.66795 13.4531 4.85439C12.9832 5.01155 12.4861 5.33535 12.0542 5.7676C11.2763 6.54544 10.924 7.43611 11.084 8.06352V13.0631H10.2922V15.0424H15.8342V13.0631H15.0424V6.14409ZM14.2507 13.0632H11.8756V8.78718C11.9374 8.79706 12.0023 8.80142 12.0692 8.80184C12.0731 8.80221 12.0771 8.80305 12.0815 8.80305C12.0934 8.80305 12.1072 8.79989 12.1195 8.79947C12.186 8.7979 12.2545 8.79154 12.3249 8.78087C12.3511 8.77693 12.3768 8.77257 12.4037 8.76742C12.4912 8.75002 12.5806 8.72864 12.6733 8.69774C13.1432 8.54137 13.6399 8.21757 14.0722 7.78532C14.134 7.72316 14.1933 7.65984 14.2508 7.59531L14.2507 13.0632ZM14.2705 5.99722C14.2682 6.00436 14.2634 6.00988 14.2614 6.01703C14.2397 6.10767 14.2064 6.20231 14.1652 6.29768C14.1601 6.30914 14.1549 6.32064 14.1498 6.33252C14.1122 6.41486 14.0671 6.49878 14.0168 6.58269C14.0057 6.60129 13.9962 6.61953 13.9843 6.63813C13.9305 6.72325 13.8699 6.80754 13.8046 6.89146C13.7932 6.90612 13.7844 6.92036 13.7726 6.93502C13.693 7.03396 13.6063 7.13138 13.5125 7.22555C13.1705 7.56716 12.7734 7.82999 12.4227 7.94717C12.1215 8.04691 11.9449 8.01369 11.8852 7.95432C11.8733 7.94202 11.8669 7.92068 11.8586 7.90245C11.8567 7.89689 11.8551 7.89573 11.8527 7.889C11.8507 7.88265 11.8456 7.87833 11.8428 7.87198C11.7736 7.61744 11.9711 6.97022 12.6139 6.32737C13.1768 5.76449 13.7445 5.54238 14.0473 5.54238C14.138 5.54238 14.2049 5.56219 14.2413 5.59818C14.301 5.65835 14.3153 5.80243 14.2705 5.99722Z" fill="black"/>
<path d="M7.52115 1.18748C7.74006 1.18748 7.91699 1.01056 7.91699 0.791648C7.91699 0.57274 7.74006 0.395813 7.52115 0.395813H3.56266H3.16682H1.91511C0.858981 0.395767 0 1.25479 0 2.31093V21.0442C0 22.1003 0.858981 22.9593 1.91511 22.9593H3.16678H3.56266H7.52115C7.74006 22.9593 7.91699 22.7823 7.91699 22.5634C7.91699 22.3445 7.74006 22.1676 7.52115 22.1676H3.56266V20.98H7.52115C7.74006 20.98 7.91699 20.8031 7.91699 20.5842C7.91699 20.3653 7.74006 20.1884 7.52115 20.1884H3.56266V19.0008H7.52115C7.74006 19.0008 7.91699 18.8239 7.91699 18.605C7.91699 18.3861 7.74006 18.2092 7.52115 18.2092H3.56266V17.0216H7.52115C7.74006 17.0216 7.91699 16.8447 7.91699 16.6258C7.91699 16.4069 7.74006 16.2299 7.52115 16.2299H3.56266V15.0424H7.52115C7.74006 15.0424 7.91699 14.8654 7.91699 14.6465C7.91699 14.4276 7.74006 14.2507 7.52115 14.2507H3.56266V13.0632H7.52115C7.74006 13.0632 7.91699 12.8862 7.91699 12.6673C7.91699 12.4484 7.74006 12.2715 7.52115 12.2715H3.56266V11.0839H7.52115C7.74006 11.0839 7.91699 10.907 7.91699 10.6881C7.91699 10.4692 7.74006 10.2923 7.52115 10.2923H3.56266V9.1047H7.52115C7.74006 9.1047 7.91699 8.92778 7.91699 8.70887C7.91699 8.48996 7.74006 8.31303 7.52115 8.31303H3.56266V7.12548H7.52115C7.74006 7.12548 7.91699 6.94855 7.91699 6.72964C7.91699 6.51074 7.74006 6.33381 7.52115 6.33381H3.56266V5.14626H7.52115C7.74006 5.14626 7.91699 4.96933 7.91699 4.75042C7.91699 4.53151 7.74006 4.35459 7.52115 4.35459H3.56266V3.16703H7.52115C7.74006 3.16703 7.91699 2.99011 7.91699 2.7712C7.91699 2.55229 7.74006 2.37536 7.52115 2.37536H3.56266V1.18748H7.52115Z" fill="black"/>
<path d="M15.8342 15.834H10.2922V23.751H15.8342V15.834Z" fill="black"/>
</g>
<defs>
<clipPath id="clip0_192_9997">
<rect width="23.7511" height="23.7511" fill="white"/>
</clipPath>
</defs>
</svg>
