<svg width="29" height="25" viewBox="0 0 29 25" fill="none" xmlns="http://www.w3.org/2000/svg">
<path d="M9.59177 6.52255L9.59166 6.52269C9.52778 6.60441 9.44381 6.66824 9.34954 6.71125C9.25529 6.75425 9.15177 6.77603 9.04784 6.77597M9.59177 6.52255L9.04796 6.56391M9.59177 6.52255L11.202 4.45925H17.7494L19.3619 6.52266L19.3619 6.52269C19.4258 6.60441 19.5097 6.66824 19.604 6.71125C19.6983 6.75425 19.8018 6.77603 19.9057 6.77597M9.59177 6.52255L19.529 6.39209C19.5703 6.44498 19.6263 6.48834 19.692 6.51831C19.7577 6.54829 19.8311 6.56395 19.9056 6.56391M9.04784 6.77597L9.04796 6.56391M9.04784 6.77597H9.04796V6.56391M9.04784 6.77597H5.42875C5.11514 6.77597 4.81985 6.8826 4.60673 7.06449C4.39465 7.2455 4.28361 7.48312 4.28361 7.72227V18.5336C4.28361 18.7728 4.39465 19.0104 4.60673 19.1914C4.81985 19.3733 5.11514 19.4799 5.42875 19.4799H23.5248C23.8384 19.4799 24.1337 19.3733 24.3468 19.1914C24.5589 19.0104 24.6699 18.7728 24.6699 18.5336V7.72227C24.6699 7.48312 24.5589 7.2455 24.3468 7.06449C24.1337 6.8826 23.8384 6.77597 23.5248 6.77597H19.9057M9.04796 6.56391H5.42875C5.0688 6.56391 4.72359 6.68595 4.46907 6.90318C4.21454 7.12042 4.07155 7.41505 4.07155 7.72227V18.5336C4.07155 18.8409 4.21454 19.1355 4.46907 19.3527C4.72359 19.57 5.0688 19.692 5.42875 19.692H23.5248C23.8847 19.692 24.23 19.57 24.4845 19.3527C24.739 19.1355 24.882 18.8409 24.882 18.5336V7.72227C24.882 7.41505 24.739 7.12042 24.4845 6.90318C24.23 6.68595 23.8847 6.56391 23.5248 6.56391H19.9056M19.9057 6.77597L19.9056 6.56391M19.9057 6.77597H19.9056V6.56391M18.6386 3.51625L18.6385 3.51616C18.5748 3.43465 18.4911 3.37094 18.3972 3.32794C18.3032 3.28494 18.2 3.26305 18.0963 3.26288H18.096L10.8576 3.26288L10.8572 3.26288C10.7536 3.26305 10.6504 3.28494 10.5564 3.32794C10.4624 3.37094 10.3787 3.43464 10.315 3.51614C10.315 3.51615 10.315 3.51616 10.315 3.51617L8.70142 5.5796H5.42875C4.78249 5.5796 4.15723 5.79842 3.69161 6.19583C3.22495 6.59411 2.95469 7.14218 2.95469 7.72227V18.5336C2.95469 19.1137 3.22495 19.6618 3.69161 20.0601C4.15723 20.4575 4.78249 20.6763 5.42875 20.6763H23.5248C24.1711 20.6763 24.7963 20.4575 25.2619 20.0601C25.7286 19.6618 25.9989 19.1137 25.9989 18.5336V7.72227C25.9989 7.14218 25.7286 6.59411 25.2619 6.19583C24.7963 5.79842 24.1711 5.5796 23.5248 5.5796H20.25L18.6386 3.51625ZM14.4768 8.66857C13.5469 8.66857 12.6357 8.90379 11.8583 9.34715C11.0808 9.79058 10.4692 10.424 10.1064 11.1716C9.74318 11.92 9.64734 12.7459 9.83316 13.5433C10.0189 14.34 10.476 15.0666 11.1401 15.6334C11.804 16.2 12.6461 16.583 13.5587 16.7379C14.4713 16.8929 15.4175 16.8135 16.2787 16.5091C17.14 16.2046 17.8812 15.6872 18.4053 15.0177C18.9299 14.3477 19.2128 13.5557 19.2128 12.7418C19.2128 11.6497 18.7043 10.6106 17.8134 9.85025C16.9236 9.09079 15.723 8.66857 14.4768 8.66857ZM14.4768 15.6187C13.7961 15.6187 13.1328 15.4463 12.5711 15.126C12.0095 14.8057 11.5774 14.3537 11.3238 13.8313C11.0707 13.3097 11.0053 12.7382 11.1336 12.1873C11.2622 11.6359 11.5806 11.124 12.0553 10.7189C12.5303 10.3135 13.1391 10.0345 13.8062 9.9213C14.4732 9.80805 15.1644 9.86637 15.7911 10.0879C16.4178 10.3095 16.9484 10.683 17.3191 11.1564C17.6893 11.6293 17.8839 12.1811 17.8839 12.7418C17.8839 13.493 17.5346 14.2217 16.8983 14.7648C16.261 15.3087 15.3903 15.6187 14.4768 15.6187Z" fill="black" stroke="black" stroke-width="0.424126"/>
<ellipse cx="21.9489" cy="9.16657" rx="0.933989" ry="0.797152" fill="black"/>
</svg>
