<svg width="331" height="99" viewBox="0 0 331 99" fill="none" xmlns="http://www.w3.org/2000/svg">
<path d="M1.19814 10.095C1.19814 5.17732 5.1847 1.19077 10.1024 1.19077H321.282C326.2 1.19077 330.186 5.17733 330.186 10.095V89.416C330.186 94.3337 326.2 98.3203 321.282 98.3203H10.1024C5.18471 98.3203 1.19814 94.3337 1.19814 89.416V10.095ZM5.19528 1.5622C3.45966 2.56249 2.05788 4.0771 1.19814 5.89787V3.19232C1.19814 3.10717 1.2714 2.90427 1.7139 2.62856C2.1316 2.36829 2.76718 2.11675 3.59418 1.8988C4.07534 1.77199 4.61233 1.65884 5.19528 1.5622ZM1.19814 96.3187V93.6131C2.05789 95.4339 3.45967 96.9485 5.1953 97.9488C4.61233 97.8522 4.07534 97.739 3.59417 97.6122C2.76718 97.3943 2.1316 97.1427 1.71389 96.8825C1.2714 96.6068 1.19814 96.4039 1.19814 96.3187ZM327.79 97.6122C327.309 97.739 326.772 97.8522 326.189 97.9488C327.925 96.9485 329.327 95.4339 330.186 93.6132V96.3187C330.186 96.4039 330.113 96.6068 329.671 96.8825C329.253 97.1427 328.617 97.3943 327.79 97.6122ZM330.186 3.19232V5.89783C329.327 4.07708 327.925 2.56248 326.189 1.56221C326.772 1.65885 327.309 1.77199 327.79 1.8988C328.617 2.11675 329.253 2.36829 329.671 2.62856C330.113 2.90427 330.186 3.10717 330.186 3.19232Z" stroke="#ACACAC" stroke-width="0.937288"/>
</svg>
