<svg width="320" height="194" viewBox="0 0 320 194" fill="none" xmlns="http://www.w3.org/2000/svg">
<path d="M0.971103 9.17341C0.971103 4.41567 4.82802 0.55875 9.58576 0.55875H310.646C310.648 0.55875 310.65 0.558751 310.652 0.558753C315.407 0.562517 319.26 4.41799 319.26 9.17341V184.187C319.26 188.945 315.403 192.802 310.645 192.802H9.58574C9.58341 192.802 9.58109 192.802 9.57877 192.802C4.82423 192.798 0.971103 188.942 0.971103 184.187V9.17341ZM3.43533 1.90469C2.40111 2.78068 1.55632 3.87342 0.971103 5.11279V4.97058C0.971103 3.87465 1.80619 2.77857 3.38803 1.92987C3.40373 1.92145 3.4195 1.91305 3.43533 1.90469ZM0.971103 188.39V188.248C1.55631 189.487 2.40108 190.58 3.43529 191.456C3.41947 191.447 3.40372 191.439 3.38803 191.431C1.80619 190.582 0.971103 189.486 0.971103 188.39ZM316.843 191.431C316.828 191.439 316.812 191.447 316.796 191.456C317.83 190.58 318.675 189.487 319.26 188.248V188.39C319.26 189.486 318.425 190.582 316.843 191.431ZM319.26 4.97058V5.11279C318.675 3.87343 317.83 2.78069 316.796 1.90471C316.812 1.91307 316.828 1.92145 316.843 1.92987C318.425 2.77857 319.26 3.87465 319.26 4.97058Z" fill="white" stroke="#ACACAC" stroke-width="0.906806"/>
</svg>
