<svg width="320" height="99" viewBox="0 0 320 99" fill="none" xmlns="http://www.w3.org/2000/svg">
<path d="M0.970981 9.55975C0.970981 4.802 4.8279 0.945087 9.58564 0.945087H310.645C310.648 0.945087 310.65 0.945088 310.652 0.94509C315.407 0.948854 319.26 4.80432 319.26 9.55975V89.3587C319.26 94.1165 315.403 97.9734 310.645 97.9734H9.58561C9.58329 97.9734 9.58097 97.9734 9.57865 97.9734C4.8241 97.9696 0.970981 94.1141 0.970981 89.3587V9.55975ZM4.80917 1.32121C3.14336 2.28909 1.79798 3.74771 0.970981 5.49912V2.95856C0.970981 2.85862 1.05127 2.65251 1.47546 2.37968C1.87909 2.12007 2.49321 1.86918 3.29257 1.65172C3.74908 1.52753 4.25761 1.41647 4.80917 1.32121ZM0.970981 95.9599V93.4193C1.79798 95.1708 3.14334 96.6294 4.80914 97.5972C4.25759 97.502 3.74907 97.3909 3.29257 97.2667C2.49321 97.0493 1.87909 96.7984 1.47546 96.5388C1.05127 96.266 0.970981 96.0598 0.970981 95.9599ZM316.938 97.2667C316.482 97.3909 315.973 97.502 315.422 97.5972C317.088 96.6294 318.433 95.1707 319.26 93.4193V95.9599C319.26 96.0598 319.18 96.266 318.756 96.5388C318.352 96.7984 317.738 97.0493 316.938 97.2667ZM319.26 2.95856V5.49913C318.433 3.74771 317.088 2.2891 315.422 1.32122C315.973 1.41647 316.482 1.52753 316.938 1.65172C317.738 1.86918 318.352 2.12007 318.756 2.37968C319.18 2.65251 319.26 2.85862 319.26 2.95856Z" stroke="#ACACAC" stroke-width="0.906806"/>
</svg>
