<svg width="323" height="196" viewBox="0 0 323 196" fill="none" xmlns="http://www.w3.org/2000/svg">
<path d="M0.81481 9.87458C0.81481 5.07502 4.70562 1.18419 9.50518 1.18419H313.211C318.01 1.18419 321.901 5.07501 321.901 9.87457V186.426C321.901 191.226 318.01 195.117 313.211 195.117H9.50519C4.70563 195.117 0.81481 191.226 0.81481 186.426V9.87458ZM3.30071 2.54196C2.25739 3.42565 1.40517 4.528 0.81481 5.77826V5.6348C0.81481 4.52924 1.65724 3.42352 3.25298 2.56737C3.26883 2.55887 3.28473 2.5504 3.30071 2.54196ZM0.81481 190.666V190.523C1.40517 191.773 2.2574 192.875 3.30072 193.759C3.28474 193.751 3.26883 193.742 3.25298 193.734C1.65724 192.877 0.81481 191.772 0.81481 190.666ZM319.463 193.734C319.447 193.742 319.431 193.75 319.415 193.759C320.459 192.875 321.311 191.773 321.901 190.523V190.666C321.901 191.772 321.059 192.877 319.463 193.734ZM321.901 5.6348V5.77823C321.311 4.52799 320.459 3.42565 319.415 2.54197C319.431 2.5504 319.447 2.55887 319.463 2.56737C321.059 3.42352 321.901 4.52923 321.901 5.6348Z" fill="white" stroke="#ACACAC" stroke-width="0.914776"/>
</svg>
