<svg width="330" height="196" viewBox="0 0 330 196" fill="none" xmlns="http://www.w3.org/2000/svg">
<path d="M1.19636 10.0642C1.19636 5.16516 5.16784 1.19368 10.0669 1.19368H320.069C324.968 1.19368 328.94 5.16515 328.94 10.0642V186.31C328.94 191.209 324.968 195.18 320.069 195.18H10.0669C5.16783 195.18 1.19636 191.209 1.19636 186.31V10.0642ZM3.82158 2.50611C2.71661 3.42018 1.81544 4.57191 1.19636 5.88298V5.63664C1.19636 4.54063 2.04979 3.43616 3.68164 2.57809C3.72776 2.55384 3.77441 2.52984 3.82158 2.50611ZM1.19636 190.737V190.491C1.81543 191.802 2.7166 192.954 3.82156 193.868C3.77439 193.844 3.72775 193.82 3.68164 193.796C2.04979 192.938 1.19636 191.833 1.19636 190.737ZM326.454 193.796C326.408 193.82 326.361 193.844 326.314 193.868C327.419 192.954 328.32 191.802 328.94 190.491V190.737C328.94 191.833 328.086 192.938 326.454 193.796ZM328.94 5.63664V5.88303C328.32 4.57194 327.419 3.42019 326.314 2.5061C326.361 2.52984 326.408 2.55384 326.454 2.57809C328.086 3.43616 328.94 4.54063 328.94 5.63664Z" fill="white" stroke="#ACACAC" stroke-width="0.933741"/>
</svg>
