<svg width="323" height="100" viewBox="0 0 323 100" fill="none" xmlns="http://www.w3.org/2000/svg">
<path d="M0.81481 9.76703C0.81481 4.96747 4.70562 1.07667 9.50518 1.07667H313.211C318.01 1.07667 321.901 4.96748 321.901 9.76704V90.2673C321.901 95.0669 318.01 98.9577 313.211 98.9577H9.50519C4.70563 98.9577 0.81481 95.0669 0.81481 90.2673V9.76703ZM4.68672 1.4561C3.00627 2.43248 1.64908 3.90391 0.81481 5.67071V3.10784C0.81481 3.00701 0.895801 2.7991 1.32372 2.52387C1.7309 2.26198 2.35042 2.00888 3.1568 1.78951C3.61732 1.66423 4.13032 1.55219 4.68672 1.4561ZM0.81481 96.9265V94.3636C1.64908 96.1304 3.00628 97.6019 4.68672 98.5783C4.13032 98.4822 3.61732 98.3701 3.1568 98.2449C2.35042 98.0255 1.7309 97.7724 1.32372 97.5105C0.895801 97.2353 0.81481 97.0273 0.81481 96.9265ZM319.559 98.2449C319.099 98.3701 318.586 98.4822 318.029 98.5783C319.71 97.6019 321.067 96.1305 321.901 94.3637V96.9265C321.901 97.0273 321.82 97.2353 321.392 97.5105C320.985 97.7724 320.366 98.0255 319.559 98.2449ZM321.901 3.10784V5.6707C321.067 3.9039 319.71 2.43247 318.029 1.4561C318.586 1.55219 319.099 1.66423 319.559 1.78951C320.366 2.00888 320.985 2.26198 321.392 2.52387C321.82 2.79909 321.901 3.00701 321.901 3.10784Z" stroke="#ACACAC" stroke-width="0.914776"/>
</svg>
