<svg width="331" height="194" viewBox="0 0 331 194" fill="none" xmlns="http://www.w3.org/2000/svg">
<path d="M1.19814 9.47821C1.19814 4.56054 5.1847 0.573991 10.1024 0.573991H321.282C326.2 0.573991 330.186 4.56055 330.186 9.47823V184.142C330.186 189.06 326.2 193.046 321.282 193.046H10.1024C5.18471 193.046 1.19814 189.06 1.19814 184.142V9.47821ZM3.88118 1.85206C2.75017 2.77581 1.82848 3.94617 1.19814 5.28109V4.97712C1.19814 3.89543 2.05101 2.80044 3.69088 1.94808C3.75335 1.91561 3.8168 1.8836 3.88118 1.85206ZM1.19814 188.643V188.339C1.82848 189.674 2.75019 190.844 3.88122 191.768C3.81681 191.737 3.75337 191.705 3.69088 191.672C2.05101 190.82 1.19814 189.725 1.19814 188.643ZM327.694 191.672C327.631 191.705 327.568 191.737 327.503 191.768C328.634 190.844 329.556 189.674 330.186 188.339V188.643C330.186 189.725 329.333 190.82 327.694 191.672ZM330.186 4.97712V5.28105C329.556 3.94614 328.634 2.7758 327.503 1.85206C327.568 1.8836 327.631 1.91561 327.694 1.94808C329.333 2.80044 330.186 3.89543 330.186 4.97712Z" fill="white" stroke="#ACACAC" stroke-width="0.937288"/>
</svg>
