<svg width="330" height="100" viewBox="0 0 330 100" fill="none" xmlns="http://www.w3.org/2000/svg">
<path d="M1.19636 10.0216C1.19636 5.12257 5.16784 1.15111 10.0669 1.15111H320.069C324.968 1.15111 328.94 5.12258 328.94 10.0216V90.1797C328.94 95.0788 324.968 99.0503 320.069 99.0503H10.0669C5.16783 99.0503 1.19636 95.0788 1.19636 90.1797V10.0216ZM5.16767 1.52732C3.44356 2.52387 2.05109 4.03027 1.19636 5.8404V3.17373C1.19636 3.08233 1.27292 2.87658 1.71223 2.59966C2.12816 2.33748 2.76104 2.08408 3.58463 1.8645C4.06064 1.73759 4.59153 1.62426 5.16767 1.52732ZM1.19636 97.0277V94.361C2.05109 96.1711 3.44355 97.6775 5.16766 98.6741C4.59152 98.5771 4.06064 98.4638 3.58463 98.3369C2.76104 98.1173 2.12816 97.8639 1.71223 97.6017C1.27292 97.3248 1.19636 97.119 1.19636 97.0277ZM326.551 98.3369C326.075 98.4638 325.544 98.5771 324.968 98.6741C326.692 97.6775 328.085 96.1711 328.94 94.3609V97.0277C328.94 97.119 328.863 97.3248 328.424 97.6017C328.008 97.8639 327.375 98.1173 326.551 98.3369ZM328.94 3.17373V5.84046C328.085 4.0303 326.692 2.52388 324.968 1.52732C325.544 1.62426 326.075 1.73759 326.551 1.8645C327.375 2.08408 328.008 2.33748 328.424 2.59966C328.863 2.87658 328.94 3.08233 328.94 3.17373Z" stroke="#ACACAC" stroke-width="0.933741"/>
</svg>
