<svg width="169" height="217" viewBox="0 0 169 217" fill="none" xmlns="http://www.w3.org/2000/svg">
<path d="M53.7954 161.902C56.2708 162.301 58.8094 161.745 61.1813 160.928C63.9387 159.956 66.5295 158.723 69.0616 157.377C71.6333 155.988 74.1859 154.442 76.4925 152.722C79.3036 150.717 81.8496 148.382 84.356 146.09C84.4941 146.116 84.6321 146.143 84.7606 146.091C88.9809 144.585 93.7224 145.877 97.6532 147.522C101.633 149.201 105.443 151.331 109.802 152.066C113.52 152.703 117.341 152.342 120.369 150.277C123.279 148.342 125.068 145.327 126.944 142.66C128.741 140.079 130.735 137.637 133.692 136.093C134.33 136.902 135.008 137.668 135.646 138.478C137.168 140.271 138.691 142.064 140.213 143.857C143.238 147.287 146.392 150.665 149.674 153.992C158.342 162.779 167.721 171.143 177.696 178.857C175.332 177.895 172.947 177.132 170.412 176.62C165.531 175.658 160.44 175.546 155.551 176.364C149.952 177.248 144.978 179.576 140.063 182.017C135.139 184.379 130.095 186.872 124.467 187.522C121.851 187.808 119.137 187.669 116.624 186.958C114.061 186.212 111.876 184.877 110.176 183.101C109.92 182.848 109.416 183.133 109.632 183.429C109.454 183.445 109.335 183.575 109.403 183.766C109.413 183.845 109.462 183.879 109.472 183.958C109.353 184.087 109.332 184.287 109.489 184.47C109.94 185.218 110.351 186.009 110.851 186.792C114.606 192.881 119.22 198.651 124.933 203.487C130.293 208.001 136.633 211.711 143.69 213.93C150.421 216.061 157.584 216.57 164.614 215.629C171.645 214.688 178.415 212.349 184.497 209.166C187.88 207.423 191.046 205.385 194.105 203.199C197.163 201.012 200.114 198.678 202.681 196.143C205.053 197.54 207.426 198.936 209.838 200.289C213.599 202.385 217.439 204.394 221.438 206.23C225.339 207.996 229.219 209.962 233.408 211.147C234.059 211.323 234.329 210.586 233.886 210.272C229.85 207.767 225.418 205.696 221.233 203.443C217.147 201.259 213.011 199.041 208.955 196.736C209.462 195.74 209.773 194.603 210.093 193.545C210.483 192.323 210.864 191.022 211.254 189.799C211.935 187.284 212.528 184.777 212.844 182.217C213.345 178.217 213.155 174.085 211.918 170.209C210.622 166.22 208.139 162.818 204.895 159.804C201.602 156.755 197.695 154.199 194.075 151.419C192.294 150.085 190.543 148.629 188.961 147.079C187.732 145.851 186.623 144.493 185.642 143.084C185.632 143.006 185.632 143.006 185.623 142.928C185.268 142.961 185.001 142.986 184.695 143.055C184.714 143.211 184.684 143.333 184.703 143.489C184.492 144.339 184.37 145.181 184.248 146.022C184.006 147.35 183.803 148.634 183.61 149.996C183.204 152.564 182.759 155.175 182.354 157.744C181.706 161.639 180.929 165.586 181.278 169.546C181.428 171.508 181.834 173.367 182.596 175.192C183.359 177.018 184.467 178.731 185.733 180.272C186.636 181.412 187.658 182.422 188.769 183.424C188.571 183.641 188.659 183.988 188.984 184.076C189.171 184.137 189.447 184.19 189.674 184.208C190.628 185.027 191.671 185.838 192.704 186.571C183.767 180.734 175.178 174.431 167.243 167.591C160.92 162.179 154.924 156.5 149.254 150.553C146.473 147.653 143.723 144.632 141.11 141.638C139.755 140.106 138.39 138.495 137.114 136.877C136.534 136.18 135.945 135.406 135.366 134.709C135.504 134.736 135.602 134.806 135.74 134.832C144.406 136.978 153.497 134.143 161.092 130.461C161.181 130.453 161.27 130.444 161.349 130.358C161.389 130.314 161.389 130.314 161.428 130.271C161.557 130.219 161.596 130.176 161.725 130.125C166.343 127.83 170.785 125.197 175.462 123.016C177.796 121.887 180.189 120.87 182.699 120.079C185.169 119.332 187.698 118.698 190.246 118.22C195.293 117.23 200.458 116.465 205.31 114.979C209.904 113.596 214.394 111.354 217.595 108.126C220.598 105.115 222.698 100.964 221.708 96.9069C221.233 94.8568 219.859 93.1683 217.83 92.0159C215.615 90.8021 212.982 90.2207 210.478 89.5876C201.083 87.3523 191.029 86.7208 181.382 87.9483C181.335 87.5575 181.336 87.2016 181.199 86.8192C180.263 81.7293 177.589 77.1199 175.694 72.2787C174.045 67.9678 172.95 63.051 174.745 58.6124C175.603 56.4363 177.455 54.6801 178.175 52.4776C178.895 50.275 177.828 48.1622 175.781 46.8535C175.387 46.5744 174.964 46.4168 174.53 46.181C175.095 45.6533 175.699 45.0824 176.264 44.5547C181.042 39.518 183.339 32.9369 183.712 26.4189C184.093 20.335 182.817 13.9333 179.336 8.60949C177.669 5.99991 175.409 3.68356 172.712 1.84323C171.443 1.01446 170.045 0.237371 168.456 0.110698C166.601 0.00921113 165.245 1.04649 164.125 2.18003C158.407 7.97753 152.688 13.7751 147.068 19.6423C144.471 22.2989 141.973 25.0252 139.77 27.9608C137.765 30.68 135.917 33.5821 134.947 36.6779C134.447 35.895 133.907 35.1554 133.368 34.4158C130.501 30.8128 126.803 27.7626 122.669 25.1884C120.434 23.8183 118.081 22.5781 115.648 21.4244C113.363 20.3753 111.048 19.4477 108.702 18.6414C108.653 18.6066 108.604 18.5717 108.515 18.5801C108.377 18.5536 108.279 18.4838 108.141 18.4573C107.953 18.396 107.755 18.6123 107.863 18.7603C106.944 18.9656 106.075 19.2059 105.225 19.6024C100.785 21.5238 97.8971 25.4729 95.6116 29.2068C94.9757 30.2551 94.3793 31.2601 93.7433 32.3084C93.7433 32.3084 93.7433 32.3084 93.6941 32.2735C88.7383 30.3304 83.6333 28.6385 78.178 28.1261C73.9064 27.739 69.3844 28.2452 65.5578 30.0297C60.96 32.1242 58.2399 35.9783 56.3179 40.1127C54.6148 43.8312 53.0688 47.7325 52.2924 51.6797C51.6666 55.0197 51.6421 58.5005 52.9315 61.6992C49.7402 60.2218 46.6281 58.6579 43.5859 56.9293C41.0753 55.5062 38.7329 53.9882 36.3413 52.4353C33.9497 50.8825 31.5581 49.3296 28.9285 48.0363C26.5354 46.8393 23.8948 45.8239 21.0735 45.5369C18.7061 45.2862 16.0691 45.7725 14.7384 47.756C13.368 49.7829 13.7225 52.3188 14.2166 54.5252C14.7393 56.9662 15.4001 59.4336 16.1894 61.8494C17.7774 66.7591 19.8891 71.5402 22.2974 76.1748C23.0706 77.7224 23.9231 79.1836 24.7851 80.7228C24.7946 80.801 24.8042 80.8791 24.9026 80.9489C25.0692 81.2098 25.2359 81.4708 25.3137 81.7402C24.6426 81.764 24.0602 81.7795 23.4383 81.8383C17.2883 82.2611 11.2417 83.8995 5.86186 86.5818C3.32028 87.8496 0.410778 89.7846 0.813027 92.7113C0.984783 94.1181 2.14496 95.1549 3.21629 96.2C4.4844 97.3847 5.75253 98.5693 7.02065 99.754C12.0439 104.458 17.0767 109.24 22.3078 113.805C27.2342 118.083 32.6254 122.12 38.8906 124.849C43.9639 127.018 49.6718 128.495 55.3283 128.079C50.6042 132.083 47.2862 137.298 46.5214 143.181C46.4913 143.302 46.55 143.415 46.6976 143.52C46.6073 143.884 46.4773 144.292 46.3869 144.656C45.2426 149.27 44.4808 154.442 47.7697 158.558C49.1648 160.047 51.2708 161.469 53.7954 161.902ZM187.067 177.577C188.132 177.832 189.246 178.122 190.31 178.377C191.464 178.624 192.529 178.879 193.722 179.083C194.274 179.189 194.915 179.286 195.468 179.392C195.655 179.453 195.882 179.472 196.069 179.533C197.048 181.298 198.028 183.064 199.096 184.82C198.544 184.715 197.992 184.609 197.44 184.503C196.522 184.352 195.605 184.202 194.648 184.094C193.731 183.944 192.814 183.793 191.857 183.686C191.403 183.65 190.94 183.535 190.477 183.421C188.775 182.001 187.183 180.372 185.937 178.632C185.564 178.153 185.182 177.597 184.888 177.031C185.075 177.093 185.302 177.111 185.49 177.172C185.904 177.252 186.465 177.436 187.067 177.577ZM183.885 164.398C184.594 164.687 185.304 164.975 186.092 165.178C186.881 165.38 187.67 165.582 188.449 165.706C188.863 165.786 189.415 165.891 189.859 165.85C191.166 169.56 192.779 173.203 194.561 176.75C194.923 177.507 195.275 178.185 195.677 178.898C195.539 178.871 195.401 178.845 195.263 178.818C194.71 178.713 194.158 178.607 193.606 178.501C192.502 178.289 191.397 178.077 190.332 177.822C189.179 177.575 188.114 177.32 187 177.03C186.488 176.88 185.935 176.774 185.374 176.59C185.048 176.502 184.723 176.415 184.398 176.327C183.879 175.388 183.399 174.405 183.048 173.371C182.464 171.529 182.186 169.618 182.223 167.717C182.239 166.372 182.294 164.983 182.447 163.664C182.595 163.769 182.733 163.795 182.881 163.9C183.215 164.066 183.55 164.232 183.885 164.398ZM185.015 146.78C185.112 147.206 185.159 147.596 185.217 148.065C185.573 150.245 185.968 152.382 186.502 154.545C187.346 158.142 188.406 161.678 189.636 165.12C189.271 165.075 188.906 165.03 188.63 164.977C187.85 164.853 187.151 164.643 186.362 164.441C185.613 164.195 184.913 163.985 184.194 163.618C183.859 163.452 183.525 163.286 183.19 163.12C182.953 163.023 182.756 162.884 182.52 162.788C182.776 160.471 183.211 158.137 183.605 155.847C183.999 153.556 184.305 151.274 184.7 148.984C184.791 148.264 184.883 147.543 185.015 146.78ZM197.278 154.832C197.321 156.29 197.759 157.672 198.069 159.105C198.204 159.843 198.379 160.538 198.553 161.234C198.641 161.581 198.728 161.929 198.776 162.319C198.863 162.667 198.862 163.023 199.078 163.319C198.689 164.185 198.251 165.017 197.863 165.884C196.648 168.45 195.473 170.972 194.258 173.537C192.85 170.469 191.531 167.391 190.379 164.219C189.033 160.552 187.953 156.859 187.041 153.071C186.585 151.177 186.169 149.24 185.802 147.338C185.589 146.33 185.465 145.314 185.292 144.263C185.331 144.22 185.282 144.185 185.322 144.142C187.519 147.413 190.813 150.106 194.03 152.53C195.152 153.254 196.235 154.021 197.278 154.832ZM201.694 158.249C201.645 158.214 201.605 158.257 201.566 158.301C201.139 158.855 200.86 159.514 200.581 160.172C200.253 160.796 200.013 161.412 199.685 162.036C199.576 162.244 199.506 162.408 199.396 162.616C199.377 162.46 199.319 162.347 199.299 162.191C199.212 161.843 199.174 161.531 199.087 161.183C198.912 160.488 198.737 159.793 198.612 159.133C198.272 157.821 198.1 156.414 197.631 155.154C198.96 156.096 200.387 157.107 201.694 158.249ZM206.903 163.37C206.716 163.309 206.548 163.403 206.429 163.533C205.923 164.174 205.574 164.998 205.216 165.743C204.808 166.453 204.45 167.199 204.042 167.909C203.227 169.33 202.461 170.786 201.597 172.172C200.742 173.636 199.877 175.023 198.973 176.452C198.517 177.128 198.109 177.838 197.652 178.514C197.503 178.765 197.265 179.025 197.076 179.319C196.137 177.511 195.197 175.702 194.346 173.885C194.484 173.911 194.612 173.86 194.642 173.738C195.768 171.181 197.032 168.651 198.247 166.085C198.854 164.802 199.422 163.563 200.029 162.28C200.308 161.621 200.637 160.997 200.916 160.338C201.195 159.68 201.612 159.047 201.713 158.405L201.704 158.327C202.658 159.146 203.661 160 204.575 160.862C205.48 161.647 206.256 162.482 206.903 163.37ZM211.598 180.477C208.764 183.393 206.077 186.414 203.35 189.478C202.428 188.182 201.545 186.842 200.702 185.459C199.643 183.781 198.624 182.059 197.645 180.293C198.041 179.86 198.33 179.28 198.638 178.855C199.094 178.18 199.502 177.469 199.959 176.794C200.823 175.408 201.688 174.022 202.503 172.601C203.318 171.18 204.133 169.759 204.899 168.303C205.307 167.592 205.705 166.804 206.063 166.058C206.422 165.313 206.918 164.594 207.099 163.865C207.138 163.822 207.089 163.787 207.08 163.709C208.846 166.032 210.188 168.554 210.847 171.378C211.752 174.375 211.897 177.405 211.598 180.477ZM207.963 195.604C206.52 193.725 205.028 191.81 203.713 189.879C206.37 186.979 209.067 184.037 211.576 181.033C211.494 181.831 211.372 182.673 211.241 183.436C210.886 185.683 210.344 187.869 209.713 190.063C209.402 191.199 209.042 192.301 208.682 193.402C208.373 194.182 208.143 194.876 207.963 195.604ZM191.667 184.336C192.673 184.479 193.59 184.629 194.507 184.78C195.425 184.93 196.342 185.081 197.21 185.196C197.94 185.286 198.719 185.41 199.399 185.464C200.409 187.108 201.458 188.708 202.596 190.301C202.438 190.474 202.684 190.648 202.862 190.631C203.568 191.632 204.324 192.667 205.079 193.703C204.144 193.04 203.16 192.342 202.226 191.68C199.972 190.153 197.59 188.678 195.376 187.109C194.097 186.202 192.867 185.33 191.667 184.336ZM146.455 213.392C147.247 212.882 147.98 212.259 148.722 211.715C149.712 210.989 150.613 210.271 151.603 209.545L161.929 201.732C163.612 200.426 165.344 199.156 167.027 197.851C168.463 196.727 169.948 195.638 171.423 194.471C172.302 194.309 173.231 194.181 174.11 194.019C173.732 194.608 173.443 195.189 173.066 195.778C172.539 196.618 172.052 197.415 171.526 198.256C169.688 201.236 167.702 204.111 165.627 206.995C164.585 208.398 163.543 209.801 162.452 211.169C161.906 211.853 161.361 212.537 160.855 213.178C160.428 213.732 159.952 214.251 159.565 214.762C155.094 214.947 150.714 214.412 146.455 213.392ZM138.237 210.492C138.76 210.363 139.235 210.2 139.719 210.115C140.548 209.918 141.467 209.712 142.297 209.515C143.956 209.121 145.567 208.693 147.266 208.255C150.27 207.458 153.214 206.547 156.11 205.602C156.03 205.688 155.902 205.74 155.823 205.826C154.139 207.132 152.407 208.402 150.724 209.708C149.863 210.382 149.041 211.013 148.13 211.652C147.427 212.154 146.685 212.698 146.081 213.269C144.552 212.899 143.055 212.408 141.547 211.839C140.374 211.436 139.281 210.947 138.237 210.492ZM134.741 208.727C137.265 206.947 139.789 205.167 142.263 203.352L146.144 200.535C147.341 199.671 148.588 198.841 149.688 197.907C153.992 197.461 158.308 196.737 162.575 195.978C165.212 195.492 167.898 195.041 170.584 194.589C169.01 195.687 167.535 196.854 165.971 198.029C162.763 200.467 159.555 202.904 156.348 205.342C153.265 206.226 150.084 207.041 146.952 207.89C145.253 208.327 143.593 208.721 141.894 209.158C141.064 209.355 140.323 209.544 139.493 209.741C138.792 209.886 138.041 209.996 137.389 210.177C136.523 209.705 135.656 209.233 134.741 208.727ZM116.298 191.653C118.758 193.397 121.584 194.83 124.501 195.899C130.325 197.957 136.737 198.577 142.916 198.389C144.84 198.326 146.667 198.193 148.582 198.051C147.622 198.656 146.721 199.373 145.81 200.013C144.484 200.929 143.167 201.923 141.841 202.838C139.238 204.705 136.674 206.528 134.071 208.395C130.251 206.186 126.739 203.554 123.642 200.644C120.349 197.595 117.511 194.227 115.01 190.668C115.413 191.025 115.855 191.339 116.298 191.653ZM128.323 188.185C128.836 188.335 129.437 188.475 129.95 188.625C130.975 188.923 132.039 189.178 133.065 189.477C136.83 190.505 140.526 191.697 144.222 192.89C147.641 194.029 150.982 195.255 154.362 196.438C150.165 197.032 145.949 197.47 141.637 197.482C135.439 197.514 129.176 196.643 123.55 194.368C120.713 193.213 118.006 191.65 115.714 189.811C113.973 188.434 112.608 186.824 111.332 185.205C111.332 185.205 111.332 185.205 111.282 185.17C114.922 188.107 120.544 188.881 125.273 188.236C125.846 188.143 126.419 188.049 126.992 187.955C127.495 188.026 127.909 188.106 128.323 188.185ZM143.261 184.284C144.118 184.677 145.064 185.062 145.921 185.456C149.063 186.898 152.126 188.427 155.158 190.078C156.694 190.881 158.24 191.763 159.697 192.653C160.425 193.098 161.105 193.508 161.833 193.953C162.414 194.294 162.955 194.678 163.487 194.983C162.697 195.137 161.857 195.256 160.978 195.418C158.954 195.767 156.969 196.073 154.984 196.379C153.043 195.574 151.072 194.891 149.141 194.164C145.475 192.85 141.73 191.623 137.995 190.474C136.083 189.903 134.17 189.333 132.258 188.762C131.282 188.499 130.395 188.227 129.419 187.963C129.045 187.84 128.631 187.761 128.256 187.638C132.534 186.602 136.489 184.766 140.306 182.903C140.316 182.981 140.365 183.016 140.463 183.086C140.857 183.365 141.369 183.514 141.842 183.706C142.315 183.899 142.788 184.091 143.261 184.284ZM180.74 192.009C180.937 192.149 181.084 192.254 181.321 192.35C181.232 192.358 181.143 192.367 181.054 192.375C175.496 192.861 169.955 193.858 164.504 194.848C163.805 194.281 162.939 193.809 162.161 193.33C161.334 192.815 160.508 192.3 159.592 191.793C156.589 190.022 153.517 188.414 150.356 186.816C148.78 186.055 147.204 185.295 145.589 184.578C144.781 184.219 143.973 183.861 143.166 183.502C142.456 183.214 141.777 182.803 140.988 182.601C143.579 181.368 146.121 180.1 148.878 179.128C151.329 178.225 153.858 177.591 156.416 177.191C156.949 177.141 157.433 177.055 157.966 177.005C159.55 178.199 161.342 179.256 163.005 180.363C166.135 182.44 169.304 184.472 172.433 186.548C173.998 187.587 175.563 188.625 177.079 189.628C177.856 190.108 178.594 190.631 179.372 191.111C179.864 191.46 180.257 191.739 180.74 192.009ZM169.388 178.535C170.313 179.12 171.278 179.661 172.154 180.211C175.55 182.262 178.946 184.313 182.382 186.32C184.075 187.307 185.778 188.371 187.472 189.358C188.298 189.872 189.165 190.344 190.041 190.894C190.671 191.269 191.311 191.722 191.941 192.098C188.547 191.904 185.141 191.989 181.805 192.265C181.668 191.882 181.284 191.681 180.89 191.402C180.497 191.123 180.054 190.809 179.66 190.53C178.824 189.937 177.899 189.353 177.063 188.76C173.973 186.64 170.843 184.564 167.704 182.41C166.139 181.372 164.574 180.334 163.098 179.287C161.878 178.493 160.737 177.613 159.428 176.828C161.925 176.671 164.54 176.74 167.055 177.095C167.793 177.618 168.61 178.055 169.388 178.535ZM197.504 192.758C195.985 192.467 194.348 192.305 192.759 192.179L192.71 192.144C191.775 191.481 190.722 190.948 189.757 190.407C188.792 189.865 187.867 189.281 186.951 188.774C183.555 186.723 180.119 184.716 176.723 182.665C175.03 181.678 173.327 180.614 171.633 179.627C170.807 179.113 169.94 178.641 169.064 178.091C168.582 177.821 168.188 177.542 167.706 177.271C168.85 177.44 170.043 177.643 171.157 177.933C173.563 178.497 175.948 179.259 178.184 180.274C179.277 180.763 180.38 181.331 181.443 181.942C182.024 182.283 182.556 182.588 183.097 182.972C184.681 184.166 186.304 185.317 187.879 186.434C191.107 188.579 194.285 190.69 197.504 192.758ZM201.973 195.498C201.359 195.991 200.785 196.441 200.171 196.933C194.398 201.55 188.369 205.914 181.448 209.217C175.416 212.079 168.825 214.046 162.023 214.649C161.579 214.691 161.085 214.698 160.552 214.748C160.909 214.359 161.256 213.891 161.564 213.467C162.189 212.696 162.853 211.882 163.429 211.077C165.602 208.263 167.677 205.379 169.653 202.425C170.597 200.952 171.629 199.471 172.524 197.964C172.971 197.21 173.418 196.456 173.866 195.702C174.243 195.113 174.532 194.533 174.82 193.952C177.427 193.587 179.994 193.266 182.62 193.057C185.74 192.842 188.878 192.782 191.996 192.923C194.394 193.052 196.731 193.424 199.069 193.796C200.083 194.372 201.048 194.914 201.973 195.498ZM47.8469 156.614C49.9317 156.022 52.0847 155.621 54.16 154.95C56.2448 154.358 58.2708 153.653 60.2873 152.869C63.9745 151.414 67.5441 149.733 70.9471 147.791C74.5183 145.754 77.7751 143.351 81.1399 141.097C84.3762 138.893 87.7697 136.873 91.5552 135.488C93.2751 134.851 95.0632 134.405 96.8704 134.116C97.5717 133.971 98.2825 133.904 98.9537 133.88C98.1635 134.034 97.3734 134.187 96.5928 134.419C94.5476 134.968 92.5311 135.751 90.6622 136.639C82.8407 140.303 76.9143 146.239 70.0848 151.035C64.1659 155.191 56.9568 158.718 49.1326 158.311C48.6707 157.841 48.2882 157.284 47.9548 156.762C47.9056 156.727 47.8961 156.649 47.8469 156.614ZM96.4768 133.837C94.5014 134.221 92.5943 134.797 90.7952 135.52C87.1081 136.975 83.7734 139.109 80.5767 141.268C78.8348 142.461 77.1421 143.688 75.351 144.845C73.5996 145.959 71.8878 147.03 70.0776 148.031C66.6255 149.939 63.0066 151.585 59.2703 153.005C57.3331 153.702 55.4355 154.355 53.4396 154.939L53.3507 154.948C55.5354 154.069 57.6122 153.043 59.581 151.869C66.7343 147.517 72.994 142.103 80.4616 138.117C83.6663 136.391 87.1853 135.031 90.8202 134.253C93.1415 133.757 95.412 133.582 97.7604 133.676C97.2669 133.683 96.8718 133.76 96.4768 133.837ZM47.6927 155.719C51.9857 153.337 55.6502 150.224 59.1766 147.085C65.3379 141.601 71.5308 135.64 80.0873 133.211C83.8222 132.147 87.7714 131.734 91.7081 131.955C93.7011 132.083 95.6243 132.376 97.5666 132.825C98.3552 133.027 99.0947 133.195 99.8437 133.44C99.666 133.457 99.5279 133.43 99.3994 133.482C96.2528 133.107 92.916 133.383 89.8634 134.146C81.7828 136.055 75.1611 140.713 68.7964 145.267C65.4507 147.678 62.0859 149.933 58.3275 151.908C54.9546 153.729 51.3563 155.176 47.504 156.014C47.4944 155.936 47.396 155.866 47.3865 155.788C47.4753 155.779 47.5642 155.771 47.6927 155.719ZM47.9145 142.812C48.3698 142.492 48.7362 142.181 49.1915 141.861C54.1903 138.266 59.4938 134.959 65.3164 132.59C70.4568 130.524 76.0972 129.24 81.7618 129.258C86.933 129.284 91.9014 130.593 96.7207 132.154C94.6895 131.713 92.549 131.481 90.4767 131.439C86.5099 131.34 82.5702 131.83 78.8544 133.051C74.7928 134.383 71.1423 136.507 67.8458 138.953C60.8466 144.199 55.1934 150.9 47.3594 155.197C47.3197 155.241 47.28 155.284 47.2404 155.327C45.6288 151.329 46.7922 146.871 47.9145 142.812ZM48.5975 139.941C51.6379 135.029 56.5001 131.051 62.1561 128.422C67.555 125.896 73.6984 124.683 79.8168 124.738C86.0241 124.784 92.0778 126.149 97.6542 128.389C103.802 130.892 109.561 134.261 116.246 135.646C119.471 136.29 123.003 136.51 126.292 135.843C122.468 136.916 118.205 136.963 114.26 136.308C111.143 135.812 108.117 134.951 105.17 134.004L105.121 133.969C102.224 133.057 99.3958 131.98 96.5474 131.103C90.8411 129.27 84.9746 127.966 78.9134 128.381C73.168 128.805 67.6546 130.393 62.592 132.729C57.2724 135.169 52.4433 138.313 47.8602 141.631C47.8808 141.432 47.9505 141.267 48.0203 141.102C48.1598 140.773 48.3787 140.357 48.5975 139.941ZM2.15538 92.6636C7.53347 95.1202 12.4944 98.2092 17.3364 101.428C25.308 106.723 32.9322 112.486 41.9062 116.421C49.4615 119.779 57.9003 121.907 66.3811 121.066C66.6175 121.162 66.8444 121.18 67.0809 121.277C66.3891 121.5 65.6974 121.724 65.0152 122.025C61.7136 123.325 58.6469 125.077 55.9834 127.187C55.3122 127.211 54.641 127.235 53.9603 127.18C48.0592 127.066 42.4704 125.459 37.3493 122.899C31.411 119.903 26.3656 115.754 21.617 111.459C16.7112 106.982 11.8847 102.417 7.06775 97.9312C5.89802 96.8163 4.68864 95.7447 3.51892 94.6298C2.90946 94.0549 2.37931 93.3935 2.15538 92.6636ZM5.10543 88.1158C8.3188 89.0377 11.5417 90.0377 14.6456 91.1675C20.2521 93.2864 25.5905 95.7863 30.6705 98.7455C33.2303 100.203 35.6711 101.791 38.1214 103.457C40.4242 105.018 42.5779 106.831 44.841 108.435C50.6595 114.131 57.8439 118.868 66.243 121.04C61.5734 121.441 56.7893 120.905 52.3334 119.745C43.5694 117.529 35.7519 113.128 28.5183 108.357C19.9659 102.721 11.8799 96.4885 2.43447 92.0048C2.28687 91.9001 2.15837 91.9518 2.02985 92.0034C2.00123 91.769 2.06145 91.5261 2.12168 91.2832C2.44339 89.8693 3.62204 88.8488 4.99748 87.9679C5.00703 88.046 5.05623 88.0809 5.10543 88.1158ZM12.5215 87.02C19.4285 87.2767 26.1123 89.0171 31.9809 92.1785C34.5207 96.0496 37.1398 99.8341 40.1842 103.42C40.9206 104.299 41.6968 105.135 42.4729 105.971C40.889 104.777 39.2655 103.626 37.6515 102.553C28.0961 96.0635 17.2716 90.959 5.8082 87.6146C6.10488 87.468 6.3619 87.3646 6.56972 87.2264C8.56417 86.9985 10.538 86.9702 12.5215 87.02ZM12.4195 85.4485C17.6935 84.4759 23.2677 84.8586 28.3631 86.4723C29.0299 87.5161 29.6569 88.6032 30.3728 89.6819C30.7649 90.3169 31.1967 90.9086 31.5888 91.5435C30.2891 90.8362 28.9497 90.1721 27.531 89.5946C21.669 87.2232 15.1996 86.1345 8.7544 86.3481C9.93008 86.0394 11.1454 85.6874 12.4195 85.4485ZM25.9423 82.4714C26.6185 83.5933 27.2948 84.7153 28.0202 85.8722C27.084 85.5654 26.1969 85.2934 25.2702 85.0647C22.3124 84.3954 19.2738 84.1686 16.2336 84.2976C15.0293 84.3718 13.8346 84.5242 12.689 84.7115C16.9284 83.3623 21.3726 82.5868 25.8534 82.4797C25.8138 82.523 25.9026 82.5146 25.9423 82.4714ZM27.9895 83.7801C32.0193 87.7081 36.3759 91.368 40.9608 94.6902C46.1854 98.4658 51.7668 101.852 57.5671 104.822C63.3182 107.757 69.4166 110.225 75.6546 112.363C81.7546 114.475 88.0036 116.336 94.1829 118.361C97.2773 119.412 100.372 120.464 103.347 121.646C104.244 121.996 105.189 122.381 106.046 122.774C106.056 122.852 106.105 122.887 106.204 122.957C106.164 123 106.124 123.044 106.085 123.087C102.852 122.009 99.5499 121.095 96.1874 120.425C87.2838 118.538 77.7222 118.255 68.9483 120.744C68.8991 120.71 68.8007 120.64 68.6626 120.613C67.2821 120.348 65.9809 119.997 64.6305 119.611C53.4146 116.085 44.9409 108.149 38.4631 99.6301C35.3615 95.5748 32.5471 91.2949 29.8215 87.0065C29.95 86.9548 30.0198 86.7901 29.8325 86.7288C29.7341 86.659 29.6453 86.6674 29.5469 86.5976C29.4389 86.4497 29.331 86.3018 29.2231 86.1539C28.9404 85.3109 28.4404 84.5281 27.9895 83.7801ZM14.8755 50.352C15.0613 50.7693 15.3359 51.1781 15.5217 51.5954C19.0968 58.0567 23.73 63.9832 29.0264 69.4517C34.6276 75.2077 40.922 80.3844 47.4543 85.3014C54.1342 90.323 61.0425 95.0069 67.9603 99.7689C74.7305 104.426 81.5801 108.997 88.8262 113.135C92.4001 115.169 96.0136 117.16 99.7365 118.943C101.982 120.035 104.218 121.05 106.533 121.977C106.73 122.117 106.887 122.3 107.084 122.439C106.897 122.378 106.798 122.308 106.611 122.247C102.001 120.192 97.212 118.51 92.4323 116.905C86.253 114.88 80.004 113.02 73.9437 110.865C67.7454 108.683 61.8056 106.042 56.0846 102.986C50.3636 99.929 44.9503 96.4479 39.8543 92.6206C34.8075 88.8282 30.1667 84.6812 25.8925 80.2229C24.4621 77.7096 23.081 75.2311 21.868 72.6578C19.5978 68.0497 17.6733 63.3299 16.3122 58.4383C15.9421 57.2479 15.661 56.049 15.3798 54.8502C15.1478 53.6862 14.8762 52.5656 14.8615 51.3415C14.8234 51.0289 14.8248 50.673 14.8755 50.352ZM49.9435 61.1513C50.1388 61.6467 50.3437 62.2203 50.6278 62.7073C52.9855 67.6629 55.9365 72.3253 59.3127 76.7894C62.7285 81.2102 66.4711 85.3629 70.4708 89.4124C74.5197 93.4967 78.7271 97.4079 83.0631 101.267C87.6547 105.38 92.3747 109.44 97.0059 113.509C99.9262 116.079 102.797 118.614 105.718 121.185C99.0287 118.298 92.638 114.91 86.4361 111.226C79.4073 107.028 72.607 102.492 65.9256 97.8265C58.9586 93.0296 51.9915 88.2328 45.3417 83.0897C38.9871 78.1559 32.9498 72.8759 27.6549 67.0514C22.6742 61.5926 18.3075 55.6409 15.0974 49.2242C15.2274 48.8167 15.4066 48.444 15.635 48.1062C16.2408 47.1793 17.299 46.6445 18.435 46.3791C20.9832 45.9012 23.6935 46.752 25.9596 47.6448C28.6002 48.6603 30.9728 50.0568 33.3056 51.4967C35.6877 52.9714 38.0397 54.5676 40.4218 56.0423C42.8927 57.5087 45.4033 58.9317 47.944 60.2334C48.6533 60.5221 49.323 60.8541 49.9435 61.1513ZM114.795 126.336C114.746 126.301 114.608 126.274 114.559 126.239C113.378 125.402 112.237 124.522 111.135 123.598C111.224 123.59 111.215 123.511 111.165 123.477C111.067 123.407 110.929 123.38 110.88 123.345C107.674 120.644 104.785 117.596 102.093 114.688C95.6191 107.671 89.8286 99.9959 85.9753 91.624C84.078 87.4946 82.6456 83.1236 81.8843 78.7287C81.1627 74.2906 81.1519 69.7853 81.733 65.3427C82.9239 56.692 86.2251 48.3953 90.2945 40.5004C90.6183 40.9442 90.8929 41.3531 91.1675 41.762C95.1773 48.1031 93.7641 55.668 92.4331 62.4346C91.7772 65.8961 91.1704 69.3924 91.0175 72.9249C90.8851 76.2578 91.0193 79.5656 91.4201 82.8481C92.2708 89.4482 94.2766 95.9391 97.3502 101.973C100.727 108.651 105.478 114.804 111.199 120.074C116.469 124.952 122.679 129.069 129.406 132.268C129.179 132.25 128.952 132.232 128.725 132.214C126.161 131.824 123.736 131.104 121.46 130.133C121.451 130.055 121.441 129.977 121.303 129.95C120.781 129.723 120.308 129.53 119.746 129.346C118.072 128.516 116.477 127.6 114.952 126.518C114.992 126.475 114.893 126.405 114.795 126.336ZM63.9035 66.9083C66.9979 67.96 70.1716 68.9251 73.3659 69.6907C73.4643 69.7604 73.5627 69.8302 73.7007 69.8567C73.7499 69.8916 73.8388 69.8832 73.8292 69.805C75.7715 70.254 77.6646 70.6681 79.5878 70.9608C79.637 70.9957 79.6862 71.0306 79.7354 71.0655C79.883 71.1701 80.0115 71.1184 80.0908 71.0319C80.1796 71.0235 80.3177 71.05 80.3669 71.0849C80.3219 74.7653 80.7212 78.4038 81.6139 82.0352C82.6513 86.483 84.3899 90.7855 86.5633 94.9679C91.0085 103.403 97.1543 111.044 103.993 118.106C104.505 118.611 105.016 119.116 105.527 119.621C102.36 116.877 99.1545 114.175 95.9882 111.431C91.4158 107.475 86.8433 103.519 82.3106 99.5202C77.9746 95.6606 73.7274 91.7927 69.7182 87.6651C65.7186 83.6157 62.006 79.3415 58.7187 74.869C57.0996 72.6502 55.5694 70.423 54.1582 68.066C52.8548 65.8569 51.7689 63.5878 50.5544 61.3703C54.809 63.4587 59.2619 65.3308 63.9035 66.9083ZM54.4112 47.6848C55.0162 49.3274 55.7497 50.9183 56.572 52.5008C58.4326 55.9617 60.8564 59.2508 63.726 62.1421C65.21 63.6226 66.7733 65.0165 68.3763 66.3672C69.1238 66.9686 69.8713 67.57 70.7474 68.1197C65.0696 66.5214 59.5711 64.5505 54.2914 62.1636C54.2819 62.0855 54.2819 62.0855 54.2327 62.0506C52.5513 58.217 52.6771 54.0941 53.6804 50.165C53.9404 49.3499 54.1512 48.4999 54.4112 47.6848ZM57.1352 40.5494C58.1022 42.9484 59.1976 45.2957 60.4708 47.6262C62.8014 51.9914 65.5967 56.1151 68.7776 60.0837C70.368 62.0681 72.087 64.0007 73.9741 65.8384C74.8486 66.7441 75.812 67.6413 76.7754 68.5385C77.3357 69.0785 77.9848 69.6101 78.5451 70.1501C77.9437 70.0093 77.4311 69.8601 76.8297 69.7192C75.2127 69.3581 73.5862 68.9188 71.9597 68.4795C70.5917 67.581 69.1745 66.6476 67.8858 65.6625C64.6197 63.204 61.8991 60.0615 59.7022 56.7905C57.564 53.6325 55.9002 50.3111 54.7997 46.8179C55.0391 46.2024 55.2293 45.552 55.4291 44.9797C55.9586 43.4276 56.4977 41.9536 57.1352 40.5494ZM65.5548 30.7415C66.5298 33.5746 67.6334 36.3559 68.6972 39.1806C72.5923 49.3668 76.4477 59.5964 80.4316 69.7743C80.4206 70.052 80.4 70.2516 80.3889 70.5294C80.1128 70.4764 79.8367 70.4234 79.5511 70.2923C78.6861 69.4648 77.7418 68.7239 76.8768 67.8965C75.815 66.9295 74.7929 65.9192 73.82 64.9438C66.6761 57.5943 61.1456 49.1041 57.6507 39.9868C57.6412 39.9087 57.592 39.8738 57.5428 39.8389C57.6823 39.5095 57.8219 39.1801 58.0106 38.8856C59.0557 36.7709 60.3372 34.7524 62.1598 33.1177C63.1211 32.1573 64.2888 31.4145 65.5548 30.7415ZM76.4486 28.6847C76.4773 28.9192 76.5948 29.1453 76.7122 29.3714C76.898 29.7886 77.0838 30.2059 77.2695 30.6232C77.641 31.4577 78.1014 32.2838 78.4729 33.1184C79.2557 34.7442 80.1272 36.3616 80.9496 37.9441C82.5847 41.0311 84.3484 44.0663 86.0725 47.1448C83.1722 53.941 80.9813 61.026 80.428 68.2725C79.5102 65.9084 78.5432 63.5095 77.6651 61.1021C75.6438 55.9566 73.6717 50.846 71.6504 45.7006C69.6878 40.6682 67.8537 35.5841 65.7229 30.6466C66.2766 30.3966 66.8304 30.1467 67.4332 29.9316C70.2796 28.9512 73.3799 28.5793 76.4486 28.6847ZM93.4753 32.6895C92.1732 34.9075 91.0092 37.152 89.8451 39.3965C89.7071 39.3701 89.5881 39.4999 89.6961 39.6478C89.6961 39.6478 89.6961 39.6478 89.7453 39.6827C89.417 40.3066 89.049 40.9739 88.77 41.6327C87.9342 43.2533 87.1873 44.8654 86.4499 46.5558C84.7053 43.6768 83.0892 40.7462 81.5128 37.7724C80.6412 36.1549 79.8189 34.5724 79.0362 32.9466C78.625 32.1553 78.2043 31.2859 77.8328 30.4514C77.647 30.0341 77.4612 29.6168 77.2358 29.2428C77.1279 29.0949 77.0596 28.9037 76.9517 28.7558C78.1258 28.803 79.3096 28.9284 80.4536 29.097C84.8919 29.745 89.1685 31.278 93.4753 32.6895ZM129.727 31.8346C129.863 32.217 130 32.5993 130.137 32.9817C132.161 39.6289 130.997 46.6565 129.331 53.257C128.428 56.9 127.298 60.5248 126.532 64.1943C125.798 67.3864 125.292 70.5965 124.962 73.7899C124.274 80.2982 124.395 86.809 125.276 93.2876C126.117 99.8095 127.758 106.256 130.179 112.47C131.888 116.894 133.969 121.797 133.791 126.597C133.623 126.692 133.465 126.865 133.533 127.056C133.592 127.169 133.65 127.282 133.749 127.352C133.706 128.107 133.535 128.914 133.354 129.642C133.135 130.058 132.877 130.517 132.618 130.977C132.364 130.368 132.199 129.751 131.945 129.143C128.89 121.051 124.886 113.286 121.317 105.402C118.1 98.195 115.171 90.7636 113.92 83.0945C113.333 79.3947 113.093 75.5831 113.444 71.8343C113.797 67.7295 114.889 63.792 116.021 59.8112C117.122 55.9519 118.224 52.0926 118.547 48.1093C118.838 44.6032 118.635 41.1043 117.988 37.6473C116.752 31.2023 113.986 24.7437 109.607 19.4256C110.316 19.7144 111.035 20.0813 111.745 20.3701C116.551 22.5644 121.288 24.9235 125.431 27.9317C126.837 29.1429 128.341 30.4238 129.727 31.8346ZM134.351 37.6829C136.448 41.2401 137.556 45.1673 137.599 49.1952C137.631 53.145 136.895 57.0489 135.833 60.8649C135.422 62.2872 134.962 63.6746 134.503 65.0621C134.463 65.1053 134.423 65.1486 134.384 65.1919C134.304 65.2784 134.314 65.3566 134.323 65.4347C132.155 71.9642 129.562 78.3361 128.813 85.0872C128.823 85.1654 128.783 85.2086 128.793 85.2868C128.674 85.4166 128.653 85.6162 128.761 85.7641C128.439 89.7475 128.916 93.6553 129.886 97.556C130.885 101.691 132.359 105.663 133.487 109.747C134.848 114.638 135.684 120.014 134.686 125.089C134.44 120.132 132.092 115.254 130.355 110.596C128.013 104.295 126.5 97.7968 125.738 91.1884C125.026 84.6149 125.024 77.9742 125.93 71.4059C126.368 68.0045 127.073 64.578 127.877 61.2212C128.82 57.5349 129.852 53.8403 130.617 50.1709C131.806 44.4455 132.315 38.31 130.503 32.6704C131.997 34.2291 133.322 35.8827 134.351 37.6829ZM145.647 55.1154C144.189 56.7947 143.607 59.0238 143.313 61.028C142.563 65.5656 143.372 70.3512 141.341 74.6936C139.27 79.0793 134.718 81.9205 130.356 84.4672C130.428 83.5907 130.59 82.7058 130.801 81.8558C131.991 75.7745 134.423 69.9316 136.303 63.9828C136.651 63.5152 137.047 63.0824 137.444 62.6497C138.069 61.8791 138.832 61.1351 139.506 60.3994C139.595 60.391 139.674 60.3045 139.714 60.2612C139.952 60.0015 140.229 59.6986 140.467 59.439C142.072 57.8643 143.786 56.4375 145.647 55.1154ZM153.452 50.5833C150.728 52.9356 149.342 56.3079 148.756 59.6047C147.503 66.6406 149.761 74.0959 146.407 80.8559C145.572 82.4765 144.45 83.9659 142.984 85.2112C141.638 86.3266 140.026 87.1113 138.414 87.8961C135.447 89.3622 132.422 90.7152 130.477 93.1916C130.073 90.6208 130.025 88.0165 130.292 85.4218C132.766 83.9628 135.141 82.434 137.309 80.6876C139.309 79.036 141.045 77.0538 142.12 74.8177C143.076 72.7114 143.421 70.3861 143.549 68.1209C143.668 65.7775 143.648 63.4076 143.993 61.0823C144.166 59.9197 144.477 58.7835 144.925 57.6739C145.374 56.5642 146.01 55.5159 146.695 54.5025C148.715 53.0073 151.029 51.7213 153.452 50.5833ZM154.648 50.0751C157.723 48.7569 160.925 47.7429 164.253 47.0332C166.357 46.5973 168.688 46.1795 170.948 46.2823C170.73 46.3423 170.552 46.3591 170.335 46.4192C167.203 47.2684 164.806 49.3527 163.128 51.8039C161.341 54.463 160.548 57.5421 160.565 60.6238C160.58 64.0613 161.355 67.4667 162.21 70.7854C163.074 74.1823 163.889 77.5444 164.348 80.94C165.228 87.7745 164.527 94.9163 160.554 101.023C156.651 106.966 150.473 111.581 144.937 116.294C141.767 119.044 138.577 121.994 136.096 125.233C137.296 119.229 135.892 112.879 134.149 107.075C132.884 102.965 131.48 98.8286 130.698 94.6333C130.679 94.477 130.611 94.2858 130.591 94.1295C130.68 94.1211 130.72 94.0778 130.76 94.0345C132.56 90.7417 137.026 89.4107 140.359 87.6332C141.922 86.8136 143.377 85.8461 144.576 84.626C145.815 83.3627 146.669 81.8984 147.337 80.3728C148.732 77.0787 148.925 73.5029 148.9 69.9871C148.866 66.3932 148.644 62.738 149.38 59.19C150.066 55.6071 151.648 52.3744 154.648 50.0751ZM175.206 4.96763C174.615 7.11851 173.876 9.16474 172.772 11.1664C171.638 13.2895 170.258 15.2382 168.731 17.0822C162.749 24.4066 154.781 30.1795 148.898 37.5737C143.441 44.4138 139.54 52.2137 137.345 60.3664C137.305 60.4096 137.226 60.4962 137.186 60.5395C137.467 59.5247 137.708 58.5533 137.899 57.547C138.725 53.6347 139.097 49.6862 138.482 45.7519C138.03 42.7903 136.957 39.8875 135.379 37.2696C135.697 36.5675 136.016 35.8654 136.335 35.1633C136.733 34.3746 137.18 33.6209 137.627 32.8671C138.075 32.1133 138.522 31.3596 139.018 30.6407C140.011 29.2029 141.053 27.8 142.145 26.432C144.456 23.6443 146.924 21.0394 149.481 18.4262C152.197 15.6398 154.952 12.8101 157.668 10.0238C159.065 8.58731 160.423 7.19414 161.821 5.75767C162.544 5.05688 163.218 4.32121 163.902 3.6637C164.497 3.01457 165.092 2.36546 165.834 1.82098C166.448 1.32817 167.17 0.983269 168.068 0.977491C168.788 0.988503 169.528 1.15583 170.197 1.48787C171.626 2.14353 172.905 3.05046 174.055 4.00904C174.449 4.28809 174.803 4.61041 175.206 4.96763ZM181.176 14.4835C180.479 18.3442 178.214 21.8785 175.38 24.7947C169.304 30.9817 160.664 34.5649 153.822 39.9942C147.881 44.7059 142.932 50.5493 140.052 57.1459C139.814 57.4056 139.576 57.6652 139.339 57.9249C139.18 58.098 139.07 58.306 138.952 58.4358C140.063 54.6546 141.499 50.9613 143.36 47.4257C145.399 43.5173 147.911 39.8015 150.817 36.3646C153.912 32.6333 157.587 29.2424 161.174 25.8599C164.513 22.6589 167.794 19.3448 170.533 15.647C172.845 12.5035 174.844 8.99426 175.6 5.24669C177.29 6.94487 178.653 8.91112 179.76 10.9807C180.259 12.1195 180.717 13.3015 181.176 14.4835ZM182.106 30.5631C179.223 33.0885 175.978 35.2134 172.467 37.0076C165.821 40.3629 158.616 42.8222 152.353 46.7343C149.009 48.7894 145.929 51.1753 143.195 53.8054C142.63 54.3331 142.075 54.9389 141.51 55.4666C142.834 52.6931 144.582 50.0772 146.576 47.6357C149.323 44.372 152.562 41.4571 156.067 38.873C159.739 36.1938 163.775 33.9152 167.605 31.4189C173.81 27.3938 180.128 22.0931 181.391 15.1353C182.774 19.4714 183.061 24.0296 182.48 28.4722C182.348 29.2357 182.207 29.921 182.106 30.5631ZM181.965 31.2484C181.291 34.1976 180.204 37.0674 178.633 39.6665C177.231 39.9571 175.798 40.3691 174.454 40.7728C172.804 41.2448 171.154 41.7169 169.504 42.189C163.783 43.9153 158.139 45.911 152.947 48.6546C150.247 50.0955 147.704 51.7193 145.367 53.5607C144.218 54.4597 143.119 55.3937 142.029 56.4058C143.021 55.3239 144.061 54.2769 145.151 53.2648C147.935 50.6696 151.063 48.3186 154.457 46.2984C157.642 44.4163 161.004 42.8733 164.415 41.3653C167.826 39.8572 171.198 38.3924 174.442 36.6234C177.182 35.1392 179.844 33.3856 181.965 31.2484ZM173.535 45.7611C171.771 45.2953 169.925 45.272 168.109 45.4831C165.315 45.7866 162.559 46.4027 159.96 47.2016C156.185 48.3092 152.646 49.8689 149.322 51.7245C153.39 48.9685 157.889 46.8043 162.614 45.014C165.411 43.9987 168.218 43.0616 171.083 42.2375C173.514 41.5336 175.954 40.9078 178.335 40.169C177.093 42.1441 175.517 43.9533 173.734 45.5448C173.605 45.5964 173.526 45.683 173.535 45.7611ZM175.373 47.564C170.917 48.9732 167.566 52.4519 165.735 56.2221C162.041 63.8838 164.838 72.4346 169.013 79.3926C171.443 83.4716 174.388 87.344 176.126 91.6466C177.406 94.767 177.964 98.2324 177.062 101.519C176.426 102.568 175.741 103.581 174.967 104.603C171.504 109.002 166.763 112.493 161.619 115.272C158.959 116.669 156.19 117.919 153.363 119.056C150.496 120.236 147.571 121.303 144.802 122.552C144.416 122.707 144.12 122.854 143.784 123.044C143.764 122.888 143.617 122.783 143.449 122.878C142.5 123.205 141.659 123.679 140.72 124.084C139.869 124.481 139.029 124.956 138.188 125.43C137.683 125.715 137.139 126.043 136.625 126.25C139.653 121.971 143.793 118.339 147.854 114.793C153.253 110.054 158.829 105.297 162.121 99.136C165.383 93.0962 165.58 86.2391 164.561 79.7341C164.012 76.3469 163.109 72.9932 162.294 69.6312C161.479 66.2691 160.743 62.8206 160.995 59.3578C161.205 56.2942 162.273 53.2682 164.396 50.775C166.359 48.455 169.08 46.8144 172.309 46.3909C172.398 46.3825 172.447 46.4173 172.536 46.4089C173.551 46.6292 174.497 47.0142 175.373 47.564ZM175.039 73.1707C174.431 72.2399 173.814 71.231 173.206 70.3002C171.098 67.0207 168.645 63.4972 169.52 59.6198C169.962 57.7201 171.045 55.9181 172.384 54.3686C173.128 53.4682 174.02 52.6725 174.951 51.8335C175.763 51.1243 176.585 50.4932 177.348 49.7492C177.475 50.0534 177.562 50.4009 177.561 50.7568C177.66 53.0402 175.688 54.9261 174.575 56.8496C173.471 58.8513 172.978 61.0719 172.89 63.2939C172.767 66.705 173.75 69.9721 175.039 73.1707ZM180.391 91.2437C180.242 94.0644 179.49 96.7443 178.236 99.3531C178.475 96.524 177.757 93.5876 176.583 90.9709C174.716 86.7201 171.692 82.9342 169.272 78.9333C167.125 75.3413 165.404 71.551 164.73 67.5036C164.056 63.4563 164.449 59.3082 166.507 55.5562C168.456 52.0121 171.577 49.227 175.708 47.73C176.348 48.1834 176.819 48.7319 177.172 49.4101C176.044 50.1096 175.033 51.0351 174.102 51.8741C173.091 52.7997 172.17 53.7168 171.356 54.7819C170.155 56.3579 169.21 58.1865 168.857 60.0777C168.592 61.9605 168.999 63.8195 169.752 65.5667C170.612 67.4619 171.819 69.2453 172.976 70.9939C174.074 72.6294 175.084 74.2733 176.182 75.9088C178.274 80.8896 180.671 85.8018 180.391 91.2437ZM220.72 97.277C219.439 96.726 218 96.348 216.649 95.9617C215.161 95.5489 213.682 95.2143 212.163 94.9229C206.779 93.8899 201.165 93.5505 195.637 93.9146C192.873 94.0966 190.128 94.4349 187.452 94.9645C185.081 95.4256 182.721 95.9648 180.477 96.7301C181.317 94.0419 181.694 91.2392 181.44 88.4172C182.417 88.3249 183.305 88.241 184.283 88.1486C193.997 87.4682 203.861 88.3943 213.216 91.0287C215.641 91.7484 218.262 92.6075 219.675 94.6087C220.234 95.5046 220.566 96.3824 220.72 97.277ZM220.778 99.9595C220.136 99.8619 219.545 99.7993 218.953 99.7366C213.083 99.1447 207.162 99.2297 201.326 100.018C195.53 100.763 189.81 102.134 184.403 104.226C178.384 106.454 172.972 109.614 167.786 113.148C162.264 116.871 157.007 120.925 151.219 124.318C146.352 127.149 141.112 129.502 135.373 130.716C135.452 130.63 135.492 130.587 135.571 130.5C139.478 126.059 145.41 123.483 151.114 121.245C154.03 120.1 156.985 118.911 159.833 117.575C162.592 116.247 165.194 114.736 167.678 113C171.449 110.39 174.709 107.276 177.191 103.681C177.231 103.638 177.271 103.595 177.31 103.552C177.31 103.552 177.31 103.552 177.35 103.508C177.926 102.703 178.452 101.862 178.89 101.031C179.516 99.9041 180.005 98.7512 180.404 97.6066C181.709 97.2463 183.003 96.8077 184.307 96.4474C185.789 96.0702 187.271 95.6931 188.812 95.429C194.175 94.448 199.712 94.1621 205.148 94.5182C207.871 94.7354 210.613 95.1088 213.285 95.647C214.577 95.9203 215.918 96.2285 217.219 96.5799C218.471 96.8964 219.693 97.3344 220.945 97.651C220.853 98.3712 220.86 99.1611 220.778 99.9595ZM164.233 127.476C165.57 126.283 166.868 125.132 168.215 124.017C172.225 120.792 176.638 117.924 181.846 116.405C184.098 115.718 186.429 115.3 188.808 115.273C189.972 115.242 191.147 115.289 192.33 115.414C193.425 115.548 194.45 115.847 195.555 116.059C192.039 116.707 188.562 117.312 185.164 118.186C180.283 119.438 175.765 121.446 171.364 123.68C168.961 124.974 166.597 126.225 164.233 127.476ZM136.051 133.696C141.252 133.6 146.301 132.253 150.948 130.194C156.831 127.583 161.968 124.014 167.104 120.446C172.528 116.652 178.051 112.929 184.437 110.389C190.308 108.055 196.699 106.661 203.165 106.248C206.156 106.084 209.215 106.111 212.197 105.869C214.507 105.651 216.936 105.303 219.081 104.468C217.69 106.694 215.629 108.589 213.294 110.074C208.178 113.443 202.142 114.804 196.078 115.93C196.069 115.852 196.069 115.852 196.02 115.817C194.877 115.292 193.457 115.071 192.224 114.911C190.853 114.724 189.501 114.693 188.119 114.784C183.115 115.02 178.331 116.697 174.176 119.106C169.556 121.756 165.663 125.207 161.869 128.727C160.643 129.357 159.407 129.909 158.171 130.46C151.477 133.425 143.366 135.456 136.051 133.696ZM133.755 132.925L133.706 132.89C133.964 132.431 134.232 132.05 134.54 131.625C135.024 131.54 135.508 131.455 136.031 131.326C142.196 129.914 147.862 127.007 153.047 123.829C158.776 120.323 164.033 116.269 169.565 112.624C174.681 109.255 180.161 106.286 186.101 104.144C191.567 102.165 197.336 100.83 203.279 100.189C206.251 99.8691 209.202 99.7484 212.173 99.7841C215.054 99.8281 217.866 100.037 220.736 100.359C220.534 101.643 220.055 102.874 219.428 104C219.043 104.155 218.697 104.267 218.311 104.422C212.649 106.261 206.405 105.547 200.501 106.144C194.242 106.775 188.097 108.343 182.422 110.816C176.193 113.539 170.818 117.367 165.345 121.126C160.287 124.608 155.141 128.098 149.22 130.397C144.416 132.273 139.033 133.454 133.755 132.925ZM131.578 132.024L130.244 129.936C125.666 122.621 121.177 115.297 116.559 108.025C112.441 101.536 108.048 94.994 105.551 87.7984C104.322 84.3569 103.656 80.7436 103.444 77.1665C103.281 73.6243 103.434 70.0918 103.676 66.5509C104.188 59.7035 105.016 52.8659 104.315 46.0146C103.719 39.6671 101.852 33.2027 97.2742 28.1011C97.4629 27.8065 97.6913 27.4687 97.8801 27.1742C100.362 23.5798 103.713 20.101 108.591 19.2053L108.631 19.1621C109.053 19.6756 109.436 20.2324 109.868 20.824C114.145 26.7841 116.87 33.6419 117.591 40.6495C117.971 44.1317 117.867 47.6991 117.3 51.1521C116.592 55.2905 115.243 59.3313 114.17 63.4251C113.197 67.2327 112.588 71.085 112.572 74.9999C112.576 78.7152 113.025 82.3885 113.691 86.0018C114.455 89.6849 115.446 93.386 116.694 96.9838C118.02 100.851 119.652 104.65 121.324 108.405C124.893 116.29 128.799 123.985 131.578 132.024ZM109.859 117.196C104.484 111.814 100.177 105.62 97.1653 98.9866C94.3884 92.8057 92.6396 86.2115 92.1443 79.5779C91.9213 76.2785 91.9156 72.9191 92.2748 69.6043C92.6356 65.9336 93.4898 62.2557 94.0775 58.6031C94.6842 55.1068 94.926 51.5659 94.3189 48.0656C93.7881 45.1906 92.6259 42.2962 90.553 40.0412C90.7021 39.79 90.802 39.5038 90.951 39.2526C92.0453 37.1728 93.1888 35.1278 94.3814 33.1178C94.4211 33.0745 94.4607 33.0312 94.4512 32.9531C94.6781 32.9712 94.7875 32.7632 94.6701 32.5371C95.4852 31.1161 96.3004 29.6951 97.214 28.3439C97.7346 28.9272 98.1663 29.5189 98.6076 30.1887C102.62 35.8181 103.993 42.6455 104.212 49.2261C104.43 56.1626 103.296 63.0687 102.971 69.9774C102.769 73.4751 102.794 76.9908 103.174 80.473C103.564 84.0333 104.486 87.5432 105.884 90.8898C107.3 94.3927 109.092 97.6624 111.023 100.959C113.061 104.403 115.237 107.873 117.365 111.309C121.501 117.954 125.589 124.565 129.765 131.167C129.765 131.167 129.765 131.167 129.716 131.132C122.182 127.575 115.441 122.796 109.859 117.196ZM131.483 133.456C130.978 133.74 130.474 134.025 129.92 134.275C124.818 136.654 118.465 136.148 113.182 134.473C106.509 132.455 100.623 128.781 93.9805 126.641C88.4122 124.835 82.4252 124.017 76.483 124.302C70.4123 124.638 64.4451 126.19 59.2716 129.09C54.9389 131.515 51.2047 134.793 48.5337 138.682C49.772 135.205 51.9465 132.035 54.7701 129.397C61.8245 122.761 72.0707 119.817 82.2654 119.763C86.6669 119.743 91.0464 120.278 95.3753 121.134C95.4245 121.169 95.4736 121.204 95.4736 121.204C96.1529 121.614 97.2477 121.747 98.0364 121.95C98.8743 122.187 99.6629 122.389 100.501 122.626C102.127 123.065 103.763 123.583 105.36 124.144C106.769 124.643 108.138 125.186 109.508 125.728C110.719 126.444 111.88 127.125 113.161 127.676C114.402 128.27 115.683 128.821 116.993 129.251C117.654 129.505 118.403 129.75 119.142 129.917C122.825 131.743 126.846 133.024 131.227 133.203C131.345 133.429 131.394 133.464 131.483 133.456ZM132.456 134.431C131.249 135.217 130.032 135.925 128.717 136.563C128.291 136.761 127.777 136.968 127.352 137.166C126.196 137.631 125.029 138.018 123.814 138.37C120.899 139.159 117.848 139.566 114.819 139.417C111.484 139.337 108.171 138.701 104.837 138.265C101.138 137.784 96.8951 137.632 93.2983 138.723C94.5453 137.893 95.8509 137.177 97.2153 136.574C99.3905 135.617 101.693 134.965 104.073 134.582C108.379 135.994 112.796 137.197 117.364 137.438C122.386 137.714 127.847 136.803 131.807 133.899C131.905 133.969 132.004 134.039 132.142 134.065C132.388 134.24 132.446 134.353 132.456 134.431ZM97.592 138.554C100.742 138.217 103.986 138.662 107.182 139.071C110.427 139.516 113.633 140.004 116.939 139.85C119.624 139.754 122.35 139.259 124.899 138.426C124.692 138.564 124.435 138.667 124.227 138.805C121.615 140.238 119.072 141.862 116.226 142.842C114.763 143.375 113.232 143.718 111.633 143.869C109.846 143.959 108.021 143.736 106.266 143.348C102.845 142.564 99.6332 141.287 96.1217 140.867C94.07 140.626 91.8296 140.68 89.8828 141.298C92.0213 139.673 94.7978 138.858 97.592 138.554ZM133.015 135.327C132.965 135.292 132.916 135.257 132.877 135.3C132.788 135.309 132.748 135.352 132.659 135.36C132.175 135.446 131.652 135.574 131.128 135.703C131.672 135.375 132.128 135.055 132.623 134.692C132.78 134.875 132.897 135.101 133.054 135.284C133.103 135.318 133.103 135.318 133.015 135.327ZM87.6687 144.512C90.3292 143.114 93.8026 143.221 96.77 143.968C100.339 144.857 103.519 146.612 107.018 147.665C110.192 148.63 113.506 148.91 116.699 147.818C119.842 146.691 122.367 144.555 124.616 142.366C125.905 141.137 127.143 139.874 128.52 138.637C129.818 137.487 131.233 136.562 132.737 135.63C132.954 135.57 133.083 135.518 133.3 135.458C129.821 136.775 127.637 139.867 125.721 142.578C123.845 145.245 121.957 148.19 118.89 149.943C115.567 151.798 111.492 151.551 107.953 150.541C103.577 149.294 99.7871 146.964 95.52 145.509C93.0065 144.798 90.2946 144.303 87.6687 144.512ZM85.9011 144.758C86.6737 144.092 87.4367 143.348 88.2584 142.717C91.049 140.912 94.8873 141.063 98.1609 141.742C101.573 142.447 104.834 143.76 108.305 144.223C111.462 144.676 114.454 144.156 117.37 143.011C120.148 141.839 122.652 140.259 125.263 138.826C126.104 138.351 126.905 137.92 127.795 137.48C128.309 137.273 128.774 137.032 129.288 136.825C129.93 136.567 130.622 136.343 131.314 136.12C130.057 136.871 128.909 137.77 127.898 138.696C126.353 140.028 125.005 141.499 123.509 142.866C121.211 145.02 118.498 147.094 115.179 147.882C111.682 148.687 108.103 147.72 104.901 146.521C101.511 145.26 98.2026 143.556 94.5039 143.076C91.6238 142.676 88.533 143.126 86.2661 144.802C86.0788 144.741 85.9408 144.715 85.9011 144.758ZM49.7516 158.964C53.6296 159.072 57.4327 158.199 60.9517 156.839C68.9685 153.67 75.052 147.917 81.6355 142.947C84.7639 140.596 88.089 138.385 91.7476 136.695C93.5372 135.894 95.3855 135.205 97.3021 134.708C98.6063 134.347 99.9391 134.222 101.262 134.018C101.45 134.079 101.627 134.062 101.815 134.123C101.864 134.158 101.903 134.115 101.903 134.115C102.041 134.142 102.14 134.211 102.278 134.238C97.3403 135.02 92.7888 137.862 89.1449 140.775C84.5206 144.493 80.5454 148.742 75.6656 152.207C73.3495 153.849 70.8857 155.386 68.3045 156.697C65.901 157.992 63.3499 159.181 60.7209 160.102C58.4378 160.91 55.8992 161.466 53.4444 160.868C51.975 160.612 50.715 159.861 49.7516 158.964Z" fill="#DCBB8C"/>
</svg>
