<svg width="129" height="267" viewBox="0 0 129 267" fill="none" xmlns="http://www.w3.org/2000/svg">
<path d="M0.202311 111.641C0.134871 110.949 0 110.256 0 109.563C0 108.745 0.0674316 107.863 0.202311 107.045C0.404631 105.345 0.809278 103.708 1.3488 102.071C2.42783 98.7338 4.18128 95.6486 6.20447 92.7523C8.29511 89.856 10.7229 87.2745 13.4205 84.8819C16.1181 82.5523 19.1529 80.4745 22.4575 78.9005C25.6946 77.3894 29.3363 76.382 32.9781 76.319C36.4175 76.2561 39.7895 76.9486 43.0266 78.019C37.4966 74.3672 32.7083 69.8338 28.6619 64.7968C24.076 59.0672 20.3668 52.708 17.1972 46.2228C13.96 39.4858 11.2624 32.5599 8.63229 25.6969C5.79982 18.3303 3.10225 10.9636 1.28137 3.34512C1.07905 2.40067 0.876718 1.5192 0.674398 0.574768C0.606958 0.259949 0.944174 -0.0548706 1.28137 0.00808716C8.02536 1.58215 14.0275 5.10809 19.1529 9.45251C24.4132 13.9858 28.8642 19.2747 33.0455 24.6895C37.4965 30.5451 41.6778 36.7154 45.387 43.0117C49.0962 49.308 52.4682 55.8561 55.3007 62.5931C58.1331 69.3301 60.561 76.1931 62.3818 83.2449C62.5842 84.1264 62.8539 84.9449 63.0562 85.8264C63.0562 85.8893 63.0562 85.9523 63.0562 86.0153C63.4609 86.3301 63.8655 86.6449 64.2702 87.0227C65.8887 88.3449 67.4398 89.7931 68.856 91.3671C71.756 94.4523 74.1838 97.8523 76.207 101.441C76.2744 101.567 76.3419 101.693 76.4094 101.756C76.2745 101.441 76.1396 101.063 76.1396 100.749C74.9931 97.4745 74.0489 94.1375 73.3071 90.7375C72.0931 85.2597 71.5537 79.5931 72.0932 73.9894C72.5653 68.8264 73.914 63.7265 76.2744 59.0042C78.7023 54.282 82.2091 50.2524 86.3904 46.8524C90.6391 43.4524 95.4273 40.6191 100.283 38.1006C100.35 38.1006 100.35 38.0376 100.418 38.0376C100.62 37.5969 100.823 37.2191 101.092 36.7784C101.227 36.5265 101.632 36.5265 101.767 36.6525C101.902 36.5265 101.969 36.4006 102.104 36.3376C102.441 35.9599 103.048 36.1487 103.183 36.5895C104.599 42.9487 105.476 49.3709 105.678 55.8561C105.88 62.3413 105.476 68.8264 104.464 75.2486C103.453 81.6709 101.834 87.9671 99.6086 94.0745C97.3156 100.308 94.2809 106.352 92.7972 112.837C91.5833 118.126 91.4484 123.856 93.6739 128.893C93.7414 128.893 93.8763 128.956 93.9437 129.019C94.5507 129.586 94.8878 130.404 95.3599 131.034C95.7646 131.726 96.2367 132.356 96.6413 133.048C97.518 134.434 98.3947 135.819 99.2714 137.204C100.013 138.4 100.823 139.66 101.564 140.856C101.632 140.73 101.902 140.667 102.036 140.793C102.576 141.423 102.913 142.178 103.318 142.871C103.722 143.626 104.127 144.382 104.532 145.074C105.341 146.523 106.218 147.908 107.162 149.293C107.634 149.985 108.106 150.741 108.646 151.434C109.522 152.504 110.332 153.574 111.141 154.708C111.208 154.708 111.276 154.645 111.343 154.708C112.692 155.841 113.636 157.289 114.648 158.674C115.659 160.06 116.603 161.508 117.548 162.956C118.492 164.404 119.368 165.852 120.178 167.3C120.515 167.93 120.852 168.497 121.189 169.126C119.503 164.026 117.143 159.115 114.917 154.204C112.085 147.845 109.455 141.171 108.983 134.245C108.78 130.971 109.118 127.634 109.994 124.486C110.871 121.4 112.152 118.504 113.704 115.734C116.873 110.004 121.122 104.967 125.236 99.8041C129.35 94.7041 133.396 89.4153 136.094 83.4338C136.431 82.6783 136.7 81.9857 137.038 81.2301C137.038 81.1671 137.105 81.1671 137.105 81.1042C137.173 80.8523 137.645 80.8523 137.712 81.1671C138.386 84.5042 138.993 87.8412 139.533 91.1782C140.073 94.5153 140.679 97.7893 141.219 101.126C141.759 104.463 142.365 107.8 142.905 111.137C143.445 114.286 143.917 117.497 144.119 120.708C144.321 123.856 144.186 127.004 143.512 130.089C142.905 133.048 141.691 135.819 140.207 138.463C138.724 141.045 137.038 143.563 135.419 146.082C133.733 148.663 132.249 151.371 130.968 154.141C128.405 159.934 126.652 165.978 125.101 172.085C124.899 172.841 124.696 173.597 124.494 174.352C124.494 174.415 124.426 174.478 124.426 174.541C125.91 176.745 127.461 178.948 128.945 181.152C129.687 182.285 130.496 183.419 131.238 184.552C135.891 191.163 140.612 197.711 145.4 204.196C150.323 210.871 155.314 217.545 160.304 224.219C160.439 224.408 160.642 224.659 160.777 224.848C161.856 221.511 162.935 218.111 164.014 214.774C162.26 212.256 160.911 209.548 159.698 206.841C158.281 203.819 157.067 200.734 156.056 197.585C153.965 191.352 152.549 184.93 151.605 178.382C150.93 173.408 150.593 168.434 150.526 163.397C150.391 162.389 150.323 161.382 150.526 160.374C150.526 159.619 150.526 158.863 150.593 158.045C150.795 150.93 151.537 143.752 152.684 136.7C153.83 129.586 155.314 122.534 157.135 115.545C157.27 115.041 157.405 114.474 157.539 113.971C157.539 113.782 157.539 113.53 157.539 113.341C157.539 113.278 157.607 113.215 157.742 113.215C157.742 113.152 157.809 113.026 157.809 112.963C158.012 112.271 159.158 112.397 159.023 113.152C158.888 113.782 158.686 114.411 158.551 115.041C159.9 117.937 161.316 120.771 163.07 123.478C164.958 126.437 167.116 129.208 169.207 132.041C173.455 137.645 177.771 143.374 180.267 149.86C183.032 157.289 183.301 165.222 182.695 173.03C182.357 176.997 181.818 180.9 181.278 184.867C180.671 188.896 180.064 192.926 178.918 196.83C176.962 203.567 173.455 210.241 167.183 214.333C166.509 214.774 165.835 215.152 165.16 215.53C164.351 218.048 163.542 220.63 162.732 223.148C162.463 224.093 162.125 224.974 161.856 225.919V225.982C166.441 232.089 171.095 238.133 175.748 244.241C180.806 250.852 185.932 257.463 191.124 264.074C191.731 264.893 192.338 265.711 192.945 266.593C193.148 266.844 192.743 267.159 192.473 266.907C189.641 263.822 187.145 260.485 184.515 257.211C181.885 253.937 179.322 250.6 176.692 247.326C171.567 240.715 166.441 234.104 161.451 227.43C156.46 220.756 151.47 214.082 146.614 207.408C145.872 206.4 145.198 205.393 144.456 204.448C144.389 204.574 144.254 204.7 144.051 204.637C141.893 203.819 139.735 203 137.577 202.245C137.442 202.245 137.307 202.308 137.173 202.308H137.105C132.924 203.189 129.08 205.078 125.371 207.03C121.527 209.045 117.682 211.122 113.434 212.13C108.173 213.326 102.711 212.382 97.518 211.437C94.8878 210.933 92.1902 210.493 89.4926 210.241C86.795 209.989 84.1649 209.863 81.4673 209.926C78.4325 209.989 75.3977 210.241 72.4304 210.682C70.9467 210.933 69.4631 211.185 67.9794 211.5C66.8329 211.752 65.7538 212.067 64.6748 212.319C64.4725 212.445 64.3376 212.508 64.1353 212.633C63.8655 212.759 63.5958 212.696 63.3934 212.571C62.9214 212.508 62.7865 211.752 63.326 211.563C63.4609 211.5 63.5958 211.5 63.6632 211.437C65.7538 205.896 68.7211 200.734 72.2955 195.948C74.1163 193.556 76.0721 191.226 78.2302 189.022C80.3208 186.945 82.5464 184.993 85.244 183.671C88.1439 182.222 91.381 181.719 94.6181 181.719C97.9227 181.719 101.227 182.097 104.464 182.663C110.939 183.734 117.278 185.685 122.943 188.708C128.136 191.478 132.789 195.13 136.296 199.663C136.701 200.167 137.038 200.671 137.375 201.174C139.668 202.056 141.893 203 144.119 204.008C140.005 198.404 135.959 192.737 131.912 187.071C127.057 180.271 122.268 173.471 117.548 166.608C116.941 165.789 116.401 164.908 115.794 164.089V164.026C113.231 165.348 110.466 166.356 107.634 167.111C104.329 167.993 100.957 168.56 97.5854 168.748C90.9089 169.126 84.2323 168.119 78.0278 165.852C74.9256 164.719 72.0257 163.334 69.2607 161.634C66.6305 160.06 64.2702 158.171 61.9772 156.219C57.5262 152.441 53.4124 148.285 48.4893 145.011C45.9265 143.311 43.1615 141.989 40.1267 141.045C38.3733 140.478 36.6198 140.037 34.9338 139.471C33.6525 139.093 32.0339 138.652 31.2921 137.456C30.5503 136.323 31.2246 135.063 32.3711 134.434C33.6525 133.678 35.3385 133.489 36.8221 133.174C40.329 132.419 43.8359 131.852 47.4102 131.411C54.4914 130.593 61.64 130.467 68.7212 131.223C75.1954 131.978 81.6022 133.489 87.5369 135.945C92.8647 138.148 97.7877 141.045 102.171 144.634C102.441 144.823 102.711 145.074 102.913 145.263C102.509 144.697 102.036 144.13 101.632 143.563C100.62 142.304 99.6761 140.982 98.7319 139.723C96.8436 137.141 94.9553 134.56 93.1344 131.915C89.4926 126.689 85.9858 121.337 82.6138 115.923C80.9278 113.152 79.2418 110.445 77.5558 107.674C75.6 108.43 73.5094 108.682 71.3514 108.619C71.3514 108.682 71.2165 108.745 71.149 108.682V108.619C68.8561 108.556 66.4957 108.115 64.405 107.549C61.1679 106.667 58.0657 105.408 54.9635 104.149C54.9635 104.212 54.8285 104.274 54.7611 104.212C54.6937 104.149 54.5588 104.086 54.4914 103.96C52.6705 103.267 50.917 102.574 49.0287 102.008C46.3986 101.189 43.701 100.623 40.9359 100.623C38.036 100.623 35.1361 101.126 32.4385 102.008C27.3131 103.582 22.5923 106.226 17.7367 108.43C13.1508 110.571 8.16024 112.46 2.96737 112.523C2.29297 112.523 1.686 112.523 1.0116 112.46C-0.0674398 112.523 -0.134888 111.956 0.202311 111.641ZM152.279 175.674C153.021 182.159 154.235 188.645 156.191 194.941C157.742 200.104 159.765 205.204 162.193 210.052C161.451 207.911 160.911 205.771 160.439 203.63C159.63 200.104 159.091 196.515 158.551 192.926C158.011 189.337 157.472 185.811 156.73 182.285C155.921 178.634 154.774 175.171 153.291 171.708C152.751 170.511 152.279 169.315 151.807 168.119C151.807 170.637 152.009 173.156 152.279 175.674ZM158.146 118.504C158.079 118.252 158.011 118 157.944 117.749C158.011 118.378 158.012 119.071 158.079 119.7C158.214 119.763 158.349 119.889 158.281 120.015C158.214 120.141 158.214 120.33 158.146 120.456C158.551 125.619 159.225 130.719 160.237 135.756C161.721 143.186 163.879 150.426 166.711 157.478C169.409 164.215 172.511 171.015 173.253 178.256C174.062 185.811 171.972 193.241 169.746 200.482C168.6 204.133 167.386 207.785 166.239 211.437C169.072 206.337 171.972 201.237 174.265 195.822C176.895 189.652 178.716 183.167 178.783 176.493C178.918 169.567 177.232 162.767 174.804 156.282C172.376 149.797 169.274 143.626 166.172 137.393C163.137 131.348 160.17 125.052 158.146 118.504ZM176.895 198.593C178.176 194.752 178.918 190.785 179.525 186.819C180.132 182.915 180.739 179.074 181.143 175.171C181.953 167.489 182.02 159.619 179.66 152.189C177.569 145.515 173.455 139.723 169.274 134.056C165.295 128.767 161.046 123.415 158.484 117.371C159.36 120.204 160.304 123.037 161.451 125.808C162.732 129.019 164.216 132.167 165.767 135.315C168.802 141.611 172.039 147.845 174.602 154.267C177.097 160.689 179.053 167.363 179.255 174.226C179.525 180.837 178.041 187.385 175.681 193.619C173.253 199.978 169.948 205.959 166.576 211.878C166.239 212.445 165.902 213.011 165.565 213.578C165.497 213.704 165.497 213.83 165.43 213.956C171.23 210.556 174.871 204.637 176.895 198.593ZM167.723 202.937C170.083 195.696 172.511 188.267 172.241 180.585C171.972 173.282 169.072 166.482 166.374 159.745C163.609 152.756 161.316 145.704 159.765 138.4C158.686 133.237 157.877 127.949 157.539 122.723C156.258 127.76 156.326 132.986 157.135 138.086C158.079 144.13 160.035 149.985 162.125 155.715C164.216 161.445 166.374 167.174 167.79 173.093C168.465 176.052 169.004 179.074 169.207 182.097C169.409 185.245 169.274 188.393 168.937 191.541C168.262 197.9 166.711 204.133 165.025 210.367C164.958 210.745 164.823 211.059 164.756 211.437C164.756 211.878 164.756 212.256 164.756 212.696C165.632 209.359 166.644 206.148 167.723 202.937ZM164.621 207.282C164.621 208.163 164.621 209.108 164.621 210.052C165.16 207.659 165.834 205.33 166.374 203C167.116 199.915 167.723 196.767 168.128 193.619C169.004 187.322 168.937 181.026 167.588 174.793C166.307 168.748 164.149 162.956 162.058 157.163C159.967 151.434 157.944 145.704 156.798 139.723C155.719 133.867 155.449 127.76 157.067 121.967C157.135 121.652 157.27 121.4 157.337 121.086C157.337 120.393 157.27 119.763 157.27 119.071C156.056 124.045 154.977 129.082 154.1 134.182C152.886 141.171 152.009 148.223 151.672 155.274C151.605 156.03 151.605 156.848 151.605 157.604C151.672 158.045 151.74 158.548 151.807 158.989C151.942 159.871 152.212 160.815 152.414 161.697C152.886 163.522 153.56 165.348 154.235 167.111C155.651 170.637 157.337 174.1 158.821 177.626C160.372 181.215 161.653 184.804 162.597 188.582C163.542 192.485 164.081 196.515 164.351 200.482C164.553 202.748 164.621 205.015 164.621 207.282ZM164.149 213.956C164.149 213.452 164.149 212.948 164.149 212.445V212.382C164.149 212.319 164.149 212.319 164.149 212.256C164.149 208.793 164.216 205.33 164.014 201.867C163.811 197.837 163.339 193.808 162.53 189.841C161.721 186 160.439 182.222 158.821 178.571C157.337 175.108 155.584 171.645 154.167 168.182C153.358 166.23 152.616 164.215 152.009 162.2C151.807 161.571 151.672 160.941 151.47 160.311C151.47 162.452 151.47 164.656 151.537 166.797C151.942 168.182 152.549 169.567 153.088 170.889C153.763 172.589 154.505 174.226 155.112 175.926C155.651 177.563 156.191 179.263 156.595 181.026C158.281 188.015 158.956 195.13 160.372 202.182C161.181 206.148 162.328 209.989 163.946 213.767C164.014 213.767 164.081 213.83 164.149 213.956ZM74.3862 194.5C74.2513 194.689 74.1163 194.815 73.9815 195.004C70.2048 199.6 67.1026 204.7 64.7422 210.052C64.6074 210.367 64.4725 210.619 64.3376 210.933C66.3608 209.611 68.4514 208.352 70.542 207.093C73.1048 205.519 75.6001 203.945 78.1628 202.434C80.7255 200.859 83.2207 199.348 85.7834 197.774C88.0764 196.389 90.3694 194.878 92.9321 193.871C98.2599 191.73 104.06 192.611 109.59 193.619C115.187 194.626 120.717 195.948 126.112 197.522C127.866 198.026 129.619 198.593 131.305 199.159C131.036 199.034 130.698 198.845 130.429 198.719C128.608 197.774 126.922 196.83 125.168 195.822C121.594 193.808 117.952 191.919 113.973 190.722C109.859 189.526 105.476 188.959 101.16 189.211C96.8436 189.4 92.6624 190.534 88.5485 191.73C84.0301 193.052 79.5116 194.5 74.7234 194.626C74.521 194.563 74.4536 194.563 74.3862 194.5ZM124.022 198.53C120.11 198.152 116.131 198.278 112.287 198.845C108.443 199.411 104.667 200.419 100.89 201.237C97.1133 201.993 93.3367 202.685 89.4926 202.874C85.9183 203.063 82.1417 202.371 78.7022 203.378C77.3534 204.196 76.0722 205.015 74.7234 205.833C74.9257 205.708 75.1279 205.645 75.2628 205.519C77.1511 204.574 79.1069 203.819 81.1976 203.504C85.6486 202.811 90.167 203.756 94.5506 204.322C96.8436 204.574 99.204 204.763 101.497 204.511C103.857 204.259 106.15 203.756 108.443 203.063C112.827 201.741 117.143 199.915 121.661 199.159C123.145 198.908 124.629 198.782 126.18 198.782C125.505 198.719 124.764 198.656 124.022 198.53ZM125.64 198.404C120.987 197.082 116.334 195.885 111.545 195.004C108.78 194.437 106.015 193.934 103.25 193.682C100.485 193.43 97.5855 193.43 94.9553 194.185C92.3251 194.941 90.0321 196.326 87.8066 197.711C85.3113 199.222 82.8835 200.796 80.3882 202.308C80.2534 202.371 80.1185 202.496 79.9836 202.559C82.5463 202.119 85.3114 202.496 87.8741 202.496C91.7856 202.496 95.6971 201.867 99.5412 201.111C103.385 200.356 107.229 199.474 111.141 198.908C113.097 198.593 115.052 198.404 117.076 198.215C118.964 198.026 120.852 198.026 122.808 198.152C123.685 198.215 124.696 198.278 125.64 198.404ZM128.608 199.285C126.719 199.034 124.696 199.034 122.808 199.285C118.222 199.915 113.973 201.678 109.657 203.063C107.567 203.756 105.408 204.322 103.183 204.7C101.025 205.015 98.7994 205.078 96.6413 204.889C92.2577 204.511 87.8741 203.378 83.423 203.63C80.9952 203.756 78.7023 204.385 76.4768 205.393C75.3977 205.896 74.3862 206.526 73.3746 207.156C75.1954 206.526 77.0163 206.148 78.972 205.896C83.6928 205.33 88.481 206.022 93.2018 206.4C95.6296 206.589 98.1249 206.652 100.553 206.4C102.913 206.148 105.274 205.771 107.634 205.204C112.287 204.133 116.806 202.559 121.459 201.489C123.954 200.922 126.517 200.545 129.08 200.545C130.564 200.545 131.98 200.608 133.396 200.859C131.777 200.293 130.159 199.789 128.608 199.285ZM129.417 200.734C127.124 200.734 124.899 201.048 122.673 201.489C118.087 202.434 113.636 204.133 109.118 205.267C106.892 205.833 104.599 206.337 102.306 206.589C100.081 206.841 97.7877 206.904 95.4948 206.841C90.7066 206.652 85.9183 205.833 81.0626 206.085C77.7581 206.274 74.521 207.093 71.5536 208.415C71.4862 208.478 71.3513 208.541 71.2839 208.604C74.1838 207.974 77.1512 207.722 80.1185 207.596C84.7045 207.471 89.2903 207.848 93.8762 208.226C98.597 208.604 103.318 208.919 108.039 208.541C110.399 208.352 112.692 208.037 114.985 207.408C117.278 206.841 119.436 205.959 121.527 205.015C125.64 203.189 130.159 201.048 134.88 201.489C132.991 201.048 131.17 200.734 129.417 200.734ZM123.752 190.785C118.424 187.637 112.49 185.559 106.353 184.3C103.183 183.671 99.9458 183.23 96.7087 182.978C93.5391 182.789 90.2345 182.915 87.1997 183.922C84.4347 184.867 82.0068 186.63 79.9162 188.519C78.0279 190.219 76.3419 192.108 74.7908 193.996C83.3556 193.682 91.1787 189.463 99.6761 188.771C103.925 188.456 108.241 188.771 112.355 189.778C116.401 190.785 120.11 192.485 123.617 194.5C126.787 196.263 129.889 198.215 133.194 199.726C133.733 199.915 134.34 200.104 134.88 200.293C131.845 196.578 128.068 193.304 123.752 190.785ZM122.673 204.889C120.582 205.833 118.492 206.778 116.266 207.471C114.108 208.1 111.95 208.541 109.657 208.793C100.418 209.8 91.2461 208.037 82.0068 208.037C77.3535 208.037 72.7676 208.541 68.384 210.052C68.2491 210.115 68.1143 210.241 67.9794 210.304C68.9235 210.115 69.8002 209.926 70.7444 209.8C73.3745 209.359 76.0721 209.108 78.7022 208.919C84.0974 208.667 89.5601 209.045 94.8878 209.926C100.216 210.871 105.611 212.193 111.073 211.374C115.457 210.745 119.436 208.667 123.347 206.652C127.057 204.7 130.901 202.622 135.082 201.93C130.766 201.489 126.585 203.126 122.673 204.889ZM131.71 92.6264C131.777 92.7523 131.777 92.8782 131.71 93.0042C128.338 97.5375 124.966 102.134 121.999 106.919C119.099 111.704 116.536 116.678 114.917 121.967C113.299 127.193 112.624 132.671 113.366 138.086C114.041 143.311 115.727 148.411 117.413 153.448C118.627 156.974 119.975 160.563 120.987 164.152C120.987 163.082 120.92 162.011 120.785 160.941C120.515 157.73 119.975 154.519 119.436 151.308C118.289 144.948 117.008 138.589 116.806 132.167C116.738 129.019 116.941 125.934 117.548 122.849C118.155 120.015 119.099 117.308 120.38 114.663C122.808 109.563 126.112 104.904 129.215 100.119C132.249 95.3338 135.015 90.3597 136.296 84.819C136.363 84.4412 136.431 84.0634 136.498 83.7486C135.217 86.8338 133.598 89.7931 131.71 92.6264ZM123.482 165.097C123.617 167.111 123.752 169.063 123.954 171.078C125.236 166.104 126.652 161.13 128.608 156.282C129.754 153.385 131.103 150.615 132.722 147.971C134.273 145.389 135.959 142.934 137.577 140.415C139.128 137.897 140.612 135.315 141.489 132.545C142.5 129.523 142.838 126.311 142.838 123.163C142.838 120.015 142.433 116.804 141.961 113.656C141.489 110.382 140.949 107.108 140.41 103.897C139.6 98.9856 138.859 94.0116 138.049 89.1005C137.982 89.6671 137.914 90.1708 137.78 90.7375C137.577 91.9967 137.24 93.193 136.903 94.3893C136.633 95.9634 136.296 97.6004 135.959 99.1745C134.61 105.03 132.722 110.76 130.833 116.489C128.945 122.282 127.124 128.137 125.843 134.119C124.561 140.226 123.752 146.397 123.415 152.63C123.347 153.511 123.347 154.393 123.347 155.274C123.617 158.548 123.752 161.822 123.482 165.097ZM134.88 99.993C134.61 100.56 134.34 101.189 134.07 101.756C131.845 106.667 129.08 111.389 126.719 116.237C124.292 121.149 122.403 126.249 121.796 131.663C121.189 137.078 121.864 142.556 122.471 148.034C122.808 144.193 123.347 140.289 124.089 136.511C125.236 130.53 126.922 124.611 128.877 118.819C130.766 113.089 132.856 107.36 134.408 101.567C134.61 101 134.745 100.497 134.88 99.993ZM121.999 168.497V168.56C122.134 169 122.268 169.378 122.403 169.819C122.471 169.63 122.471 169.504 122.471 169.315C121.999 164.593 121.864 159.871 121.999 155.148C122.066 153.511 122.134 151.811 122.268 150.174C121.594 144.76 120.92 139.345 121.122 133.93C121.257 131.097 121.661 128.263 122.403 125.556C123.078 123.037 124.022 120.582 125.101 118.126C127.259 113.215 129.957 108.493 132.317 103.645C133.801 100.623 135.149 97.4745 136.094 94.2634C136.161 93.8227 136.296 93.319 136.363 92.8782C136.835 89.919 137.038 86.9597 137.173 84.0005C137.173 83.8116 137.173 83.5597 137.173 83.3708C137.105 83.056 137.105 82.7412 137.038 82.4264C136.903 82.6783 136.835 82.9931 136.7 83.2449C136.026 88.5968 133.666 93.5079 130.833 98.1671C127.866 103.078 124.426 107.737 121.729 112.774C120.38 115.293 119.234 117.937 118.492 120.708C117.682 123.793 117.278 127.004 117.278 130.152C117.278 136.574 118.559 142.871 119.706 149.167C120.785 155.023 121.729 160.878 121.661 166.86C121.796 167.363 121.931 167.93 121.999 168.497ZM121.054 165.537C120.043 162.011 118.762 158.485 117.548 155.023C115.794 150.048 113.973 145.011 113.164 139.786C112.287 134.434 112.625 129.019 113.906 123.73C115.255 118.378 117.548 113.341 120.38 108.493C121.189 107.171 121.999 105.786 122.808 104.526C120.38 107.612 118.02 110.76 115.996 114.034C112.625 119.574 110.062 125.619 109.994 132.104C109.927 139.03 112.287 145.767 115.052 152.063C117.008 156.66 119.234 161.193 120.987 165.852C121.055 165.726 121.054 165.6 121.054 165.537ZM111.748 164.719C112.894 164.278 114.041 163.837 115.187 163.397C114.85 162.893 114.445 162.326 114.108 161.822C111.478 160.689 108.983 159.304 106.487 157.982C103.925 156.66 101.362 155.337 98.8668 154.015C93.8088 151.434 88.6833 148.915 83.423 146.711C72.9699 142.241 61.9772 138.715 50.5124 137.33C47.2753 136.952 44.1056 136.7 40.8685 136.637C39.7895 136.637 38.643 136.637 37.564 136.7C41.0709 137.393 44.5103 138.274 47.9497 139.156C49.5683 139.534 51.1868 139.848 52.7379 140.226C57.9982 141.423 63.1911 142.808 68.2491 144.445C77.5558 147.404 86.5253 151.371 94.3483 156.974C96.5738 158.548 98.5971 160.311 100.688 161.948C102.711 163.522 104.801 164.971 107.027 166.23C108.713 165.789 110.264 165.285 111.748 164.719ZM106.622 166.293C104.734 165.348 103.048 164.152 101.43 162.956C99.4738 161.508 97.6529 159.997 95.6971 158.548C91.8531 155.652 87.7392 153.134 83.3556 150.993C74.3861 146.523 64.6748 143.5 54.8286 141.171C57.3239 141.989 59.7517 142.934 62.1121 143.941C70.07 147.467 77.4209 152.378 82.951 158.8C84.637 160.815 86.2556 162.893 88.2113 164.656C89.6276 165.915 91.1787 166.985 92.9321 167.804C97.5855 167.93 102.171 167.426 106.622 166.293ZM77.5558 164.719C82.1417 166.419 86.9974 167.489 91.9205 167.741C88.8183 166.23 86.4578 163.522 84.3672 161.004C82.951 159.304 81.5347 157.541 79.9162 155.967C78.3651 154.456 76.7465 153.008 74.993 151.685C67.7095 146.397 59.0773 142.871 50.3101 140.352C48.4892 139.848 46.6684 139.345 44.8475 138.904C43.7684 138.715 42.7569 138.463 41.6778 138.274C46.2638 139.345 50.6473 140.919 54.6937 143.186C58.2006 145.137 61.4377 147.53 64.0678 150.363C67.1701 153.7 69.5979 157.541 72.7676 160.815C74.1838 162.326 75.8024 163.648 77.5558 164.719ZM70.0026 161.067C71.2165 161.822 72.4978 162.515 73.8466 163.145C74.5884 163.46 75.2628 163.774 76.0046 164.089C75.4651 163.711 74.8582 163.271 74.3862 162.83C70.9467 159.934 68.4515 156.156 65.619 152.756C62.9214 149.545 59.8192 146.837 56.1774 144.571C52.6705 142.43 48.8939 140.793 44.9149 139.597C42.3522 138.841 39.6546 138.211 36.957 137.834C38.4407 138.274 39.9244 138.778 41.3406 139.408C44.308 140.667 47.1405 142.052 49.838 143.752C55.2332 147.215 59.6168 151.874 64.2702 156.156C66.0236 157.919 67.9794 159.556 70.0026 161.067ZM34.2594 138.274C35.0687 138.526 35.9454 138.778 36.7547 139.03C39.8569 139.911 42.9592 140.856 45.7917 142.43C50.9171 145.2 55.0984 149.104 59.2796 152.882C61.3703 154.771 63.5283 156.66 65.8213 158.36C66.4282 158.8 67.0352 159.241 67.6422 159.682C66.698 158.863 65.7538 158.108 64.8771 157.289C62.5841 155.211 60.2912 153.008 57.9982 150.93C53.3449 146.774 48.152 142.808 42.1499 140.478C39.1151 139.282 35.878 138.337 32.6409 137.708C33.2478 137.96 33.7873 138.086 34.2594 138.274ZM90.4368 138.967C85.109 136.323 79.4441 134.434 73.5094 133.363C66.7654 132.104 59.8191 131.789 52.8728 132.23C49.4334 132.419 45.9939 132.86 42.5545 133.363C40.8011 133.615 39.1151 133.93 37.3617 134.308C36.485 134.497 35.6757 134.686 34.7989 134.874C34.1245 135 33.4501 135.189 32.7757 135.441C32.4385 135.567 32.1013 135.756 31.899 136.008C32.9781 135.819 34.0571 135.693 35.2036 135.693C36.6198 135.63 38.1035 135.567 39.5197 135.567C42.4196 135.567 45.3196 135.756 48.2195 136.008C53.9519 136.637 59.6168 137.771 65.2143 139.282C70.8118 140.793 76.2744 142.745 81.6022 144.948C86.9299 147.152 92.1228 149.608 97.2482 152.252C102.374 154.834 107.432 157.604 112.355 160.5C112.557 160.626 112.692 160.752 112.894 160.815C112.557 160.06 112.152 159.367 111.748 158.674C110.129 156.345 108.511 154.015 106.825 151.623C105.813 150.489 104.801 149.356 103.655 148.285C99.9458 144.571 95.3599 141.423 90.4368 138.967ZM16.9274 43.0746C19.9622 49.6857 23.4016 56.108 27.8526 61.9635C31.7641 67.1894 36.3501 71.9116 41.7453 75.8783C43.4987 77.1375 45.387 78.3338 47.2753 79.4042C49.9055 80.3486 52.4682 81.419 55.0309 82.5523C54.6262 82.3005 54.2217 82.1116 53.817 81.8597C51.6589 80.6005 49.5683 79.2783 47.6125 77.8301C43.6335 74.9968 39.9244 71.7857 36.4849 68.3227C29.2014 61.0191 23.1319 52.708 18.0064 43.8932C17.0623 42.3191 16.1855 40.6821 15.2414 39.108C15.7809 40.4302 16.3204 41.7524 16.9274 43.0746ZM8.56487 22.5488C9.44158 24.8154 10.3183 27.0821 11.195 29.3488C11.5996 30.0414 11.9369 30.7969 12.2741 31.5525C12.8136 32.6858 13.4205 33.8191 13.9601 35.0154C15.1065 37.2821 16.3204 39.5487 17.5344 41.8154C18.7483 44.145 20.1645 46.4117 21.5133 48.6783C22.8621 50.882 24.2783 53.0228 25.762 55.1006C31.427 63.0968 38.2384 70.4635 46.2637 76.5079C48.4218 78.1449 50.7147 79.656 53.0077 81.1042C54.4239 81.9227 55.8402 82.6783 57.2564 83.4338C55.9751 82.5523 54.6937 81.6079 53.4123 80.6635C50.7822 78.6486 48.2869 76.5079 45.9265 74.3042C41.1383 69.8338 36.7547 64.9857 32.7757 59.8228C28.6619 54.5339 24.8853 48.9932 21.4459 43.2635C17.7367 36.9673 14.3647 30.5451 11.2625 23.9969C8.42999 18.0784 5.66495 12.034 3.03479 6.05252C4.58591 11.5933 6.47423 17.071 8.56487 22.5488ZM55.1658 65.3635C52.4682 58.6894 49.2985 52.2043 45.7242 45.845C42.1499 39.5487 38.1709 33.4413 33.8548 27.5858C29.8084 22.108 25.5597 16.6303 20.4343 11.9081C15.5786 7.37476 9.98108 3.534 3.43941 1.45624C3.30453 1.39328 3.2371 1.39328 3.10222 1.39328C3.57429 2.08588 4.0464 2.77844 4.51848 3.40808C4.58592 3.40808 4.65336 3.47107 4.65336 3.53403C6.27192 5.61179 7.75556 7.81549 9.1718 10.0192C10.7904 12.3488 12.4764 14.6784 14.0949 17.0081C18.0064 22.5488 21.9854 28.0895 25.8969 33.5673C29.8084 39.045 33.7199 44.5858 37.6314 50.0635C41.5429 55.5413 45.4544 61.082 49.3659 66.5598C51.3217 69.3302 53.3449 72.1005 55.3007 74.8709C57.1215 77.4523 59.0098 80.0338 60.8307 82.6783C59.4145 76.8227 57.4588 71.0301 55.1658 65.3635ZM16.0507 21.0377C19.4227 26.7673 22.5924 32.5599 25.8969 38.3524C29.134 44.0191 32.4386 49.6228 36.0129 55.1006C39.4523 60.3265 43.094 65.4265 47.2079 70.2116C51.2543 74.9968 55.7727 79.5301 60.6958 83.5597C60.7633 83.6227 60.8308 83.6857 60.8982 83.6857C57.2564 78.9005 53.8844 73.9894 50.3775 69.1413C46.466 63.6005 42.4871 58.1228 38.5756 52.582C34.6641 47.1043 30.7526 41.5635 26.841 36.0858C23.1993 31.1117 19.625 26.0747 16.0507 21.0377ZM61.5051 84.6301C60.4935 83.9375 59.5494 83.119 58.6052 82.3634C57.3913 81.356 56.1774 80.2857 55.0309 79.2153C52.7379 77.0746 50.5799 74.8079 48.4893 72.4783C44.308 67.7561 40.4639 62.719 36.957 57.4931C33.3827 52.1413 30.0107 46.6635 26.841 41.1228C23.4016 35.2043 20.0971 29.2858 16.6576 23.3673C14.8368 20.2821 13.0159 17.2599 11.1276 14.2377C8.49742 10.5229 5.79983 6.80807 3.16968 3.09326C2.76504 2.46365 2.29295 1.89697 1.88831 1.26736C1.88831 1.39328 1.95575 1.58218 2.02319 1.7081C4.85567 8.19327 7.68813 14.7414 10.6555 21.1636C13.6903 27.7117 16.9274 34.1339 20.5017 40.3673C23.8737 46.2228 27.448 51.9524 31.5618 57.4302C35.4059 62.5931 39.6546 67.5672 44.3754 72.1005C49.0288 76.6338 54.0868 80.7894 59.5494 84.3783C60.2238 84.5671 60.8982 84.6931 61.5726 84.8819C61.5052 84.819 61.5051 84.6931 61.5051 84.6301ZM88.5485 46.1598C84.2324 49.3709 80.5231 53.1487 77.893 57.682C75.3303 62.1524 73.7792 67.1264 73.1722 72.1635C72.4978 77.5783 72.835 83.056 73.8466 88.4079C74.3187 90.8634 74.9256 93.256 75.6 95.6486C75.5326 95.1449 75.4652 94.6412 75.3978 94.1375C75.128 91.556 74.9256 88.9745 74.8582 86.3931C74.7233 81.2301 75.0606 76.0672 76.0722 70.9672C77.7581 62.5302 81.3998 54.345 87.4694 47.7969C88.6159 46.5376 89.8298 45.4043 91.1112 44.3339C90.2345 44.9635 89.4252 45.5302 88.5485 46.1598ZM96.9785 97.0338C99.4063 90.8634 101.295 84.5671 102.576 78.082C103.79 71.6598 104.397 65.1116 104.397 58.6265C104.397 52.8339 103.857 47.1043 102.846 41.3747C102.846 46.2228 102.778 51.0709 102.576 55.9191C102.306 62.0894 101.834 68.1968 100.89 74.3042C99.9458 80.3486 98.5295 86.3301 96.5738 92.1227C94.5506 97.9782 92.1228 103.708 90.8414 109.752C89.7624 114.789 89.4926 120.204 91.0438 125.241C90.3694 122.093 90.3693 118.819 90.8414 115.671C91.7856 109.186 94.5507 103.141 96.9785 97.0338ZM91.3135 126.752C89.4252 122.156 89.2903 117.119 89.9647 112.271C90.8415 106.352 93.0669 100.623 95.1576 94.956C97.3157 89.0375 98.9343 83.056 100.013 76.8857C101.025 70.7783 101.564 64.6079 101.834 58.4376C102.104 52.2672 102.171 46.0339 102.171 39.8006C102.171 39.108 102.171 38.4784 102.171 37.7858V37.7228C102.036 37.8487 101.969 37.9747 101.834 38.1006C102.171 44.208 101.969 50.3783 101.092 56.4228C100.148 62.845 98.5296 69.0783 96.3715 75.1857C94.2809 81.2931 91.8531 87.3375 89.9647 93.5079C88.2787 99.1745 87.1997 104.967 87.2672 110.886C87.3346 115.923 88.4136 121.023 90.7066 125.619C90.9089 126.06 91.1112 126.437 91.3135 126.752ZM86.0532 118.315C86.9299 119.826 87.8066 121.4 88.6834 122.911C88.8857 123.226 89.088 123.478 89.2903 123.793C89.0206 123.1 88.7508 122.408 88.5485 121.652C87.6718 119.008 87.1997 116.3 86.9974 113.53C86.5253 107.8 87.2671 102.134 88.6834 96.5301C90.2345 90.2968 92.46 84.1894 94.6181 78.1449C96.8436 71.9746 98.7319 65.7413 99.8784 59.2561C101.025 52.7709 101.429 46.1598 101.16 39.6117C101.16 39.3598 101.16 39.108 101.092 38.8562C100.823 39.171 100.485 39.4858 100.216 39.8635C99.2714 41.6895 98.2598 43.4524 97.3831 45.3413C96.0343 48.1746 94.8204 51.008 93.6065 53.9043C91.3136 59.7598 89.3578 65.7413 87.8741 71.7857C86.3904 77.7672 85.1765 83.8745 84.5021 90.0449C84.1649 93.1301 83.8951 96.2153 83.7602 99.2375C83.6254 102.386 83.4905 105.534 83.6254 108.682C83.6928 110.76 83.8277 112.837 84.1649 114.915C84.7719 116.049 85.4462 117.182 86.0532 118.315ZM78.5 101.126C79.1069 104.337 80.1185 107.486 81.4673 110.508C81.6022 110.886 81.8045 111.2 81.9394 111.578C82.6138 112.649 83.3556 113.719 83.9626 114.852C83.8277 113.845 83.6928 112.837 83.6254 111.893C83.3556 108.682 83.423 105.534 83.3556 102.323C83.2882 99.2375 83.4905 96.1523 83.7602 93.0671C84.2323 86.7708 85.1765 80.5375 86.5253 74.3672C87.8741 68.2598 89.695 62.2153 91.9205 56.2968C93.674 51.6376 95.6971 47.1043 97.9226 42.6339C95.3599 45.7821 93.1344 49.1821 91.1786 52.708C88.0089 58.3746 85.5137 64.419 83.423 70.5264C82.4114 73.6116 81.4673 76.6968 80.5906 79.8449C79.6464 83.4338 78.7697 87.0227 78.2976 90.6745C77.8255 94.0745 77.893 97.6004 78.5 101.126ZM78.7697 82.3634C79.579 79.0894 80.5232 75.8153 81.5348 72.6042C83.4905 66.3079 85.9184 60.1376 88.9531 54.282C91.5833 49.308 94.6855 44.5228 98.3947 40.2413C98.3947 40.2413 98.3273 40.2413 98.3273 40.3043C97.1134 41.3747 95.832 42.445 94.6181 43.5154C92.9321 44.9635 91.3135 46.5376 89.695 48.1117C86.6602 51.1969 83.8952 54.4709 81.872 58.2487C79.6464 62.3413 78.6348 66.8746 78.2302 71.4079C77.7581 76.319 77.8255 81.2931 77.6906 86.2671C77.6906 86.7708 77.6907 87.2745 77.6232 87.8412C77.9604 85.8894 78.2977 84.1264 78.7697 82.3634ZM77.0162 87.7782C77.2186 82.7412 77.2186 77.7042 77.6232 72.6672C78.0279 68.0709 78.9046 63.5376 80.9278 59.2561C82.7487 55.4154 85.3788 51.9524 88.3462 48.8043C90.0322 47.0413 91.7856 45.3413 93.6065 43.7043C94.4832 42.9487 95.3599 42.1302 96.3041 41.3747C95.4274 41.8784 94.5506 42.445 93.7414 43.0746C92.0554 44.3339 90.4368 45.7191 88.9531 47.2302C85.9858 50.2524 83.4905 53.7154 81.4673 57.4302C76.9489 65.9302 75.2629 75.4375 75.3978 84.8819C75.4652 87.7153 75.6 90.6116 75.9372 93.4449C76.0721 94.8301 76.2745 96.2153 76.4768 97.6004C76.5442 98.0412 76.6116 98.4819 76.679 98.9227C76.7465 97.7893 76.7465 96.656 76.814 95.4597C76.814 93.0042 76.8814 90.3597 77.0162 87.7782ZM76.6116 107.108C76.5442 107.045 76.5442 106.982 76.4768 106.919C76.3419 106.667 76.4767 106.415 76.679 106.289C75.5326 104.967 74.3861 103.708 73.1048 102.574C70.3398 100.056 67.2375 97.8523 63.933 95.9004C60.561 93.8856 57.0541 92.0597 53.3449 90.6116C49.6357 89.1634 45.7916 88.093 41.8127 87.7782C46.1963 89.1005 50.3776 91.0523 54.1542 93.319C58.3355 95.8375 62.247 98.8597 65.619 102.323C67.305 104.023 68.856 105.849 70.2048 107.8C72.4304 107.926 74.521 107.674 76.6116 107.108ZM29.8084 101.63C32.506 100.686 35.271 99.993 38.1035 99.7412C40.8011 99.4893 43.5661 99.7412 46.1963 100.371C47.9497 100.812 49.6357 101.315 51.3217 101.945C47.8823 99.2375 44.2405 96.7819 39.7221 96.2153C36.8222 95.8375 34.1245 96.4671 31.5618 97.6634C28.9991 98.9227 26.6387 100.497 24.3458 102.134C22.4574 103.456 20.704 104.904 18.9506 106.352C22.5249 104.715 26.0318 102.952 29.8084 101.63ZM15.4437 108.052C16.0507 107.8 16.6576 107.486 17.2646 107.234C21.2435 103.582 25.6271 100.245 30.4828 97.6634C32.9781 96.3412 35.6757 95.5227 38.5756 95.6486C41.4081 95.7745 44.1056 96.7819 46.5335 98.1041C48.6916 99.3004 50.6473 100.812 52.5356 102.386C55.0309 103.33 57.4587 104.4 59.954 105.345C57.6611 103.015 55.3681 100.623 52.7379 98.5449C49.6357 96.0893 46.1288 94.0745 42.1499 93.1301C38.3058 92.1856 34.3269 92.5634 30.6177 93.8856C26.9085 95.2708 23.6714 97.5375 20.9063 100.182C18.1413 102.826 15.8484 105.786 13.6229 108.808C14.2298 108.619 14.8368 108.367 15.4437 108.052ZM12.7461 109.186C17.2646 103.267 22.1877 97.0967 29.4712 94.0745C33.0455 92.5634 36.957 91.9967 40.8685 92.6264C44.8475 93.319 48.4892 95.0819 51.6589 97.3486C54.9634 99.6782 57.9308 102.575 60.561 105.597C60.8308 105.723 61.1679 105.786 61.4377 105.912C62.9888 106.415 64.5399 106.919 66.1585 107.234C62.9213 104.4 59.6843 101.63 56.1774 99.1115C52.1985 96.2153 47.9497 93.5079 43.4313 91.3042C41.2057 90.2338 38.8453 89.3523 36.2826 89.0375C33.7873 88.7856 31.3595 89.2264 29.134 90.2338C26.9085 91.2412 24.8853 92.6264 22.997 94.0745C21.1086 95.5227 19.2878 97.0338 17.4669 98.6078C13.4205 102.26 9.84623 106.226 6.67656 110.571C6.4068 110.949 5.86725 110.508 6.13701 110.193C9.03692 106.289 12.4089 102.575 16.0507 99.2375C17.8041 97.6004 19.625 96.0264 21.5133 94.5782C23.4016 93.0671 25.3574 91.6819 27.5154 90.5486C29.6061 89.4782 31.8991 88.7227 34.3269 88.6597C36.8222 88.5968 39.3174 89.2264 41.6103 90.1708C43.9707 91.1153 46.1962 92.3745 48.3543 93.6967C50.5124 94.956 52.603 96.2782 54.6937 97.7264C58.9424 100.623 63.1237 103.834 66.698 107.486C67.7096 107.674 68.7886 107.8 69.8676 107.926C68.6537 106.415 67.4398 104.904 66.091 103.519C64.405 101.756 62.6516 100.119 60.7633 98.6078C56.9866 95.5856 52.8054 93.0042 48.3543 90.9893C45.859 89.856 43.2289 88.9745 40.5987 88.093C40.4639 88.0301 40.3965 87.9671 40.3965 87.8412C33.113 87.6523 26.0318 90.3597 20.0971 94.2634C13.4205 98.6078 8.1602 104.526 3.10222 110.382C2.69758 110.823 2.36041 111.263 1.95577 111.641C5.59752 111.515 9.23927 110.571 12.7461 109.186ZM8.22767 102.763C10.9927 99.8671 13.8926 97.1597 17.1297 94.7671C23.1993 90.2968 30.6851 86.8968 38.5081 86.6449C46.8032 86.3301 54.7611 89.5412 61.8423 93.4449C65.2817 95.3338 68.5863 97.4116 71.6211 99.8671C72.7001 100.749 73.7792 101.693 74.7908 102.637C72.6327 98.8597 70.2723 95.2079 67.1701 91.9967C64.6748 89.4153 61.7749 87.2745 58.5378 85.5745C57.2564 84.9449 55.975 84.3153 54.6937 83.7486C52.8054 83.119 50.9845 82.3634 49.1636 81.482C48.759 81.2931 48.2869 81.1671 47.8823 80.9783C44.1731 79.5301 40.329 78.082 36.2826 77.6412C32.6409 77.2005 28.9991 77.7042 25.6271 78.9005C18.9506 81.2931 13.2182 85.9523 8.90207 91.1782C4.51848 96.4671 1.3488 102.826 1.0116 109.563C1.0116 110.13 0.944174 110.634 0.944174 111.2C3.16969 108.241 5.66495 105.471 8.22767 102.763Z" fill="#C69247"/>
</svg>
