<svg width="189" height="134" viewBox="0 0 189 134" fill="none" xmlns="http://www.w3.org/2000/svg">
<path d="M188.524 106.634C188.158 109.017 186.887 110.954 185.174 112.316C183.313 113.535 181.015 113.897 178.74 113.417C179.03 113.987 179.168 114.553 179.154 115.116C179.259 116.947 178.605 118.619 177.509 119.716C176.257 120.95 174.261 121.462 172.439 121.133C171.376 120.965 170.32 120.516 169.572 119.933C169.815 122.332 169.296 124.71 166.799 126.897C165.083 128.4 162.477 128.896 159.748 128.263C157.926 127.934 156.119 127.043 154.616 126.16C154.064 129.804 150.78 132.956 146.806 133.275C142.828 133.735 138.923 131.383 137.483 128.11C136.699 128.934 136.074 129.48 135.145 130.019C133.596 130.964 131.756 131.339 130.242 130.877C128.729 130.416 127.535 129.4 126.813 127.834C126.667 127.549 126.526 127.123 126.381 126.838C124.043 128.747 120.225 128.93 117.518 127.453C115.116 125.984 113.965 123.281 114.339 120.618C112.492 121.273 110.064 120.788 108.42 119.48C106.478 117.882 105.48 115.183 106.006 112.523C106.366 110.422 107.643 108.203 109.679 106.145C112.187 103.537 115.29 101.507 118.241 99.4722L119.017 98.9294C122.12 96.899 125.383 94.5914 127.749 91.557C130.116 88.5227 131.121 85.0311 130.435 82.0586C130.435 82.0586 130.435 82.0586 130.439 81.918L130.443 81.7774C125.848 76.5934 120.324 71.9483 113.723 67.6974C114.725 70.2559 115.41 73.2284 115.639 76.1891C119.087 78.5294 120.498 82.9276 120.106 86.2943C120.096 86.7161 119.631 86.9856 119.174 86.9737C118.716 86.9619 118.422 86.5322 118.433 86.1104C118.804 83.5873 117.973 80.3297 115.741 78.1615C115.777 82.6649 114.891 87.4259 112.808 91.3118C113.403 91.89 113.839 92.7455 113.817 93.5891C113.77 95.417 112.209 96.7837 110.224 96.8732C109.309 96.8496 108.402 96.5447 107.807 95.9666C107.212 95.3884 106.776 94.5329 106.798 93.6892C106.841 92.0019 108.25 90.6313 110.082 90.5379C110.235 90.5418 110.235 90.5418 110.387 90.5458C110.692 90.5537 111.149 90.5655 111.451 90.714C115.61 83.2234 114.663 72.6463 111.32 66.2284C103.957 61.9578 95.3628 58.0776 85.2337 54.5798C84.6276 54.4235 84.1739 54.271 83.5715 53.9741C90.7499 65.4157 89.0838 82.6791 83.6144 93.6533C83.6108 93.7939 83.4584 93.79 83.4547 93.9306C83.4547 93.9306 83.4547 93.9306 83.3023 93.9267L83.1462 94.0633C83.1462 94.0633 83.1462 94.0633 82.9938 94.0594C82.8414 94.0554 82.8414 94.0554 82.689 94.0515C82.689 94.0515 82.6889 94.0515 82.5365 94.0476C82.3841 94.0436 82.3841 94.0436 82.2353 93.8991C77.3214 89.2697 74.1532 82.012 74.0481 74.2707C73.7905 66.5254 76.2912 58.2885 80.3923 53.0477C73.7363 50.906 66.9207 49.0415 60.105 47.1771C58.2868 46.708 56.3161 46.235 54.5015 45.6253C49.6529 44.3745 44.6518 43.1197 39.8068 41.7283C41.8863 43.8925 43.8025 46.4746 45.2469 49.6074C48.4007 51.518 50.9375 53.694 53.0097 56.1395C53.1621 56.1434 60.9322 62.3943 67.6972 60.3178C68.1581 60.189 68.6117 60.3414 68.7533 60.7672C68.8948 61.193 68.7315 61.6108 68.2705 61.7396C63.5053 63.1643 58.5225 61.2065 55.365 59.4365C57.7022 63.4365 58.809 67.8269 58.6747 73.0294C60.9502 73.5103 62.5797 75.3815 62.5216 77.6313C62.4889 78.8967 62.0026 80.0098 61.0626 80.9704C60.1262 81.7905 58.8923 82.3214 57.5204 82.286C56.1486 82.2506 54.9401 81.7972 53.8949 80.926C53.0021 80.0588 52.4214 78.9181 52.4541 77.6527C52.4868 76.3872 52.9731 75.2741 53.9131 74.3135C54.697 73.4895 55.9274 73.0992 56.998 72.9861C57.2268 64.1278 53.5867 57.4207 46.2449 52.3065C47.526 55.8572 48.3461 59.5366 48.4041 63.1964C50.0699 63.6615 51.2567 64.9585 51.2131 66.6458C51.1877 67.6301 50.861 68.4658 50.0807 69.1492C49.3004 69.8326 48.3786 70.0902 47.4604 70.2072C46.3934 70.1796 45.4861 69.8747 44.7421 69.152C43.9982 68.4293 43.5627 67.5738 43.5844 66.7302C43.6099 65.7459 43.9365 64.9101 44.7168 64.2268C45.3411 63.6801 45.958 63.4146 46.7238 63.2937C46.6767 59.2121 45.5735 54.6811 43.6936 50.6929C41.8173 46.5641 39.1572 43.2592 36.1631 41.0713C31.1657 39.676 26.1755 37.9993 21.3378 36.3267L21.1853 36.3227C18.9171 35.5606 16.8049 34.6618 14.5403 33.7591C12.5769 33.0049 10.7695 32.1141 8.80975 31.2192C10.1344 33.0826 11.2993 35.2232 11.9997 37.6332C13.9522 44.7188 12.3733 52.698 7.95644 58.3528L7.8004 58.4895C7.8004 58.4895 7.64796 58.4855 7.64433 58.6261C7.64433 58.6261 7.64434 58.6261 7.49191 58.6222C7.49191 58.6222 7.49191 58.6222 7.33948 58.6183L7.18704 58.6143C7.18704 58.6143 7.18706 58.6143 7.03463 58.6104C7.03463 58.6104 6.88219 58.6064 6.88582 58.4658C0.462172 53.2346 -3.15241 45.5433 -3.10147 37.6653C-3.02158 34.5719 -2.30293 30.3694 0.535184 26.7844C-12.0944 19.7045 -22.0855 10.8636 -28.5454 1.12901C-28.843 0.839915 -28.6761 0.281448 -28.2151 0.15265C-28.0627 0.156586 -27.9067 0.019899 -27.9067 0.019899C-27.6018 0.0277725 -27.3006 0.176224 -27.1518 0.320769C-18.6378 13.2039 -3.67832 24.5651 15.1899 32.2282C17.1533 32.9825 19.1167 33.7367 20.9277 34.487C24.7349 22.907 33.8952 16.6712 49.7985 15.1121C49.951 15.116 50.1034 15.12 50.2558 15.1239C50.2558 15.1239 50.2558 15.1239 50.4082 15.1278C50.4082 15.1278 50.5607 15.1318 50.557 15.2724C50.557 15.2724 50.557 15.2724 50.5534 15.413L50.5498 15.5536L50.5461 15.6942C50.5425 15.8348 50.5425 15.8348 50.5389 15.9754C48.6516 24.0875 43.8318 33.5308 24.7057 35.8508C34.5336 39.2001 44.6845 41.8542 54.5342 44.3599C56.3524 44.8289 58.1707 45.298 60.1413 45.771C64.2387 46.5803 68.5176 46.2687 72.9779 44.8362C78.9952 42.1776 79.8628 32.2101 77.7216 26.5267L77.5692 26.5227C75.1303 26.4597 73.1924 24.7213 73.2505 22.4715C73.305 20.3624 75.0289 18.5778 77.3189 18.4962C77.4713 18.5001 77.6238 18.5041 77.6238 18.5041C80.0626 18.5671 82.0006 20.3056 81.9425 22.5553C81.8989 24.2426 80.7956 25.6211 79.2532 26.2848C81.1113 31.1167 80.77 38.4244 77.4492 42.9818C80.6937 41.3772 83.6479 39.2023 86.3046 36.7382C85.8618 36.164 85.5751 35.4531 85.5969 34.6094C85.6441 32.7815 87.2084 31.2742 89.0411 31.1808C89.1935 31.1847 89.1935 31.1847 89.346 31.1887C90.413 31.2162 91.3203 31.5211 92.0642 32.2438C92.8082 32.9665 93.2437 33.822 93.2219 34.6656C93.1965 35.6499 92.8699 36.4857 92.0896 37.169C91.3093 37.8524 90.3874 38.11 89.4692 38.227C88.8595 38.2112 88.2535 38.0549 87.651 37.7579C83.5862 41.5926 78.6286 44.56 73.5513 46.258C71.2431 47.0426 69.0983 47.4094 66.8046 47.6315C71.802 49.0269 76.7994 50.4223 81.6372 52.095C82.8457 52.5483 84.2103 52.8649 85.4188 53.3183C88.8956 54.5337 92.2199 55.7451 95.2358 57.0894C95.9145 54.4335 99.1555 47.06 112.174 45.0043C114.318 44.6376 116.307 44.4075 118.14 44.3142C132.962 43.2899 136.794 48.4542 136.939 48.7394C136.939 48.7394 136.939 48.7394 136.936 48.88C136.936 48.88 136.936 48.88 136.932 49.0206L136.928 49.1612C136.925 49.3018 136.925 49.3018 136.769 49.4385C136.769 49.4385 136.765 49.5791 136.613 49.5752C128.498 56.6821 113.444 60.7958 101.572 59.7857C105.191 61.4268 108.501 63.2008 111.654 65.1114C111.654 65.1114 111.654 65.1114 111.807 65.1153C113.908 66.4359 116.009 67.7565 117.958 69.0731C122.749 72.5737 128.519 73.567 132.631 73.8139C135.524 74.0293 138.427 73.8228 141.174 73.7531C141.784 73.7688 142.397 73.644 143.159 73.6637C145.446 73.7227 148.828 72.6845 150.853 71.0483C151.187 69.9313 150.578 64.0061 147.348 59.1388C146.324 57.4239 145.319 55.006 146.125 53.3384C146.448 52.6432 147.232 51.8192 148.767 51.4368C148.919 51.4407 149.072 51.4447 149.228 51.308C150.451 51.1989 151.503 51.7889 152.244 52.6522C152.247 52.5116 152.403 52.3749 152.556 52.3789C153.343 51.4143 154.726 51.0279 156.098 51.0633C157.314 51.2354 158.366 51.8254 159.252 52.9739C159.989 53.9778 160.257 55.3918 160.38 56.5206C161.153 56.1185 162.075 55.8609 162.837 55.8806C164.213 55.7754 165.418 56.3693 165.998 57.5099C167.167 59.5099 166.027 62.2946 164.608 64.0871C163.186 66.0201 157.698 71.7879 151.431 72.3296C150.806 72.8762 150.033 73.2784 149.108 73.6766C152.915 73.9156 156.101 74.5607 158.816 75.7565L158.972 75.6198C159.596 75.0731 160.522 74.6749 161.44 74.5579C161.592 74.5618 161.592 74.5618 161.745 74.5658C163.879 74.6209 165.668 76.2148 165.77 78.1873C165.744 79.1716 165.414 80.1479 164.634 80.8313C163.853 81.5147 162.928 81.9129 161.861 81.8853C159.727 81.8302 157.938 80.2363 157.836 78.2638C157.847 77.842 157.854 77.5608 158.018 77.1429C155.15 75.9432 151.659 75.2902 147.391 75.18C145.257 75.1249 142.967 75.2064 140.829 75.2919C137.93 75.3577 135.026 75.5642 131.981 75.3448C129.546 75.1412 126.657 74.7852 123.631 73.8628C126.316 76.1834 128.697 78.4961 130.769 80.9416C136.336 83.8994 142.56 85.0451 148.487 85.9017C151.677 86.4062 154.878 86.4889 157.923 86.7082C160.206 86.9079 162.645 86.9708 164.927 87.1705C171.925 87.914 176.918 89.45 180.965 92.2279C186.659 96.1739 189.414 101.732 188.524 106.634ZM109.883 92.3619C108.816 92.3343 108.032 93.1583 108.006 94.1426C107.996 94.5644 108.137 94.9902 108.583 95.4238C108.881 95.7129 109.484 96.0098 109.944 95.8811L110.097 95.885C111.015 95.768 111.795 95.0846 111.821 94.1004C111.694 93.1122 110.95 92.3895 109.883 92.3619ZM53.3651 77.8169C53.3433 78.6605 53.7788 79.516 54.3739 80.0942C54.9691 80.6724 55.8764 80.9772 56.791 81.0008C56.9434 81.0048 56.9434 81.0048 57.0958 81.0087C57.8616 80.8878 58.631 80.6262 59.2552 80.0795C59.8795 79.5329 60.2061 78.6971 60.2279 77.8534C60.2497 77.0098 59.8142 76.1543 59.219 75.5761C58.6239 74.9979 57.7165 74.6931 56.802 74.6695C55.8874 74.6459 54.962 75.0441 54.3377 75.5908C53.7099 76.2781 53.3868 76.9732 53.3651 77.8169ZM44.8039 66.7617C44.7893 67.3241 45.0833 67.7538 45.3773 68.1835C45.8237 68.6171 46.2773 68.7696 46.887 68.7853L47.0394 68.7893C47.4967 68.8011 47.9613 68.5317 48.4258 68.2622C48.894 67.8522 49.0573 67.4343 49.0718 66.8719C49.1009 65.747 48.0557 64.8758 46.8363 64.8443C46.2266 64.8286 45.762 65.098 45.2975 65.3674C44.9854 65.6407 44.8184 66.1992 44.8039 66.7617ZM10.0037 38.1445C9.30688 35.5938 8.14558 33.3126 6.66489 31.5859C5.33298 30.0038 3.68168 28.9762 1.87071 28.226C1.99753 41.0332 5.66651 52.5248 7.09273 56.3606C10.5841 51.1041 11.6766 44.2379 10.0037 38.1445ZM4.83537 55.1767C3.28214 50.3527 0.331724 40.568 0.00889924 29.4442C-1.59164 32.3576 -2.12882 35.4392 -2.19055 37.8295C-2.20154 44.1609 0.382385 50.4185 4.83537 55.1767ZM22.7931 33.1281C26.847 29.7152 35.5682 22.7646 45.4724 17.2516C33.525 19.1943 26.379 24.2158 22.7931 33.1281ZM48.2125 17.4631C37.2304 23.3704 27.2608 31.4143 23.3629 34.6905C33.9167 33.5561 44.3726 30.3086 48.2125 17.4631ZM80.1061 22.7893C80.1424 21.3832 78.7996 20.2229 77.2753 20.1835C75.751 20.1442 74.4989 21.3781 74.4626 22.7842C74.4263 24.1903 75.7691 25.3506 77.2934 25.39C78.8177 25.4294 80.0698 24.1954 80.1061 22.7893ZM89.1971 36.9537L89.3495 36.9576C89.8068 36.9694 90.2713 36.7 90.7359 36.4305C91.2041 36.0205 91.3674 35.6026 91.3819 35.0402C91.3964 34.4778 91.1025 34.0481 90.8085 33.6184C90.3621 33.1847 89.9085 33.0323 89.2988 33.0166C88.689 33.0008 88.2245 33.2702 87.76 33.5396C87.2918 33.9497 87.1284 34.3675 87.1139 34.93C87.0994 35.4924 87.3934 35.9221 87.6873 36.3518C88.1337 36.7854 88.5874 36.9379 89.1971 36.9537ZM81.5609 55.0478C78.7988 73.4085 81.2047 86.5559 82.4531 91.3721C87.1495 80.8 88.155 65.4894 81.5609 55.0478ZM80.6349 90.903C79.4046 85.3838 77.2817 73.0879 79.7027 56.1254C76.6758 61.1125 74.8176 68.0996 74.9554 74.5755C75.2529 80.7741 77.238 86.5942 80.6349 90.903ZM162.042 80.7644L162.195 80.7683C163.418 80.6592 164.358 79.6985 164.387 78.5737C164.416 77.4488 163.374 76.437 162.002 76.4016C161.393 76.3858 160.776 76.6513 160.308 77.0613C159.839 77.4713 159.672 78.0298 159.658 78.5923C159.781 79.7211 160.823 80.7329 162.042 80.7644ZM163.556 63.497C164.663 61.9779 165.483 59.7479 164.754 58.4627C164.463 57.8924 163.861 57.5954 163.099 57.5757C162.032 57.5482 160.638 58.3564 160.311 59.1922C160.148 59.6101 159.687 59.7389 159.234 59.5864C158.78 59.434 158.638 59.0083 158.646 58.727C158.972 57.8913 159.186 55.5049 158.156 54.0712C157.568 53.2118 156.965 52.9148 156.207 52.7545C155.292 52.7309 154.523 52.9925 154.051 53.5431C153.735 53.9571 153.572 54.3749 153.71 54.9413C153.851 55.3671 153.536 55.781 153.227 55.9138C152.766 56.0426 152.316 55.7495 152.171 55.4644C151.743 54.3277 150.712 52.8941 149.333 53.1398C148.567 53.2608 148.099 53.6708 147.78 54.2253C147.293 55.3384 147.852 57.3227 148.883 58.7563C151.376 62.6197 152.334 66.8655 152.57 69.5449C153.684 67.7446 154.058 65.0809 153.271 60.136C153.282 59.7141 153.597 59.3002 153.902 59.308C154.36 59.3199 154.657 59.609 154.802 59.8941C155.314 63.7063 155.394 66.5224 154.577 68.6118C155.365 67.6473 156.163 66.2609 156.668 64.4448C156.675 64.1635 156.987 63.8902 157.444 63.902C157.597 63.906 157.597 63.906 157.749 63.9099C158.203 64.0623 158.5 64.3514 158.337 64.7693C157.666 67.1439 156.551 68.9442 155.455 70.0416C159.313 68.3121 162.453 64.8756 163.556 63.497ZM127.887 127.58C128.468 128.721 129.364 129.448 130.271 129.753C131.331 130.061 132.71 129.816 133.795 129.14C134.88 128.465 135.82 127.504 136.764 126.403C136.924 126.125 137.228 126.133 137.533 126.141C137.838 126.149 138.136 126.438 138.129 126.719C138.807 129.973 142.556 132.462 146.225 132.134C149.742 131.803 152.878 128.507 152.809 125.269C152.816 124.988 152.976 124.711 153.284 124.578C153.593 124.445 153.898 124.453 154.046 124.598C155.85 125.629 157.806 126.665 159.777 127.138C161.446 127.462 163.889 127.385 165.293 126.155C168.727 123.148 167.75 119.605 166.321 115.91C162.746 106.672 150.04 96.6352 140.753 90.0637C149.06 99.1425 150.831 107.349 150.973 107.775C151.114 108.201 150.798 108.615 150.341 108.603C149.88 108.731 149.43 108.438 149.441 108.017C149.445 107.876 146.836 96.6931 134.75 86.2504C140.876 97.102 138.365 111.67 138.194 112.369C138.183 112.791 137.719 113.061 137.261 113.049C136.804 113.037 136.51 112.607 136.521 112.185C136.525 112.045 138.862 98.3163 133.64 87.9102C133.778 88.4766 133.916 89.0429 133.905 89.4647C134.674 95.1127 133.32 100.284 131.672 105.025C131.339 106.142 130.852 107.255 130.518 108.372C128.711 113.391 126.896 118.691 127.059 124.182C127.342 125.034 127.306 126.44 127.887 127.58ZM119.74 100.496L118.963 101.039C116.016 102.932 113.065 104.967 110.714 107.439C108.834 109.36 107.868 111.305 107.516 113.125C107.153 115.367 107.861 117.495 109.352 118.8C110.997 120.109 113.74 120.18 114.996 118.805C115.308 118.532 115.765 118.544 116.067 118.692C116.364 118.981 116.509 119.267 116.346 119.684C115.065 122.043 115.9 125.16 118.306 126.489C120.708 127.958 124.08 127.341 125.807 125.416C125.818 124.994 125.677 124.569 125.688 124.147C125.532 118.374 127.346 113.074 129.313 107.778C129.647 106.661 130.134 105.548 130.468 104.431C131.959 99.8265 133.309 94.7961 132.533 89.4293C132.536 89.2887 132.544 89.0075 132.399 88.7223C131.934 100.811 121.848 107.445 121.696 107.441C121.384 107.714 120.777 107.558 120.632 107.273C120.335 106.984 120.502 106.425 120.81 106.292C121.275 106.023 130.119 100.201 130.856 89.386C130.37 90.4991 129.731 91.6082 128.94 92.7134C126.265 95.8805 122.846 98.3248 119.74 100.496ZM112.282 46.6955C101.257 48.3806 97.9106 53.9223 96.9234 56.7109C100.945 54.5635 112.362 49.5116 126.422 48.4677C128.716 48.2456 131.154 48.3086 133.593 48.3715C131.191 46.9025 124.992 44.7725 112.282 46.6955ZM134.159 50.0746C117.098 49.2119 102.745 55.7356 97.9541 58.1445C109.034 60.2598 125.141 56.7361 134.159 50.0746ZM180.616 93.9073C176.867 91.4186 172.026 89.8865 165.486 89.1548C163.203 88.9551 160.768 88.7515 158.482 88.6925C155.285 88.4692 152.084 88.3865 148.893 87.882C145.094 87.3618 140.844 86.5485 136.757 85.3173C137.059 85.4658 137.356 85.7549 137.657 85.9034C150.287 92.9833 164.013 93.0564 164.013 93.0564C164.47 93.0682 164.768 93.3573 164.757 93.7791C164.746 94.2009 164.434 94.4743 163.976 94.4625C163.519 94.4507 154.675 94.363 144.553 90.584C153.531 97.2882 164.579 106.578 168.015 115.25C168.157 115.676 168.298 116.102 168.592 116.531C169.463 118.242 170.959 119.406 172.628 119.731C173.996 119.907 175.379 119.521 176.315 118.701C177.252 117.881 177.742 116.627 177.626 115.217C177.506 113.947 176.925 112.807 176.029 112.08C175.876 112.076 175.88 111.936 175.728 111.932C175.43 111.643 175.288 111.217 175.601 110.943C175.913 110.67 176.374 110.541 176.671 110.83C176.824 110.834 176.82 110.975 176.969 111.12C179.066 112.581 182.119 112.519 184.136 111.164C185.534 110.215 186.644 108.555 187.004 106.454C187.73 101.97 185.265 96.9821 180.616 93.9073Z" fill="#C69247"/>
</svg>
