<svg width="19" height="18" viewBox="0 0 19 18" fill="none" xmlns="http://www.w3.org/2000/svg">
<path d="M6.00264 0.201904C3.14721 0.201904 0.800781 2.45425 0.800781 5.20205V12.2064C0.800781 14.9511 3.14399 17.2066 6.00264 17.2066H13.2896C16.145 17.2066 18.4914 14.9542 18.4914 12.2064V5.20282C18.4914 2.45734 16.1482 0.201904 13.2896 0.201904H6.00264ZM6.00264 1.74778H13.2896C13.7617 1.74717 14.2293 1.8361 14.6656 2.00948C15.1018 2.18286 15.4982 2.43727 15.8321 2.75815C16.1659 3.07903 16.4306 3.46007 16.6109 3.87944C16.7913 4.2988 16.8838 4.74826 16.8832 5.20205V12.2064C16.8838 12.6602 16.7913 13.1097 16.6109 13.529C16.4306 13.9484 16.1659 14.3294 15.8321 14.6503C15.4982 14.9712 15.1018 15.2256 14.6656 15.399C14.2293 15.5724 13.7617 15.6613 13.2896 15.6607H6.00344C5.53128 15.6614 5.06361 15.5725 4.62723 15.3992C4.19085 15.2259 3.79435 14.9715 3.46044 14.6506C3.12653 14.3297 2.86178 13.9486 2.68135 13.5292C2.50093 13.1098 2.40839 12.6603 2.40902 12.2064V5.20282C2.40828 4.74896 2.50072 4.29943 2.68105 3.87997C2.86137 3.46052 3.12603 3.07939 3.45987 2.75843C3.7937 2.43746 4.19015 2.18298 4.62649 2.00955C5.06282 1.83613 5.53047 1.74717 6.00264 1.74778ZM14.3953 3.43897C14.2995 3.43856 14.2045 3.4564 14.116 3.49145C14.0274 3.52649 13.9469 3.57806 13.8792 3.64317C13.8114 3.70828 13.7578 3.78564 13.7213 3.87079C13.6848 3.95593 13.6663 4.04718 13.6667 4.13926C13.6667 4.52882 13.99 4.83954 14.3953 4.83954C14.4911 4.84005 14.5861 4.82229 14.6748 4.78729C14.7635 4.75229 14.8441 4.70074 14.9119 4.63562C14.9797 4.5705 15.0334 4.4931 15.0699 4.40791C15.1064 4.32271 15.125 4.2314 15.1246 4.13926C15.125 4.04711 15.1064 3.9558 15.0699 3.87061C15.0334 3.78541 14.9797 3.70801 14.9119 3.64289C14.8441 3.57777 14.7635 3.52622 14.6748 3.49122C14.5861 3.45622 14.4911 3.43846 14.3953 3.43897ZM9.64611 4.0666C6.99251 4.0666 4.82139 6.15354 4.82139 8.70424C4.82139 11.2549 6.99251 13.3419 9.64611 13.3419C12.2997 13.3419 14.4708 11.2549 14.4708 8.70424C14.4708 6.15354 12.2997 4.0666 9.64611 4.0666ZM9.64611 5.61248C11.4337 5.61248 12.8626 6.98599 12.8626 8.70424C12.8626 10.4225 11.4337 11.796 9.64611 11.796C7.85855 11.796 6.42963 10.4225 6.42963 8.70424C6.42963 6.98599 7.85855 5.61248 9.64611 5.61248Z" fill="#A2783A"/>
</svg>
