<svg width="238" height="207" viewBox="0 0 238 207" fill="none" xmlns="http://www.w3.org/2000/svg">
<path d="M154.354 11.3223C151.937 11.9873 149.858 13.5471 148.039 15.2751C145.934 17.3041 144.089 19.5014 142.345 21.7771C140.582 24.1087 138.901 26.5745 137.517 29.0969C135.792 32.0879 134.445 35.2696 133.117 38.3956C132.98 38.4288 132.843 38.462 132.748 38.5624C129.534 41.684 124.684 42.4777 120.425 42.6134C116.107 42.7378 111.756 42.3816 107.486 43.523C103.839 44.487 100.513 46.4016 98.615 49.5374C96.7714 52.5057 96.3957 55.9914 95.7961 59.1972C95.2328 62.2913 94.4326 65.3402 92.3834 67.9729C91.4669 67.5014 90.5323 67.0859 89.6157 66.6145C87.4865 65.6151 85.3573 64.6158 83.2281 63.6165C79.0519 61.7521 74.7802 59.988 70.4131 58.3243C58.8799 53.9291 46.8742 50.2144 34.5969 47.3372C37.1476 47.2312 39.6342 46.9351 42.152 46.3485C46.9919 45.1972 51.6707 43.1851 55.7785 40.4118C60.5052 37.2824 64.0636 33.0999 67.5217 28.8389C71.0209 24.6451 74.5744 20.2837 79.4244 17.3557C81.6857 16.0086 84.2119 15.0086 86.7939 14.6121C89.4351 14.2269 91.9775 14.5344 94.2614 15.4447C94.5988 15.5683 94.9395 15.0998 94.6202 14.9202C94.7749 14.8312 94.8293 14.6637 94.6878 14.5181C94.6467 14.451 94.5874 14.4397 94.5463 14.3725C94.6006 14.205 94.5365 14.0149 94.3176 13.9138C93.5969 13.4205 92.8944 12.8714 92.1144 12.3668C86.1712 8.38638 79.5779 5.05265 72.3722 3.02499C65.6223 1.14362 58.3143 0.400821 50.9732 1.31181C43.9645 2.16768 37.2369 4.67804 31.2315 8.45276C25.2262 12.2275 20.0385 17.1662 15.8265 22.5877C13.4728 25.5772 11.4383 28.7462 9.56345 32.0051C7.68859 35.2639 5.97336 38.6124 4.69088 41.9843C1.95267 41.6988 -0.785555 41.4132 -3.54187 41.1836C-7.83352 40.8387 -12.1614 40.6054 -16.5617 40.5955C-20.8435 40.6082 -25.1895 40.4309 -29.4928 41.0917C-30.1577 41.2019 -30.0969 41.9843 -29.5637 42.086C-24.8525 42.6889 -19.9602 42.7334 -15.2176 43.0458C-10.5936 43.3356 -5.91029 43.6367 -1.26322 44.0494C-1.31112 45.1668 -1.12206 46.3294 -0.97413 47.4248C-0.821311 48.6991 -0.627355 50.0405 -0.474518 51.3148C-0.0503808 53.8859 0.451129 56.4125 1.22579 58.8727C2.43138 62.7195 4.31993 66.4003 7.0544 69.4124C9.88924 72.503 13.5602 74.5674 17.7628 75.9626C22.0246 77.369 26.6404 78.0722 31.0883 79.0991C33.262 79.5733 35.4588 80.1705 37.542 80.9239C39.1694 81.531 40.7424 82.3056 42.2201 83.1806C42.2612 83.2477 42.2611 83.2477 42.3023 83.3149C42.6117 83.1368 42.8437 83.0032 43.0939 82.8138C43.0116 82.6795 42.9886 82.5565 42.9063 82.4222C42.7452 81.5614 42.5068 80.7451 42.2683 79.9288C41.9377 78.6207 41.5891 77.3683 41.1993 76.0488C40.502 73.5441 39.8228 70.9836 39.1255 68.4788C38.0976 64.6659 37.1652 60.7527 35.2042 57.2953C34.2533 55.5722 33.1115 54.0499 31.6604 52.7057C30.2092 51.3614 28.4897 50.2624 26.6978 49.3868C25.4028 48.7246 24.0535 48.2298 22.6269 47.7796C22.7174 47.5005 22.4937 47.2206 22.1612 47.2757C21.9654 47.2976 21.6922 47.3641 21.4783 47.4418C20.2705 47.0927 18.9853 46.7881 17.7413 46.5506C28.2942 48.15 38.7253 50.319 48.7843 53.2471C56.7831 55.5447 64.5959 58.2219 72.2227 61.2785C75.9563 62.762 79.713 64.3684 83.333 66.0081C85.2022 66.8392 87.1126 67.7375 88.9456 68.6803C89.7618 69.0733 90.6191 69.5333 91.4352 69.9263C91.2986 69.9595 91.1802 69.9369 91.0436 69.9701C82.269 71.6154 75.1755 77.9691 69.795 84.4718C69.7176 84.5163 69.6403 84.5609 69.6041 84.6725C69.5859 84.7284 69.5859 84.7284 69.5678 84.7842C69.4724 84.8846 69.4543 84.9404 69.3588 85.0408C66.1097 89.0452 63.1618 93.2849 59.8124 97.2109C58.1582 99.2075 56.4037 101.126 54.4485 102.887C52.5113 104.592 50.4738 106.219 48.354 107.712C44.1738 110.708 39.7928 113.548 35.9958 116.914C32.3898 120.08 29.2362 123.984 27.664 128.249C26.1823 132.235 25.9956 136.883 28.5802 140.163C29.8635 141.831 31.8151 142.797 34.1386 143.003C36.658 143.188 39.2943 142.624 41.8352 142.16C51.3108 140.293 60.7192 136.693 68.9858 131.572C69.1915 131.907 69.3379 132.232 69.6209 132.523C72.5856 136.765 76.9327 139.848 80.6659 143.465C83.9566 146.702 86.9937 150.721 87.2035 155.504C87.3266 157.84 86.3701 160.207 86.6297 162.509C86.8893 164.812 88.7371 166.291 91.1429 166.632C91.6168 166.722 92.0677 166.69 92.5597 166.724C92.265 167.439 91.9523 168.209 91.6576 168.924C89.4021 175.489 90.0443 182.43 92.4113 188.515C94.5908 194.208 98.4093 199.502 103.787 202.9C106.386 204.582 109.404 205.751 112.621 206.306C114.12 206.533 115.715 206.659 117.212 206.115C118.942 205.437 119.745 203.93 120.294 202.434C123.089 194.786 125.884 187.137 128.561 179.466C129.821 175.971 130.962 172.454 131.747 168.869C132.442 165.563 132.919 162.155 132.516 158.936C133.296 159.441 134.094 159.889 134.892 160.338C138.996 162.426 143.626 163.666 148.456 164.291C151.058 164.61 153.713 164.761 156.406 164.801C158.92 164.806 161.412 164.689 163.88 164.449C163.939 164.46 163.998 164.471 164.076 164.427C164.212 164.394 164.331 164.416 164.467 164.383C164.663 164.361 164.754 164.082 164.594 163.992C165.345 163.424 166.036 162.844 166.645 162.131C169.886 158.54 170.874 153.748 171.403 149.402C171.546 148.184 171.671 147.022 171.815 145.805C171.815 145.805 171.815 145.805 171.874 145.816C177.189 145.526 182.536 144.946 187.712 143.147C191.758 141.726 195.662 139.388 198.403 136.176C201.716 132.362 202.59 127.726 202.622 123.167C202.628 119.077 202.415 114.886 201.482 110.973C200.665 107.674 199.242 104.498 196.741 102.123C200.258 102.142 203.738 102.273 207.223 102.582C210.098 102.835 212.859 103.243 215.68 103.663C218.5 104.083 221.321 104.503 224.25 104.587C226.924 104.683 229.748 104.51 232.434 103.6C234.692 102.845 236.889 101.308 237.276 98.9511C237.681 96.5382 236.306 94.3784 234.94 92.5762C233.451 90.5726 231.826 88.6022 230.105 86.7321C226.622 82.9249 222.716 79.4519 218.6 76.2355C217.255 75.1486 215.872 74.1732 214.449 73.1308C214.408 73.0636 214.367 72.9965 214.248 72.9739C213.988 72.8057 213.728 72.6375 213.546 72.4248C214.147 72.1244 214.67 71.8685 215.211 71.5569C220.631 68.6189 225.451 64.618 229.232 59.9443C231.018 57.7358 232.861 54.7674 231.28 52.2719C230.54 51.0634 229.054 50.6019 227.646 50.0958C226 49.5446 224.355 48.9933 222.709 48.442C216.186 46.2483 209.622 43.9874 202.968 42.0057C196.71 40.159 190.13 38.725 183.297 38.8437C177.781 38.9765 171.975 40.0027 167.002 42.7294C169.637 37.1256 170.491 31.0037 168.744 25.3342C168.721 25.2112 168.621 25.1328 168.443 25.0989C168.374 24.73 168.323 24.3052 168.254 23.9363C167.379 19.2633 165.925 14.2425 161.224 11.8629C159.337 11.0876 156.831 10.6685 154.354 11.3223ZM26.6035 52.3926C25.5289 52.6025 24.395 52.8011 23.3204 53.011C22.1685 53.2654 21.0939 53.4753 19.9238 53.7856C19.3775 53.9184 18.7537 54.0958 18.2074 54.2287C18.0116 54.2506 17.7976 54.3283 17.6018 54.3503C15.9778 53.1509 14.3538 51.9516 12.6525 50.7967C13.1988 50.6639 13.7452 50.531 14.2915 50.3981C15.1884 50.1543 16.0853 49.9105 17.0003 49.6108C17.8972 49.367 18.7941 49.1232 19.7091 48.8235C20.137 48.668 20.606 48.5797 21.075 48.4913C23.2125 49.0772 25.3368 49.8978 27.1929 50.9635C27.7309 51.2441 28.3101 51.5918 28.8119 51.9841C28.6161 52.006 28.4022 52.0837 28.2063 52.1056C27.7966 52.2053 27.2091 52.271 26.6035 52.3926ZM34.9696 63.0609C34.2044 63.0927 33.4392 63.1245 32.6377 63.268C31.8363 63.4115 31.0349 63.5549 30.2746 63.7655C29.8648 63.8652 29.3185 63.9981 28.9317 64.2207C26.2021 61.3873 23.2224 58.7434 20.1291 56.2556C19.4858 55.7178 18.8836 55.2471 18.2221 54.7651C18.3587 54.7319 18.4953 54.6987 18.6319 54.6655C19.1782 54.5326 19.7246 54.3997 20.2709 54.2669C21.3637 54.0011 22.4564 53.7354 23.531 53.5255C24.683 53.2711 25.7576 53.0612 26.8914 52.8626C27.4197 52.7855 27.966 52.6527 28.5535 52.5869C28.8859 52.5318 29.2183 52.4767 29.5508 52.4216C30.4129 53.0605 31.257 53.7552 32.0056 54.5503C33.3021 55.9836 34.3484 57.6062 35.1035 59.3512C35.6479 60.5816 36.1743 61.8679 36.5822 63.1316C36.4045 63.0977 36.2679 63.1309 36.0902 63.097C35.7167 63.0849 35.3431 63.0729 34.9696 63.0609ZM41.2563 79.5578C40.9914 79.2108 40.7858 78.8751 40.539 78.4722C39.31 76.6368 38.063 74.8572 36.6793 73.1109C34.4188 70.1892 31.9854 67.4123 29.4384 64.7917C29.789 64.6808 30.1395 64.5698 30.4127 64.5034C31.173 64.2928 31.8971 64.1938 32.6985 64.0504C33.4818 63.9627 34.2059 63.8638 35.0122 63.8991C35.3858 63.9111 35.7593 63.9232 36.1329 63.9352C36.3879 63.9246 36.6249 63.9698 36.88 63.9592C37.6086 66.1734 38.1825 68.4767 38.7746 70.7242C39.3666 72.9716 40.036 75.1746 40.6281 77.422C40.8435 78.1153 41.059 78.8086 41.2563 79.5578ZM26.7574 77.3238C26.1125 76.0149 25.1402 74.9399 24.2632 73.7646C23.8338 73.149 23.3863 72.5893 22.9388 72.0295C22.7151 71.7496 22.4913 71.4698 22.2857 71.1341C22.0619 70.8542 21.9155 70.5298 21.5963 70.3503C21.5899 69.4004 21.6427 68.4619 21.6363 67.512C21.6762 64.6737 21.6981 61.8912 21.7381 59.0529C24.2933 61.2601 26.7712 63.5118 29.1355 65.9197C31.8832 68.6972 34.3988 71.6083 36.8009 74.6756C38.0019 76.2092 39.1848 77.7987 40.3085 79.3769C40.9205 80.2052 41.4552 81.078 42.0491 81.9621C42.031 82.018 42.0902 82.0293 42.0721 82.0851C38.7154 80.0214 34.6 78.9394 30.6672 78.0701C29.3458 77.8771 28.0425 77.6284 26.7574 77.3238ZM21.3206 76.0488C21.3798 76.0601 21.3979 76.0043 21.416 75.9484C21.5741 75.2671 21.5545 74.5519 21.5349 73.8367C21.5745 73.1327 21.5367 72.4733 21.5763 71.7694C21.5895 71.5348 21.5846 71.356 21.5978 71.1213C21.6801 71.2556 21.7805 71.3341 21.8627 71.4684C22.0865 71.7482 22.251 72.0168 22.4748 72.2967C22.9223 72.8564 23.3697 73.4161 23.758 73.9646C24.6119 75.0169 25.3522 76.2255 26.3016 77.1775C24.7021 76.8721 22.9842 76.5442 21.3206 76.0488ZM14.4556 73.5525C14.6514 73.5306 14.765 73.3744 14.8193 73.207C15.0136 72.414 14.9891 71.5199 15.0057 70.6931C15.0815 69.8775 15.0981 69.0506 15.1739 68.235C15.3256 66.6038 15.418 64.9613 15.6289 63.3415C15.7987 61.6545 16.0096 60.0346 16.2386 58.3589C16.3737 57.5546 16.4495 56.739 16.5846 55.9348C16.6159 55.6443 16.7246 55.3093 16.774 54.963C18.3799 56.2182 19.9858 57.4734 21.5143 58.7731C21.3777 58.8063 21.2822 58.9067 21.3053 59.0296C21.3427 61.8234 21.2435 64.6504 21.2035 67.4887C21.1835 68.9078 21.1816 70.2711 21.1617 71.6903C21.1813 72.4055 21.1417 73.1094 21.1613 73.8247C21.1809 74.5399 21.064 75.2883 21.2383 75.9145L21.2795 75.9816C20.0716 75.6325 18.8046 75.2721 17.6149 74.8671C16.4663 74.5293 15.4132 74.0911 14.4556 73.5525ZM3.08184 59.9385C4.44996 56.1086 5.64036 52.2448 6.84886 48.3252C8.22609 49.1217 9.5852 49.9741 10.9262 50.8822C12.5864 51.9699 14.2285 53.1134 15.8525 54.3128C15.6714 54.8711 15.6499 55.5192 15.5462 56.033C15.4111 56.8373 15.3353 57.6529 15.2002 58.4572C14.9893 60.077 14.7784 61.6969 14.6267 63.3281C14.4751 64.9592 14.3234 66.5904 14.231 68.2329C14.1552 69.0485 14.1205 69.9312 14.1039 70.7581C14.0873 71.585 13.9341 72.4451 14.0722 73.1829C14.0541 73.2388 14.1133 73.2501 14.1545 73.3172C11.5826 71.9369 9.3153 70.1997 7.54339 67.9049C5.47526 65.5536 4.08517 62.8574 3.08184 59.9385ZM0.109102 44.6671C2.20211 45.7781 4.35437 46.9004 6.35192 48.1118C5.13851 51.8526 3.90696 55.6492 2.87128 59.424C2.61468 58.6635 2.37621 57.8472 2.17888 57.0981C1.56872 54.9064 1.15441 52.6929 0.817437 50.4349C0.628381 49.2723 0.498571 48.121 0.368749 46.9697C0.326102 46.1315 0.247219 45.4049 0.109102 44.6671ZM19.6121 48.1528C18.6379 48.4412 17.741 48.685 16.8441 48.9288C15.9472 49.1726 15.0503 49.4165 14.2126 49.6716C13.5116 49.8935 12.7513 50.1041 12.1095 50.3373C10.5085 49.261 8.88941 48.2404 7.19296 47.2644C7.2654 47.0411 6.96921 46.9845 6.8145 47.0736C5.75649 46.4566 4.63924 45.8283 3.52198 45.2C4.64753 45.4148 5.83231 45.641 6.95785 45.8559C9.64174 46.3089 12.4211 46.6616 15.0869 47.1704C16.6271 47.4644 18.1081 47.7471 19.6121 48.1528ZM48.6806 2.94934C48.172 3.7416 47.7638 4.61232 47.3144 5.41589C46.7152 6.48732 46.1934 7.51421 45.5942 8.58564L39.4444 19.9812C38.4551 21.8675 37.4066 23.7425 36.4173 25.6288C35.5777 27.2473 34.679 28.8544 33.8214 30.5287C33.089 31.0411 32.2974 31.5422 31.565 32.0545C31.6638 31.3619 31.6854 30.7139 31.7842 30.0212C31.9144 29.0382 32.0264 28.1109 32.1566 27.1278C32.5916 23.6535 33.2043 20.213 33.8944 16.7281C34.26 15.0191 34.6256 13.3102 35.0504 11.6126C35.2628 10.7638 35.4753 9.91502 35.6696 9.12205C35.8277 8.44075 36.045 7.77075 36.1849 7.14528C40.1758 5.12046 44.3822 3.78895 48.6806 2.94934ZM57.3612 2.17546C56.9383 2.50975 56.5745 2.85535 56.1697 3.13381C55.4965 3.65751 54.7461 4.22573 54.0729 4.74943C52.7267 5.79683 51.4396 6.85553 50.0753 7.95876C47.674 9.93128 45.3732 11.9823 43.1315 14.0445C43.1677 13.9329 43.2632 13.8325 43.2994 13.7209C44.2887 11.8345 45.3373 9.95955 46.3266 8.07325C46.8303 7.10218 47.3159 6.18695 47.8789 5.22719C48.3101 4.47945 48.7595 3.67588 49.0723 2.90553C50.6159 2.60728 52.1825 2.43201 53.7903 2.32388C55.0245 2.20373 56.2225 2.19525 57.3612 2.17546ZM61.2744 2.32954C59.7173 4.9968 58.1601 7.66405 56.6622 10.3426L54.3017 14.5167C53.5709 15.8001 52.7808 17.0723 52.1684 18.3783C48.4375 20.5713 44.8118 23.0216 41.2454 25.4832C39.0483 27.0204 36.792 28.5463 34.5356 30.0721C35.5117 28.4205 36.3693 26.7462 37.3043 25.0274C39.2105 21.4781 41.1167 17.9288 43.0229 14.3795C45.4603 12.2954 48.0163 10.2338 50.513 8.1609C51.8773 7.05766 53.2236 6.01027 54.588 4.90704C55.2611 4.38334 55.8569 3.90417 56.53 3.38047C57.1077 2.95713 57.7446 2.54509 58.263 2.11044C59.2471 2.1797 60.2311 2.24897 61.2744 2.32954ZM85.1408 10.2055C82.1788 9.64014 79.0127 9.51009 75.9156 9.74897C69.7627 10.2939 63.672 12.3922 58.1292 15.1287C56.4045 15.9853 54.7983 16.8645 53.1147 17.7882C53.7369 16.8397 54.2587 15.8128 54.8217 14.8531C55.648 13.4693 56.4332 12.0183 57.2595 10.6345C58.8529 7.85559 60.4281 5.1325 62.0215 2.35357C66.4135 2.77692 70.7018 3.71406 74.7267 5.07526C78.9885 6.48169 82.9689 8.368 86.7221 10.5667C86.2071 10.4091 85.6739 10.3073 85.1408 10.2055ZM75.6411 18.3529C75.1128 18.4299 74.5072 18.5515 73.979 18.6285C72.9225 18.7826 71.8479 18.9925 70.7914 19.1466C66.939 19.7749 63.0816 20.2244 59.2243 20.6738C55.6401 21.0569 52.0922 21.3283 48.5262 21.6555C52.0975 19.3727 55.751 17.2242 59.6695 15.4227C65.2945 12.8205 71.3539 11.0126 77.4163 10.7469C80.4771 10.6197 83.5889 10.9172 86.4372 11.6388C88.5929 12.1689 90.5033 13.0672 92.3363 14.01C92.3363 14.01 92.3363 14.01 92.3956 14.0213C87.8654 12.8601 82.4298 14.4905 78.3944 17.0405C77.9122 17.3635 77.43 17.6864 76.9477 18.0094C76.4606 18.1536 76.0508 18.2532 75.6411 18.3529ZM63.6711 28.1039C62.7282 28.1017 61.7079 28.1441 60.765 28.142C57.3076 28.1343 53.8865 28.0148 50.4423 27.7724C48.7111 27.6791 46.9389 27.5187 45.2439 27.3137C44.3965 27.2112 43.6082 27.12 42.7608 27.0176C42.091 26.949 41.4394 26.8246 40.8289 26.7674C41.4839 26.2995 42.1982 25.843 42.9306 25.3306C44.6273 24.1722 46.306 23.0697 47.9847 21.9672C50.0845 21.8937 52.1613 21.6972 54.2199 21.5566C58.1003 21.2301 62.0168 20.7919 65.8923 20.2865C67.8687 20.0116 69.8451 19.7367 71.8215 19.4618C72.8187 19.2964 73.7387 19.1756 74.7359 19.0102C75.1276 18.9664 75.5373 18.8667 75.929 18.8229C72.4679 21.5417 69.632 24.8543 66.9327 28.1336C66.8915 28.0664 66.8323 28.0551 66.7138 28.0325C66.2399 27.942 65.7117 28.0191 65.2015 28.0403C64.6914 28.0615 64.1812 28.0827 63.6711 28.1039ZM26.3675 36.6357C26.1305 36.5904 25.9528 36.5565 25.6977 36.5671C25.7751 36.5226 25.8524 36.4781 25.9298 36.4335C30.7847 33.6843 35.411 30.4764 39.9599 27.313C40.8304 27.5384 41.8144 27.6077 42.7211 27.7215C43.6871 27.8466 44.6531 27.9717 45.6963 28.0523C49.1635 28.4176 52.6258 28.6042 56.1655 28.7463C57.9147 28.7837 59.664 28.8212 61.4314 28.8028C62.3151 28.7936 63.1987 28.7845 64.0824 28.7753C64.8476 28.7435 65.6358 28.8346 66.4372 28.6912C64.5922 30.8884 62.8064 33.097 60.7013 35.1261C58.8464 36.9658 56.8089 38.5927 54.648 40.0182C54.1839 40.2853 53.7791 40.5638 53.315 40.8309C51.3782 40.4019 49.3097 40.185 47.3367 39.8676C43.6276 39.2782 39.9004 38.7446 36.1914 38.1552C34.3368 37.8605 32.4823 37.5658 30.6871 37.2823C29.7804 37.1686 28.8918 36.9989 27.9851 36.8852C27.3927 36.7721 26.9187 36.6816 26.3675 36.6357ZM42.289 44.1809C41.2046 44.0332 40.102 43.9413 39.0768 43.8049C35.1357 43.3491 31.1946 42.8932 27.2354 42.4932C25.2854 42.2988 23.2943 42.0373 21.3443 41.843C20.3783 41.7179 19.3943 41.6486 18.3691 41.5122C17.6401 41.4324 16.87 41.2853 16.141 41.2055C19.309 39.9722 22.3717 38.4817 25.2929 36.8456C25.5759 37.1367 26.0087 37.1601 26.4826 37.2505C26.9565 37.341 27.4896 37.4428 27.9636 37.5332C28.9706 37.7255 30.055 37.8732 31.0621 38.0654C34.7531 38.7107 38.4621 39.3001 42.2123 39.9567C44.0668 40.2514 45.9214 40.5461 47.6985 40.8854C49.1384 41.1009 50.542 41.4281 52.0592 41.5992C49.8523 42.7787 47.4447 43.8014 45.0091 44.5223C44.1205 44.3526 43.1957 44.2947 42.289 44.1809ZM10.8058 42.9144C12.3082 42.549 13.8651 42.0161 15.3626 41.4719L15.4219 41.4832C16.5474 41.6981 17.7273 41.7454 18.8298 41.8373C19.9324 41.9292 21.0168 42.0769 22.0601 42.1575C26.0012 42.6133 29.9604 43.0134 33.9015 43.4692C35.8515 43.6636 37.8426 43.9251 39.7926 44.1194C40.7586 44.2445 41.7426 44.3138 42.7678 44.4502C43.319 44.4961 43.793 44.5866 44.3443 44.6325C43.2334 44.9541 42.0634 45.2643 40.9295 45.4629C38.5071 45.9492 36.0206 46.2453 33.5653 46.251C32.3673 46.2594 31.1282 46.2008 29.9072 46.0863C29.2375 46.0177 28.627 45.9605 27.9754 45.8361C26.0386 45.4071 24.0837 45.0339 22.188 44.6721C18.3605 44.06 14.5922 43.4593 10.8058 42.9144ZM5.60248 42.2769C5.9564 41.5737 6.29222 40.9263 6.64614 40.2231C9.98119 33.6263 13.6536 27.1533 18.5798 21.2752C22.8789 16.1669 28.0583 11.6416 33.9962 8.26901C34.3829 8.04639 34.8289 7.83507 35.293 7.56792C35.13 8.07042 35.0081 8.64005 34.9044 9.15385C34.6557 10.1143 34.389 11.1306 34.1996 12.1024C33.391 15.5647 32.7009 19.0497 32.1293 22.5573C31.8822 24.2888 31.5577 26.0649 31.3699 27.8077C31.2759 28.6791 31.182 29.5505 31.088 30.422C30.9892 31.1146 30.9677 31.7627 30.9462 32.4107C28.7261 33.8249 26.524 35.1833 24.2217 36.4632C21.4733 37.9545 18.6426 39.3114 15.7478 40.4782C13.513 41.356 11.2321 41.9878 8.9512 42.6197C7.78943 42.5165 6.68689 42.4246 5.60248 42.2769ZM161.961 13.6637C160.311 15.068 158.518 16.3267 156.909 17.7982C155.258 19.2025 153.707 20.6852 152.198 22.2351C149.448 25.0897 146.898 28.1011 144.609 31.2808C142.206 34.6166 140.24 38.1546 138.115 41.6028C136.086 44.9506 133.837 48.1974 130.969 51.0294C129.668 52.3227 128.227 53.4704 126.703 54.4839C126.125 54.9073 125.506 55.2635 124.906 55.5638C125.561 55.096 126.216 54.6281 126.83 54.0931C128.462 52.7446 129.971 51.1947 131.303 49.6109C136.897 43.0304 139.825 35.17 144.047 27.9718C147.706 21.7333 152.8 15.5316 160.087 12.6538C160.703 12.8898 161.282 13.2375 161.802 13.574C161.861 13.5853 161.902 13.6524 161.961 13.6637ZM127.177 54.5744C128.814 53.4047 130.31 52.0895 131.647 50.6845C134.397 47.8299 136.545 44.5047 138.556 41.2127C139.646 39.4048 140.677 37.5856 141.825 35.7891C142.956 34.0484 144.069 32.3635 145.3 30.7012C147.649 27.5329 150.258 24.5327 153.067 21.6895C154.54 20.2513 155.995 18.8689 157.569 17.5091L157.646 17.4646C156.023 19.1707 154.56 20.9665 153.256 22.8521C148.555 29.781 145.108 37.3051 139.97 44.0319C137.771 46.9324 135.134 49.6307 132.15 51.8478C130.244 53.2627 128.251 54.3645 126.076 55.2536C126.522 55.0423 126.849 54.8083 127.177 54.5744ZM162.473 14.4136C159.556 18.3629 157.515 22.7164 155.61 27.0368C152.282 34.5834 149.123 42.5774 142.347 48.3395C139.391 50.8583 135.969 52.8733 132.296 54.3065C130.43 55.0175 128.559 55.5497 126.605 55.9476C125.804 56.0911 125.062 56.2458 124.278 56.3335C124.433 56.2444 124.57 56.2112 124.665 56.1108C127.683 55.1454 130.605 53.5093 133.065 51.5481C139.624 46.456 143.714 39.4698 147.614 32.6844C149.656 29.1019 151.781 25.6537 154.38 22.2959C156.693 19.2392 159.366 16.4292 162.522 14.0673C162.563 14.1344 162.682 14.157 162.723 14.2242C162.646 14.2687 162.568 14.3132 162.473 14.4136ZM167.63 26.248C167.348 26.7279 167.144 27.1633 166.863 27.6432C163.808 32.989 160.356 38.1998 156.042 42.7718C152.224 46.7861 147.625 50.2958 142.465 52.6308C137.75 54.7546 132.686 55.626 127.654 56.207C129.684 55.7646 131.728 55.0875 133.631 54.2648C137.281 52.7086 140.661 50.6265 143.535 47.9734C146.677 45.075 149.116 41.6275 151.1 38.0337C155.289 30.3549 157.65 21.9121 162.993 14.75C163.011 14.6942 163.029 14.6383 163.047 14.5825C166.173 17.5508 166.966 22.0895 167.63 26.248ZM168.2 29.1436C167.474 34.8746 164.702 40.5116 160.648 45.2517C156.785 49.7912 151.699 53.445 146.111 55.9356C140.444 58.4707 134.37 59.7421 128.367 60.0192C121.735 60.2948 115.097 59.6205 108.441 61.1365C105.24 61.8892 101.935 63.1557 99.2196 65.1275C102.253 62.5641 106.112 60.7513 109.973 59.7096C113.014 58.8672 116.124 58.3936 119.198 58.0318L119.258 58.0431C122.272 57.6699 125.292 57.4756 128.248 57.0911C134.2 56.3893 140.078 55.1398 145.42 52.2464C150.471 49.4752 154.827 45.7415 158.463 41.5145C162.29 37.0867 165.378 32.2215 168.169 27.2997C168.234 27.4898 168.239 27.6686 168.243 27.8474C168.253 28.205 168.227 28.6743 168.2 29.1436ZM230.079 52.8726C224.166 52.8705 218.371 52.1199 212.629 51.2019C203.179 49.6944 193.851 47.6172 184.053 47.7628C175.785 47.8448 167.225 49.4124 159.858 53.6981C159.603 53.7087 159.389 53.7864 159.134 53.797C159.671 53.3065 160.207 52.816 160.703 52.2584C163.167 49.7049 165.229 46.8377 166.776 43.8128C167.377 43.5124 167.978 43.2121 168.619 42.9788C174.035 40.6332 179.787 39.7745 185.509 39.9773C192.155 40.2381 198.467 41.9173 204.571 43.8531C210.893 45.89 217.178 48.0385 223.423 50.1199C224.95 50.6485 226.495 51.1213 228.022 51.65C228.815 51.9199 229.572 52.3016 230.079 52.8726ZM229.283 58.2347C225.977 58.7301 222.63 59.1584 219.337 59.4192C213.357 59.8192 207.463 59.7613 201.613 59.1782C198.678 58.9146 195.799 58.4835 192.878 57.9852C190.135 57.5209 187.423 56.7661 184.698 56.2459C177.04 53.4797 168.537 52.1531 159.995 53.6648C164.076 51.3608 168.651 49.8625 173.187 49.0682C182.08 47.4455 191.018 48.2031 199.58 49.541C209.7 51.1171 219.644 53.4302 230.099 53.5879C230.276 53.6218 230.372 53.5214 230.467 53.4211C230.591 53.6225 230.637 53.8684 230.683 54.1144C230.977 55.5342 230.328 56.952 229.443 58.3245C229.402 58.2573 229.343 58.246 229.283 58.2347ZM222.992 62.3105C216.601 64.9446 209.798 66.1361 203.147 65.6965C199.229 63.2293 195.275 60.8737 191.017 58.875C189.982 58.381 188.929 57.9428 187.875 57.5046C189.812 57.9336 191.767 58.3068 193.681 58.6128C205.068 60.5493 217.035 60.6991 228.852 58.9825C228.643 59.239 228.452 59.4397 228.32 59.6517C226.601 60.6871 224.817 61.5324 222.992 62.3105ZM223.737 63.6979C219.343 66.7722 214.113 68.7384 208.807 69.3857C207.767 68.7129 206.745 67.9843 205.646 67.3001C205.026 66.8853 204.387 66.5262 203.767 66.1114C205.243 66.2153 206.737 66.2633 208.268 66.1997C214.585 65.9234 220.923 64.2279 226.698 61.3578C225.756 62.1268 224.797 62.9515 223.737 63.6979ZM212.67 72.0205C211.589 71.2805 210.508 70.5406 209.368 69.7893C210.347 69.6797 211.267 69.5589 212.205 69.3822C215.174 68.7631 218.032 67.7079 220.745 66.3284C221.809 65.7608 222.833 65.1262 223.797 64.4802C220.501 67.4676 216.78 70.0183 212.748 71.976C212.766 71.9201 212.689 71.9647 212.67 72.0205ZM210.265 71.6798C204.968 69.7794 199.485 68.2585 193.935 67.1397C187.614 65.8739 181.131 65.1106 174.621 64.8166C168.17 64.5339 161.597 64.8208 155.035 65.4654C148.609 66.0767 142.151 66.9785 135.689 67.7015C132.437 68.0294 129.185 68.3573 125.988 68.5178C125.027 68.5715 124.007 68.6139 123.064 68.6118C123.023 68.5446 122.963 68.5333 122.845 68.5107C122.863 68.4549 122.881 68.399 122.899 68.3432C126.287 67.9821 129.671 67.4421 133.008 66.6562C141.892 64.6759 150.708 60.9634 157.656 55.0564C157.715 55.0677 157.834 55.0903 157.971 55.0571C159.336 54.725 160.666 54.5045 162.055 54.2953C173.722 52.8464 184.726 56.5477 194.156 61.6087C198.661 64.0102 202.999 66.7354 207.259 69.5052C207.163 69.6055 207.168 69.7843 207.364 69.7624C207.482 69.7851 207.56 69.7405 207.678 69.7631C207.838 69.8529 207.997 69.9427 208.157 70.0324C208.764 70.6819 209.544 71.1865 210.265 71.6798ZM236.073 96.6464C235.731 96.3439 235.311 96.0859 234.969 95.7834C229.034 91.3896 222.359 87.9216 215.27 85.1455C207.785 82.2344 199.909 80.1382 191.925 78.3769C183.763 76.5818 175.534 75.1888 167.263 73.7287C159.171 72.3024 151.042 70.9879 142.731 70.2317C138.636 69.8648 134.522 69.5539 130.395 69.4775C127.898 69.4161 125.443 69.4217 122.952 69.539C122.715 69.4938 122.496 69.3927 122.259 69.3475C122.455 69.3256 122.573 69.3482 122.769 69.3263C127.816 69.2818 132.871 68.8238 137.886 68.2987C144.348 67.5757 150.805 66.6739 157.213 66.1184C163.758 65.5297 170.258 65.4661 176.732 65.8718C183.205 66.2775 189.575 67.1969 195.8 68.5631C201.966 69.9179 207.91 71.7639 213.649 74.0453C215.994 75.738 218.279 77.4193 220.451 79.2569C224.43 82.5065 228.14 86.0014 231.409 89.8863C232.24 90.8157 232.994 91.7896 233.747 92.7635C234.441 93.7261 235.154 94.6329 235.675 95.7403C235.84 96.0089 235.986 96.3333 236.073 96.6464ZM199.687 101.381C199.303 101.011 198.879 100.574 198.418 100.249C194.216 96.7198 189.596 93.7034 184.671 91.044C179.728 88.4403 174.599 86.2162 169.279 84.1927C163.9 82.158 158.449 80.3466 152.902 78.6356C147.017 76.8009 141.037 75.0665 135.135 73.2876C131.411 72.1618 127.747 71.0472 124.023 69.9214C131.306 69.7701 138.527 70.1998 145.698 70.9759C153.836 71.877 161.905 73.1802 169.921 74.651C178.251 76.1224 186.58 77.5939 194.765 79.512C202.595 81.3623 210.279 83.6592 217.514 86.7597C224.312 89.6581 230.755 93.2596 236.34 97.7644C236.391 98.1892 236.382 98.6027 236.315 99.0048C236.148 100.1 235.408 101.025 234.484 101.738C232.365 103.231 229.546 103.582 227.114 103.711C224.29 103.883 221.551 103.598 218.831 103.257C216.052 102.904 213.25 102.428 210.47 102.076C207.614 101.767 204.739 101.515 201.887 101.386C201.122 101.418 200.375 101.394 199.687 101.381ZM113.626 69.004C113.685 69.0153 113.822 68.9821 113.881 68.9934C115.303 69.2648 116.707 69.592 118.092 69.9751C118.015 70.0196 118.056 70.0867 118.115 70.0981C118.234 70.1207 118.37 70.0875 118.429 70.0988C122.468 71.2253 126.361 72.7985 130.017 74.3265C138.82 78.0228 147.275 82.6011 154.256 88.6177C157.696 91.5867 160.814 94.9685 163.331 98.6506C165.83 102.389 167.711 106.483 169.026 110.766C171.534 119.13 171.976 128.048 171.551 136.92C171.072 136.651 170.653 136.393 170.233 136.135C163.953 132.031 162.098 124.562 160.499 117.854C159.659 114.432 158.759 111 157.432 107.722C156.169 104.635 154.673 101.682 152.946 98.862C149.432 93.2108 144.912 88.1385 139.611 83.9249C133.766 79.2519 126.89 75.6269 119.497 73.2077C112.678 70.9575 105.319 69.7899 97.8711 69.6726C98.0851 69.5948 98.299 69.5171 98.513 69.4394C101.008 68.7298 103.512 68.3778 105.986 68.3163C106.027 68.3835 106.068 68.4506 106.205 68.4174C106.774 68.4075 107.284 68.3863 107.872 68.3206C109.739 68.3807 111.571 68.5524 113.407 68.903C113.389 68.9588 113.508 68.9814 113.626 69.004ZM184.597 101.939C181.345 102.267 178.057 102.707 174.833 103.336C174.715 103.314 174.596 103.291 174.46 103.324C174.4 103.313 174.323 103.358 174.364 103.425C172.411 103.823 170.517 104.232 168.646 104.764C168.586 104.753 168.527 104.741 168.468 104.73C168.29 104.696 168.195 104.797 168.158 104.908C168.081 104.953 167.944 104.986 167.885 104.975C166.398 101.608 164.524 98.4634 162.205 95.5304C159.414 91.9146 156.046 88.7223 152.333 85.8197C144.787 79.9918 136.023 75.5916 126.869 72.0063C126.195 71.7589 125.52 71.5116 124.845 71.2642C128.865 72.4466 132.903 73.5731 136.923 74.7555C142.726 76.456 148.528 78.1564 154.312 79.9127C159.859 81.6237 165.328 83.3793 170.689 85.4698C176.009 87.4933 181.161 89.8404 186.008 92.5444C188.403 93.8907 190.719 95.2816 192.982 96.84C195.085 98.3086 197.015 99.9221 199.04 101.435C194.302 101.302 189.474 101.447 184.597 101.939ZM201.213 115.487C199.981 114.244 198.653 113.101 197.248 112.003C194.118 109.626 190.548 107.64 186.737 106.202C184.772 105.471 182.771 104.852 180.752 104.288C179.822 104.052 178.893 103.815 177.868 103.678C183.696 102.775 189.517 102.285 195.311 102.265C195.352 102.332 195.352 102.332 195.411 102.343C198.533 105.133 200.13 108.936 200.848 112.927C200.95 113.776 201.111 114.637 201.213 115.487ZM201.697 123.109C199.822 121.328 197.851 119.647 195.725 118.056C191.792 115.052 187.537 112.461 182.996 110.171C180.725 109.026 178.359 107.982 175.879 107.093C174.708 106.633 173.459 106.216 172.21 105.8C171.476 105.541 170.665 105.327 169.931 105.069C170.536 104.947 171.065 104.87 171.67 104.748C173.291 104.406 174.953 104.13 176.615 103.854C178.233 104.104 179.91 104.365 181.491 104.726C185.483 105.606 189.263 107.336 192.619 109.4C195.876 111.385 198.768 113.716 201.22 116.437C201.257 117.096 201.354 117.767 201.41 118.37C201.573 120.002 201.694 121.567 201.697 123.109ZM198.11 135.527C196.046 133.355 193.888 131.283 191.747 129.155C183.975 121.505 176.22 113.799 168.37 106.194C168.265 105.936 168.201 105.746 168.096 105.489C168.369 105.423 168.642 105.356 168.956 105.357C170.087 105.751 171.254 106.033 172.384 106.426C173.751 106.865 175.101 107.36 176.391 107.843C185.941 111.564 194.497 116.991 201.462 123.835C201.503 123.902 201.562 123.913 201.622 123.925C201.631 124.282 201.641 124.64 201.592 124.986C201.519 127.344 201.191 129.712 200.212 131.956C199.736 133.229 198.982 134.389 198.11 135.527ZM189.053 141.921C188.93 141.72 188.729 141.563 188.528 141.406C188.186 141.103 187.844 140.801 187.501 140.499C186.817 139.894 186.055 139.333 185.371 138.728C183.984 137.574 182.519 136.464 181.114 135.366C178.345 133.237 175.48 131.208 172.634 129.123C172.451 121.736 171.502 114.381 168.997 107.558C170.814 109.328 172.689 111.109 174.488 112.935C178.463 116.777 182.379 120.607 186.354 124.449C190.229 128.212 194.008 132.076 197.996 135.683C197.596 136.141 197.196 136.598 196.737 137.044C194.555 139.118 191.889 140.743 189.053 141.921ZM171.9 145.347C172.164 142.788 172.291 140.263 172.418 137.738C172.555 137.705 172.609 137.537 172.45 137.447C172.45 137.447 172.45 137.447 172.39 137.436C172.43 136.732 172.488 135.973 172.468 135.257C172.556 133.436 172.566 131.659 172.535 129.815C175.317 131.71 178.004 133.705 180.673 135.756C182.137 136.866 183.543 137.964 184.93 139.118C185.632 139.667 186.376 140.284 187.06 140.889C187.403 141.191 187.745 141.494 188.105 141.74C188.265 141.83 188.406 141.976 188.566 142.065C187.478 142.51 186.349 142.887 185.238 143.209C180.932 144.462 176.404 144.843 171.9 145.347ZM139.276 161.175C138.993 160.884 138.71 160.593 138.427 160.301C133.825 155.095 131.966 148.218 130.742 141.522C130.051 137.833 129.574 134.066 128.747 130.41C128.09 127.201 127.218 124.07 126.192 121.028C124.116 114.822 121.303 108.949 117.812 103.42C114.339 97.8364 110.17 92.6531 105.387 88.0049C101.996 84.6895 98.0668 81.0936 96.2359 76.6531C96.3495 76.4969 96.422 76.2736 96.2805 76.128C96.1801 76.0496 96.0797 75.9711 95.9612 75.9485C95.6865 75.2439 95.5073 74.4389 95.3692 73.701C95.3956 73.2317 95.4401 72.7066 95.4846 72.1815C95.9684 72.6296 96.3747 73.1222 96.8585 73.5703C102.997 79.6631 109.863 85.0648 116.384 90.7563C122.302 95.977 128.053 101.521 132.375 107.979C134.444 111.101 136.246 114.469 137.482 118.025C138.866 121.906 139.507 125.942 140.13 130.033C140.73 134.001 141.33 137.97 142.69 141.728C143.881 145.038 145.518 148.137 147.541 151.013C151.342 156.364 156.54 161.091 162.731 164.111C161.966 164.143 161.16 164.107 160.395 164.139C155.111 164.138 149.822 163.959 144.805 162.942C143.022 162.424 141.122 161.883 139.276 161.175ZM132.641 157.774C129.257 155.409 126.618 152.296 124.907 148.649C123.237 145.07 122.287 141.212 121.668 137.3C121.451 135.835 121.294 134.382 121.136 132.929C121.154 132.873 121.172 132.818 121.19 132.762C121.227 132.65 121.185 132.583 121.144 132.516C120.407 125.675 120.12 118.802 117.998 112.349C117.957 112.282 117.975 112.226 117.934 112.159C117.988 111.992 117.924 111.802 117.764 111.712C116.404 107.954 114.348 104.597 111.845 101.451C109.219 98.1043 106.23 95.1027 103.509 91.8559C100.239 87.9709 97.2469 83.4273 96.0481 78.396C98.3298 82.8039 102.491 86.2663 106.005 89.7831C110.752 94.543 114.826 99.8266 118.262 105.522C121.64 111.207 124.398 117.247 126.301 123.599C127.315 126.875 128.096 130.285 128.758 133.673C129.431 137.418 130.026 141.207 130.853 144.863C132.149 150.565 134.233 156.359 138.223 160.737C136.217 159.939 134.324 158.985 132.641 157.774ZM115.127 146.605C115.756 144.472 115.36 142.202 114.796 140.257C113.594 135.818 110.871 131.8 110.916 127.006C110.98 122.156 113.941 117.682 116.852 113.554C117.15 114.381 117.371 115.253 117.532 116.114C118.974 122.141 119.187 128.466 119.946 134.659C119.824 135.228 119.643 135.787 119.462 136.345C119.213 137.305 118.828 138.299 118.52 139.248C118.443 139.293 118.407 139.404 118.388 139.46C118.28 139.795 118.153 140.186 118.044 140.521C117.238 142.62 116.271 144.629 115.127 146.605ZM109.908 153.968C111.409 150.698 111.27 147.054 110.435 143.812C108.654 136.89 103.504 131.046 103.749 123.503C103.836 121.682 104.238 119.861 105.054 118.12C105.817 116.546 106.957 115.163 108.098 113.78C110.188 111.214 112.379 108.727 113.12 105.667C114.554 107.838 115.68 110.188 116.514 112.659C114.869 115.013 113.343 117.39 112.096 119.879C110.961 122.212 110.206 124.736 110.156 127.217C110.16 129.53 110.812 131.788 111.636 133.902C112.501 136.083 113.503 138.231 114.154 140.49C114.48 141.619 114.669 142.782 114.721 143.978C114.774 145.174 114.63 146.391 114.428 147.598C113.211 149.796 111.639 151.927 109.908 153.968ZM109.031 154.927C106.781 157.403 104.289 159.655 101.555 161.682C99.8223 162.952 97.8754 164.3 95.7771 165.145C95.9499 165 96.1046 164.911 96.2774 164.766C98.7741 162.693 100.089 159.802 100.598 156.875C101.121 153.714 100.563 150.584 99.2686 147.787C97.8276 144.666 95.7085 141.89 93.5532 139.226C91.3568 136.494 89.2196 133.774 87.3919 130.875C83.7544 125.023 81.427 118.235 82.5061 111.029C83.59 104.003 87.2937 97.2392 90.3737 90.653C92.1154 86.8352 93.7929 82.8272 94.7052 78.8511C96.1062 84.8104 100.02 90.0043 104.015 94.5614C106.873 97.7749 109.867 100.955 112.32 104.447C112.403 104.582 112.544 104.727 112.626 104.861C112.549 104.906 112.531 104.962 112.513 105.018C112.242 108.761 108.732 111.826 106.437 114.827C105.356 116.221 104.434 117.705 103.85 119.313C103.247 120.977 103.077 122.664 103.103 124.329C103.202 127.905 104.511 131.238 105.993 134.426C107.516 137.681 109.235 140.915 110.04 144.448C110.903 147.992 110.805 151.59 109.031 154.927ZM109.056 204.499C108.7 202.296 108.523 200.128 108.696 197.849C108.846 195.447 109.293 193.101 109.917 190.789C112.318 181.642 117.17 173.082 119.452 163.913C121.577 155.425 121.887 146.709 120.5 138.381C120.518 138.325 120.554 138.214 120.572 138.158C120.738 139.197 120.923 140.181 121.166 141.176C122.039 145.078 123.34 148.825 125.533 152.148C127.173 154.655 129.355 156.85 131.877 158.577C131.879 159.348 131.881 160.119 131.882 160.89C131.847 161.773 131.753 162.644 131.659 163.516C131.566 164.387 131.472 165.259 131.318 166.119C131.012 167.839 130.646 169.548 130.222 171.245C129.276 174.741 128.112 178.136 126.871 181.575C125.557 185.237 124.225 188.955 122.912 192.617C122.237 194.504 121.58 196.336 120.905 198.223C120.538 199.16 120.23 200.11 119.881 200.992C119.609 201.829 119.337 202.667 118.888 203.47C118.534 204.173 118.021 204.787 117.206 205.165C116.546 205.454 115.804 205.609 115.057 205.585C113.485 205.581 111.945 205.287 110.5 204.893C110.026 204.802 109.571 204.656 109.056 204.499ZM99.6734 198.32C98.7047 194.519 99.2978 190.363 100.666 186.533C103.624 178.382 109.997 171.535 113.968 163.755C117.416 157.002 119.493 149.632 119.374 142.435C119.482 142.1 119.591 141.765 119.7 141.43C119.772 141.207 119.785 140.972 119.84 140.804C120.398 144.706 120.625 148.662 120.4 152.651C120.168 157.053 119.425 161.477 118.208 165.81C116.942 170.489 115.006 175.1 113.147 179.666C111.438 183.965 109.83 188.342 108.873 192.843C108.074 196.663 107.713 200.685 108.582 204.408C106.339 203.565 104.282 202.342 102.416 200.919C101.49 200.09 100.582 199.205 99.6734 198.32ZM92.152 184.078C93.7258 180.584 95.7965 177.303 98.2456 174.213C102.899 168.401 108.432 163.173 112.506 157.014C114.695 153.756 116.506 150.307 117.902 146.779C118.196 146.064 118.45 145.282 118.745 144.568C118.692 147.641 118.187 150.746 117.387 153.795C116.243 157.905 114.506 161.902 112.391 165.707C110.162 169.669 107.436 173.418 104.989 177.279C101.015 183.517 97.4678 190.962 99.2077 197.816C96.1491 194.446 93.9957 190.418 92.68 186.135C92.4826 185.386 92.3264 184.704 92.152 184.078ZM91.9958 183.396C91.3842 180.433 91.1823 177.371 91.5316 174.354C92.687 173.508 93.8193 172.538 94.8743 171.613C96.1794 170.498 97.4845 169.384 98.7897 168.269C103.278 164.324 107.583 160.165 111.168 155.513C113.027 153.081 114.666 150.548 116.027 147.903C116.699 146.608 117.311 145.302 117.883 143.929C117.43 145.325 116.918 146.709 116.346 148.083C114.891 151.599 113.021 155.037 110.773 158.284C108.656 161.318 106.238 164.118 103.761 166.906C101.284 169.694 98.8252 172.426 96.6081 175.383C94.7317 177.87 93.038 180.571 91.9958 183.396ZM93.6392 166.693C95.4379 166.384 97.1264 165.64 98.6915 164.693C101.107 163.257 103.359 161.552 105.392 159.747C108.366 157.172 110.938 154.284 113.191 151.216C110.635 155.412 107.44 159.248 103.885 162.839C101.762 164.924 99.5979 166.941 97.3332 168.881C95.4142 170.53 93.454 172.113 91.5943 173.773C91.904 171.461 92.5873 169.161 93.5487 166.972C93.6441 166.872 93.6804 166.76 93.6392 166.693ZM91.2187 165.816C94.6881 162.684 96.2917 158.128 96.3928 153.938C96.5719 145.434 90.4777 138.816 83.7908 134.22C79.8862 131.518 75.5998 129.217 72.2318 126.025C69.7721 123.717 67.8258 120.796 67.2817 117.432C67.4251 116.214 67.6277 115.007 67.9076 113.757C69.2316 108.317 72.0957 103.172 75.6214 98.5092C77.4615 96.1331 79.4613 93.8468 81.5614 91.6389C83.6796 89.3752 85.8983 87.19 87.898 84.9037C88.1844 84.6026 88.3934 84.346 88.6206 84.0337C88.7028 84.1679 88.8806 84.2019 88.9941 84.0457C89.7216 83.3545 90.2895 82.5735 90.9758 81.8152C91.5848 81.1014 92.1526 80.3204 92.7205 79.5395C93.0612 79.0709 93.42 78.5465 93.8019 78.145C92.8235 83.2944 90.565 88.318 88.3426 93.2298C85.3992 99.7828 82.3011 106.425 81.8639 113.397C81.4037 120.246 84.0718 126.566 87.6994 132.061C89.6045 134.914 91.8191 137.59 93.9562 140.31C96.0934 143.031 98.1943 145.863 99.4033 149.117C100.484 151.992 100.768 155.188 99.8725 158.337C99.0492 161.263 97.2551 163.885 94.4935 165.611C94.4161 165.656 94.3569 165.644 94.2795 165.689C93.2642 165.91 92.2439 165.953 91.2187 165.816ZM80.8915 142.382C81.8311 142.976 82.8117 143.638 83.7513 144.232C87.0306 146.34 90.7246 148.528 91.5385 152.418C91.9249 154.33 91.6876 156.419 91.113 158.385C90.81 159.513 90.3293 160.607 89.8305 161.757C89.386 162.739 88.9004 163.654 88.5152 164.648C88.2733 164.424 88.0496 164.144 87.9032 163.82C86.8652 161.783 87.8759 159.249 88.0902 157.037C88.2634 154.758 87.7898 152.533 86.9476 150.475C85.6432 147.321 83.3924 144.757 80.8915 142.382ZM68.5191 128.162C67.4844 125.534 67.0554 122.784 67.1134 119.89C68.0707 122.563 69.943 124.936 72.0968 126.829C75.5602 129.921 79.8828 132.11 83.7462 134.745C87.1901 137.122 90.3294 139.855 92.6228 143.258C94.9162 146.66 96.2814 150.596 95.9664 154.864C95.6646 158.898 93.9822 162.727 90.8452 165.804C90.075 165.657 89.4185 165.354 88.8163 164.883C89.5521 163.779 90.0871 162.517 90.5859 161.367C91.1209 160.106 91.5786 158.889 91.8767 157.582C92.3147 155.65 92.4154 153.594 91.9517 151.727C91.4106 149.904 90.2688 148.381 88.8587 147.104C87.2891 145.738 85.4511 144.616 83.6724 143.506C81.9941 142.474 80.3931 141.397 78.7148 140.366C74.7445 136.702 70.5242 133.229 68.5191 128.162ZM29.3258 139.416C30.7197 139.386 32.1859 139.132 33.5748 138.923C35.1003 138.681 36.5847 138.371 38.0872 138.006C43.4142 136.71 48.6623 134.688 53.5402 132.062C55.9792 130.749 58.3359 129.301 60.5512 127.708C62.5162 126.305 64.4402 124.834 66.1634 123.206C66.5151 126.001 67.3358 128.707 68.739 131.169C67.8882 131.658 67.1147 132.104 66.2638 132.593C57.7093 137.245 48.3503 140.498 38.7464 141.985C36.2418 142.337 33.5002 142.644 31.3842 141.41C30.5039 140.827 29.8375 140.166 29.3258 139.416ZM28.1595 137C28.7832 136.823 29.3477 136.634 29.9122 136.445C35.4976 134.547 40.8495 132.011 45.8312 128.871C50.7948 125.787 55.4294 122.165 59.4798 118.018C64.0306 113.491 67.6419 108.37 70.8928 103.002C74.3709 97.3219 77.4705 91.4509 81.327 85.9617C84.5795 81.365 88.37 77.0489 93.0868 73.5618C93.0506 73.6735 93.0324 73.7293 92.9962 73.841C91.2855 79.5027 86.9585 84.3093 82.699 88.7137C80.5215 90.9661 78.3259 93.2744 76.2899 95.6723C74.3313 98.0258 72.5915 100.48 71.0524 103.092C68.7052 107.031 67.0326 111.218 66.2667 115.518C66.2485 115.574 66.2304 115.63 66.2123 115.686C66.2123 115.686 66.2123 115.686 66.1942 115.742C66.0048 116.714 65.8747 117.697 65.8219 118.635C65.7196 119.92 65.754 121.172 65.8657 122.379C64.8288 123.248 63.8331 124.185 62.7962 125.054C61.6046 126.012 60.4131 126.971 59.1211 127.85C54.6495 130.969 49.7305 133.528 44.6371 135.461C42.0698 136.394 39.4203 137.193 36.7658 137.813C35.4773 138.1 34.1295 138.377 32.7998 138.597C31.5294 138.829 30.2359 138.938 28.9655 139.17C28.75 138.476 28.4161 137.76 28.1595 137ZM68.1767 88.4911C67.4557 90.1322 66.7527 91.7174 65.9906 93.2913C63.6811 97.8901 60.8565 102.331 56.7502 105.876C54.9858 107.436 53.0389 108.784 50.8863 109.796C49.8396 110.308 48.7518 110.752 47.6229 111.13C46.5713 111.462 45.5148 111.617 44.4221 111.882C47.3516 109.833 50.2629 107.839 52.9916 105.632C56.912 102.468 60.189 98.7651 63.2652 94.9055C64.9145 92.7302 66.5456 90.6106 68.1767 88.4911ZM91.2326 71.1327C86.5407 73.3795 82.5068 76.7005 79.1343 80.5035C74.8666 85.3213 71.6748 90.7004 68.4832 96.0794C65.1236 101.782 61.6455 107.462 56.8906 112.424C52.5175 116.985 47.2823 120.907 41.5716 123.967C38.9186 125.358 36.1242 126.603 33.5124 128.061C31.5013 129.219 29.4359 130.544 27.8312 132.194C28.1722 129.591 29.2604 127.012 30.7681 124.691C34.024 119.502 38.9498 115.759 43.9991 112.217C44.0402 112.284 44.0402 112.284 44.0995 112.295C45.3567 112.298 46.7407 111.91 47.9288 111.544C49.2536 111.144 50.4961 110.611 51.7156 109.954C56.1706 107.662 59.826 104.15 62.6061 100.234C65.7087 95.9056 67.8175 91.1499 69.8078 86.3716C70.6621 85.2895 71.5574 84.2746 72.4528 83.2598C77.3115 77.7839 83.8469 72.5688 91.2326 71.1327ZM93.6418 70.8811L93.701 70.8924C93.6565 71.4175 93.5709 71.8755 93.4671 72.3893C93.0622 72.6678 92.6574 72.9462 92.2344 73.2805C87.2131 77.1245 83.2645 82.1219 79.8672 87.1652C76.111 92.733 73.0114 98.6039 69.4922 104.217C66.2364 109.406 62.4836 114.381 57.9691 118.796C53.8182 122.866 49.1244 126.476 43.9831 129.526C41.4124 131.051 38.7776 132.386 36.0605 133.587C33.4208 134.743 30.7762 135.721 28.0312 136.62C27.6826 135.367 27.6071 134.049 27.7093 132.764C27.9957 132.463 28.264 132.217 28.5503 131.916C32.9381 127.892 38.9152 125.95 44.0384 122.956C49.4711 119.783 54.4101 115.805 58.5463 111.199C63.0823 106.136 66.3827 100.422 69.8015 94.7302C72.957 89.4629 76.1898 84.151 80.6221 79.6016C84.2134 75.8997 88.6208 72.5907 93.6418 70.8811ZM95.9967 70.797L98.0764 72.1427C105.278 76.8969 112.403 81.6958 119.623 86.3942C126.063 90.5881 132.777 94.7155 138.035 100.225C140.582 102.846 142.688 105.857 144.366 109.023C145.985 112.178 147.312 115.455 148.562 118.777C150.939 125.219 153.024 131.783 156.507 137.725C159.684 143.252 164.067 148.358 170.349 151.098C170.3 151.445 170.232 151.847 170.183 152.193C169.417 156.494 167.813 161.049 163.747 163.89L163.729 163.946C163.131 163.654 162.552 163.306 161.914 162.947C155.548 159.301 150.222 154.193 146.657 148.117C144.865 145.107 143.478 141.819 142.561 138.442C141.487 134.383 141.037 130.147 140.313 125.977C139.618 122.109 138.572 118.352 136.961 114.784C135.415 111.405 133.482 108.25 131.376 105.239C129.152 102.206 126.713 99.2499 124.084 96.495C121.272 93.5274 118.21 90.7492 115.13 88.0268C108.61 82.3354 101.862 76.9563 95.9967 70.797ZM121.911 75.2693C129.036 77.9338 135.525 81.7813 141.019 86.5653C146.111 91.0354 150.44 96.3085 153.645 102.138C155.217 105.047 156.617 108.101 157.667 111.265C158.862 114.755 159.612 118.455 160.594 122.022C161.494 125.455 162.744 128.776 164.749 131.709C166.426 134.104 168.685 136.254 171.507 137.445C171.475 137.736 171.503 138.038 171.472 138.328C171.34 140.674 171.149 143.01 170.898 145.333C170.88 145.389 170.862 145.445 170.903 145.512C170.689 145.59 170.676 145.825 170.877 145.981C170.725 147.613 170.573 149.244 170.303 150.852C169.588 150.538 168.949 150.179 168.27 149.753C162.282 146.297 158.198 140.656 155.267 134.76C152.189 128.54 150.354 121.787 147.781 115.367C146.513 112.101 145.031 108.913 143.239 105.903C141.406 102.825 139.11 100.015 136.449 97.5509C133.706 94.9522 130.718 92.7217 127.594 90.5244C124.309 88.2374 120.889 85.9836 117.527 83.7411C111.005 79.413 104.541 75.0962 98.001 70.8239C98.001 70.8239 98.001 70.8239 98.0602 70.8352C106.392 70.9433 114.508 72.4925 121.911 75.2693ZM95.4884 69.4549C95.8291 68.9863 96.1698 68.5178 96.5698 68.0605C100.224 63.7776 106.214 61.6008 111.715 60.9316C118.624 59.9972 125.504 60.8955 132.435 60.0842C138.251 59.4156 144.037 57.6742 149.325 54.9483C154.708 52.122 159.492 48.2328 162.995 43.4467C165.929 39.4416 167.966 34.9092 168.781 30.2624C169.098 33.9396 168.436 37.7263 166.963 41.2989C163.3 50.264 155.201 57.1964 145.948 61.4779C141.953 63.3239 137.746 64.6554 133.453 65.6738C133.394 65.6625 133.334 65.6512 133.334 65.6512C132.546 65.5601 131.494 65.8929 130.693 66.0364C129.832 66.1686 129.031 66.312 128.17 66.4442C126.508 66.7198 124.805 66.9283 123.12 67.081C121.631 67.2117 120.159 67.2866 118.688 67.3615C117.29 67.2131 115.95 67.076 114.556 67.1064C113.181 67.081 111.787 67.1113 110.416 67.2647C109.71 67.3078 108.927 67.3955 108.184 67.5502C104.075 67.4181 99.8856 67.9227 95.8257 69.5786C95.625 69.4217 95.5657 69.4104 95.4884 69.4549ZM94.1983 68.9715C94.9703 67.7552 95.7834 66.606 96.715 65.4795C97.0195 65.1225 97.4013 64.7211 97.7058 64.3642C98.565 63.461 99.4652 62.6249 100.425 61.8001C102.749 59.8721 105.356 58.2353 108.173 57.113C111.241 55.8013 114.519 55.0041 117.733 54.0168C121.297 52.9185 125.221 51.2958 128.04 48.8102C127.25 50.0823 126.359 51.276 125.369 52.3912C123.787 54.1645 121.963 55.7137 119.957 57.0501C115.453 57.554 110.936 58.2926 106.68 59.9704C101.996 61.8037 97.4062 64.8999 95.0096 69.1856C94.8911 69.163 94.7726 69.1404 94.636 69.1736C94.3398 69.1171 94.2395 69.0386 94.1983 68.9715ZM124.204 50.7459C121.478 52.3601 118.342 53.3029 115.264 54.2571C112.128 55.1998 109.009 56.0868 106.065 57.5999C103.662 58.8014 101.388 60.3831 99.4143 62.2002C99.546 61.9881 99.7369 61.7874 99.8686 61.5754C101.65 59.188 103.289 56.655 105.471 54.5814C106.581 53.4888 107.831 52.5418 109.224 51.7403C110.812 50.917 112.565 50.3622 114.322 49.9862C117.76 49.2787 121.212 49.1077 124.581 48.0313C126.548 47.3988 128.564 46.42 130.078 45.0489C128.807 47.4151 126.62 49.3098 124.204 50.7459ZM93.318 68.3884C93.3773 68.3997 93.4365 68.411 93.4546 68.3552C93.532 68.3107 93.5501 68.2548 93.6274 68.2103C94.0323 67.9319 94.4553 67.5976 94.8782 67.2633C94.5194 67.7877 94.2379 68.2676 93.9384 68.8033C93.7195 68.7022 93.5188 68.5453 93.2999 68.4442C93.2407 68.4329 93.2407 68.4329 93.318 68.3884ZM130.758 41.2063C128.918 43.5824 125.714 44.9273 122.704 45.4793C119.088 46.1528 115.466 45.8765 111.846 46.3712C108.558 46.8108 105.426 47.9324 102.976 50.2512C100.584 52.5813 99.1735 55.573 98.0359 58.4982C97.3741 60.1506 96.7715 61.8143 96.0324 63.5112C95.3295 65.0964 94.4258 66.5247 93.4448 67.9976C93.272 68.1425 93.1765 68.2428 93.0037 68.3877C95.6223 65.7452 96.3256 62.0256 96.9432 58.764C97.5427 55.5582 98.037 52.0951 100.099 49.2278C102.353 46.1598 106.162 44.6934 109.801 44.1428C114.3 43.4601 118.715 44.0064 123.201 43.5583C125.783 43.1619 128.456 42.4862 130.758 41.2063ZM132.264 40.2486C131.838 41.1752 131.452 42.1689 130.967 43.0841C129.177 45.8849 125.623 47.3408 122.363 48.0822C118.966 48.8568 115.454 49.0165 112.104 50.0371C109.045 50.9353 106.538 52.6506 104.361 54.903C102.32 57.1222 100.698 59.5993 98.9174 61.9867C98.3495 62.7677 97.7998 63.4928 97.1727 64.2624C96.7908 64.6639 96.4682 65.0766 96.0864 65.478C95.6091 65.9798 95.0725 66.4703 94.536 66.9608C95.3672 65.7558 96.0388 64.461 96.5738 63.1995C97.4266 61.3464 98.0423 59.4481 98.8358 57.5837C100.033 54.6698 101.639 51.6562 104.332 49.5614C107.179 47.3776 110.836 46.7712 114.247 46.533C117.854 46.2729 121.571 46.4489 125.136 45.3506C127.922 44.5188 130.547 42.8261 131.913 40.3596C132.109 40.3377 132.246 40.3045 132.264 40.2486ZM159.253 12.3167C155.68 13.8284 152.583 16.2016 149.946 18.9C143.968 25.1109 140.822 32.8702 136.896 40.125C135.026 43.5626 132.919 46.955 130.293 50.0109C128.997 51.4831 127.602 52.8768 126.064 54.1249C125.027 54.9942 123.867 55.6621 122.748 56.3971C122.552 56.419 122.398 56.508 122.202 56.5299C122.142 56.5186 122.124 56.5745 122.124 56.5745C121.988 56.6077 121.869 56.5851 121.733 56.6183C125.9 53.8563 128.861 49.3819 130.966 45.2185C133.63 39.9165 135.482 34.4003 138.483 29.222C139.908 26.7668 141.511 24.3455 143.315 22.081C144.965 19.9057 146.792 17.7642 148.801 15.8355C150.542 14.1521 152.621 12.5923 155.103 12.1173C156.546 11.7407 158.004 11.9004 159.253 12.3167Z" fill="#DCBB8C"/>
</svg>
