<svg width="192" height="200" viewBox="0 0 192 200" fill="none" xmlns="http://www.w3.org/2000/svg">
<path d="M96.344 0.925105C94.0562 1.95105 92.2398 3.8096 90.7059 5.79474C88.9349 8.1211 87.4465 10.5741 86.0693 13.0892C84.6827 15.6624 83.3979 18.3556 82.4144 21.0596C81.1656 24.2787 80.32 27.6286 79.4838 30.9206C79.3538 30.9742 79.2239 31.0279 79.1449 31.1416C76.4442 34.717 71.7723 36.241 67.584 37.0246C63.3354 37.8061 58.9811 38.1176 54.9347 39.8969C51.4776 41.4058 48.4824 43.8052 47.085 47.1938C45.7157 50.4086 45.8759 53.9108 45.7723 57.1705C45.6874 60.3143 45.3615 63.4496 43.7378 66.364C42.7601 66.0379 41.773 65.7697 40.7954 65.4436C38.5386 64.7807 36.2819 64.1177 34.0252 63.4548C29.6135 62.2491 25.1228 61.1572 20.553 60.179C8.48439 57.594 -3.94731 55.7537 -16.5198 54.7826C-14.0151 54.2888 -11.6028 53.6169 -9.20386 52.6532C-4.59618 50.7773 -0.279004 48.0752 3.35784 44.7079C7.55194 40.8942 10.4309 36.2179 13.1987 31.4794C16.0174 26.8009 18.8642 21.9487 23.211 18.3152C25.2403 16.6391 27.5845 15.2655 30.0758 14.4799C32.6274 13.6964 35.1869 13.6125 37.5829 14.1638C37.9352 14.2346 38.2005 13.7196 37.8576 13.5908C37.9969 13.4792 38.0251 13.3054 37.863 13.1831C37.8121 13.123 37.7518 13.1209 37.7009 13.0608C37.7291 12.887 37.6367 12.7089 37.405 12.6424C36.6175 12.2647 35.8394 11.8291 34.9917 11.4494C28.5109 8.42192 21.4863 6.13272 14.0557 5.2277C7.0978 4.39775 -0.23797 4.77815 -7.35429 6.79805C-14.1505 8.71278 -20.4165 12.2198 -25.7759 16.8662C-31.1354 21.5126 -35.5092 27.1848 -38.8451 33.1851C-40.7154 36.4987 -42.2428 39.9409 -43.5987 43.4475C-44.9546 46.9541 -46.1391 50.5251 -46.8924 54.0531C-49.6421 54.1886 -52.3918 54.324 -55.1509 54.5173C-59.445 54.831 -63.7578 55.2605 -68.1081 55.9218C-72.3379 56.5874 -76.6601 57.0748 -80.8123 58.3842C-81.4526 58.5945 -81.2732 59.3585 -80.7308 59.3778C-75.9827 59.2551 -71.1408 58.553 -66.4061 58.1384C-61.7919 57.7196 -57.1175 57.3029 -52.4619 57.0021C-52.3388 58.1137 -51.9747 59.2339 -51.6614 60.294C-51.316 61.53 -50.9198 62.8262 -50.5744 64.0622C-49.7631 66.5386 -48.8821 68.9592 -47.7413 71.2725C-45.9632 74.8904 -43.5354 78.2401 -40.3735 80.8C-37.1005 83.4221 -33.1576 84.9025 -28.7914 85.6404C-24.365 86.3804 -19.6959 86.3714 -15.1435 86.708C-12.9228 86.8452 -10.6607 87.1004 -8.48698 87.5273C-6.78604 87.8791 -5.11323 88.4047 -3.51948 89.0441C-3.4686 89.1042 -3.46863 89.1042 -3.41775 89.1642C-3.13912 88.941 -2.93016 88.7736 -2.7118 88.5483C-2.81358 88.4281 -2.85509 88.3101 -2.95687 88.1899C-3.24738 87.3638 -3.60755 86.5934 -3.96772 85.823C-4.49391 84.5805 -5.0295 83.396 -5.61596 82.1514C-6.68711 79.7823 -7.74884 77.3553 -8.81999 74.9863C-10.4173 71.3747 -11.9356 67.6494 -14.4009 64.5315C-15.6035 62.9736 -16.9641 61.6433 -18.6033 60.5361C-20.2425 59.4289 -22.1095 58.605 -24.014 58.0128C-25.3948 57.5558 -26.8037 57.2727 -28.2824 57.0453C-28.2354 56.7556 -28.4993 56.5131 -28.8194 56.6183C-29.0096 56.6698 -29.2694 56.7772 -29.469 56.8866C-30.7159 56.7258 -32.0325 56.6207 -33.2982 56.5757C-22.6248 56.547 -11.985 57.0999 -1.5971 58.4596C6.65857 59.5105 14.7883 60.9648 22.792 62.8226C26.7082 63.7193 30.6659 64.7341 34.4936 65.8024C36.4678 66.3388 38.4928 66.9352 40.4482 67.5874C41.3147 67.8513 42.2321 68.1753 43.0986 68.4392C42.9687 68.4928 42.8482 68.4886 42.7182 68.5422C34.2972 71.5064 28.2557 78.8676 23.9298 86.1148C23.8602 86.1706 23.7905 86.2264 23.7717 86.3423C23.7624 86.4003 23.7624 86.4003 23.753 86.4582C23.6739 86.572 23.6645 86.6299 23.5855 86.7436C20.9852 91.1967 18.7183 95.8365 16.0068 100.227C14.6765 102.453 13.235 104.616 11.5712 106.655C9.91683 108.636 8.15127 110.554 6.28393 112.353C2.60954 115.952 -1.28714 119.426 -4.52628 123.332C-7.60733 127.011 -10.1287 131.35 -11.032 135.805C-11.8885 139.971 -11.3641 144.593 -8.30947 147.44C-6.78683 148.893 -4.71088 149.55 -2.38305 149.399C0.134979 149.197 2.65446 148.238 5.09489 147.392C14.1749 144.102 22.9243 139.11 30.3132 132.787C30.5676 133.087 30.7618 133.386 31.0859 133.63C34.6628 137.37 39.4292 139.754 43.6705 142.76C47.4163 145.458 51.0308 148.966 51.9676 153.661C52.4454 155.951 51.8611 158.436 52.4689 160.672C53.0766 162.908 55.1284 164.088 57.558 164.058C58.0401 164.075 58.4808 163.974 58.9723 163.933C58.7901 164.685 58.5984 165.494 58.4162 166.245C57.1883 173.078 58.8816 179.839 62.1489 185.492C65.171 190.785 69.7523 195.435 75.5849 197.974C78.4108 199.24 81.5715 199.935 84.8356 199.992C86.3517 199.988 87.9469 199.87 89.344 199.103C90.95 198.17 91.5141 196.558 91.8278 194.996C93.4241 187.011 95.0204 179.025 96.4962 171.036C97.2079 167.39 97.7991 163.739 98.0287 160.076C98.2113 156.703 98.1623 153.263 97.2734 150.143C98.1211 150.522 98.9783 150.844 99.8354 151.166C104.21 152.604 108.975 153.123 113.844 153.004C116.463 152.922 119.111 152.667 121.778 152.295C124.264 151.917 126.708 151.422 129.111 150.808C129.172 150.81 129.232 150.812 129.301 150.756C129.431 150.702 129.552 150.707 129.682 150.653C129.872 150.602 129.919 150.312 129.748 150.247C130.403 149.571 130.997 148.893 131.49 148.095C134.146 144.052 134.391 139.165 134.251 134.79C134.207 133.564 134.154 132.397 134.11 131.172C134.11 131.172 134.11 131.172 134.17 131.174C139.379 130.077 144.575 128.688 149.416 126.121C153.198 124.099 156.7 121.193 158.918 117.601C161.611 113.326 161.768 108.611 161.105 104.1C160.486 100.057 159.637 95.9479 158.118 92.2226C156.807 89.0875 154.917 86.1648 152.083 84.1993C155.561 83.6819 159.021 83.2803 162.513 83.0547C165.392 82.8656 168.184 82.8483 171.035 82.833C173.887 82.8178 176.738 82.8025 179.646 82.4396C182.303 82.1261 185.068 81.525 187.583 80.2158C189.7 79.1255 191.637 77.2712 191.66 74.8827C191.692 72.4363 190.004 70.5115 188.379 68.9387C186.602 67.1856 184.695 65.4861 182.709 63.9004C178.686 60.6689 174.296 57.8322 169.739 55.281C168.243 54.412 166.728 53.6589 165.162 52.8457C165.111 52.7856 165.061 52.7256 164.94 52.7213C164.657 52.5947 164.375 52.4681 164.162 52.2857C164.71 51.8972 165.188 51.5646 165.675 51.174C170.583 47.4439 174.737 42.7547 177.761 37.559C179.189 35.1039 180.559 31.8892 178.615 29.664C177.7 28.5825 176.161 28.353 174.691 28.0677C172.981 27.7738 171.271 27.4799 169.56 27.1861C162.779 26.0127 155.948 24.7793 149.069 23.8357C142.602 22.9649 135.88 22.5512 129.146 23.7106C123.714 24.6831 118.133 26.5827 113.634 30.0359C115.384 24.0958 115.294 17.9154 112.703 12.5786C112.661 12.4606 112.55 12.3983 112.369 12.3919C112.245 12.0378 112.13 11.6258 112.005 11.2717C110.428 6.78679 108.225 2.04653 103.216 0.411687C101.233 -0.0667101 98.692 -0.0987031 96.344 0.925105ZM-23.6487 60.9978C-24.6788 61.3692 -25.7691 61.7384 -26.7991 62.1097C-27.8988 62.5368 -28.9288 62.9082 -30.0379 63.3932C-30.5575 63.6079 -31.1469 63.8783 -31.6666 64.0929C-31.8568 64.1445 -32.0564 64.2539 -32.2466 64.3054C-34.0345 63.3678 -35.8224 62.4301 -37.68 61.5483C-37.1603 61.3337 -36.6406 61.119 -36.1209 60.9044C-35.2717 60.5266 -34.4224 60.1489 -33.5638 59.7132C-32.7146 59.3354 -31.8654 58.9577 -31.0068 58.522C-30.6077 58.303 -30.1576 58.1442 -29.7076 57.9854C-27.5057 58.2384 -25.2811 58.7254 -23.2842 59.4956C-22.7096 59.6909 -22.0842 59.9462 -21.5284 60.2573C-21.7186 60.3088 -21.9182 60.4183 -22.1084 60.4698C-22.4982 60.6308 -23.0688 60.7853 -23.6487 60.9978ZM-13.7535 70.2655C-14.5049 70.4136 -15.2563 70.5618 -16.0265 70.8258C-16.7967 71.0898 -17.5668 71.3538 -18.2861 71.6779C-18.6759 71.8389 -19.1956 72.0535 -19.5439 72.3325C-22.6736 69.9486 -26.0217 67.79 -29.4582 65.8031C-30.1761 65.3697 -30.843 64.9963 -31.5703 64.6208C-31.4403 64.5672 -31.3104 64.5135 -31.1805 64.4599C-30.6608 64.2452 -30.1411 64.0306 -29.6214 63.816C-28.582 63.3867 -27.5425 62.9574 -26.5125 62.5861C-25.4128 62.1589 -24.3828 61.7876 -23.2925 61.4184C-22.7822 61.2617 -22.2625 61.0471 -21.6919 60.8925C-21.3718 60.7874 -21.0516 60.6822 -20.7315 60.577C-19.782 61.0769 -18.8418 61.6348 -17.9807 62.3064C-16.4808 63.5252 -15.1993 64.9694 -14.187 66.5788C-13.4612 67.7118 -12.7448 68.9027 -12.149 70.0894C-12.3298 70.083 -12.4597 70.1366 -12.6405 70.1302C-13.0115 70.1753 -13.3825 70.2204 -13.7535 70.2655ZM-5.02444 85.6106C-5.33916 85.3081 -5.59359 85.0077 -5.89892 84.6472C-7.39342 83.0206 -8.89726 81.452 -10.5311 79.9371C-13.2108 77.3944 -16.0392 75.0211 -18.956 72.8196C-18.6265 72.6565 -18.297 72.4934 -18.0371 72.3861C-17.3178 72.062 -16.6173 71.8537 -15.8471 71.5897C-15.0863 71.3837 -14.3858 71.1754 -13.5835 71.0874C-13.2125 71.0423 -12.8415 70.9972 -12.4705 70.9521C-12.2201 70.9027 -11.979 70.9113 -11.7285 70.8619C-10.6707 72.9391 -9.75222 75.128 -8.82435 77.2588C-7.89648 79.3897 -6.89895 81.4648 -5.97107 83.5956C-5.65239 84.248 -5.33373 84.9004 -5.02444 85.6106ZM-19.6945 85.6139C-20.5314 84.4187 -21.6563 83.5046 -22.7022 82.4767C-23.2205 81.9339 -23.7481 81.4489 -24.2758 80.964C-24.5396 80.7215 -24.8034 80.479 -25.0578 80.1786C-25.3217 79.9361 -25.5158 79.6379 -25.8587 79.5091C-26.0099 78.5714 -26.1008 77.6357 -26.2521 76.6979C-26.6454 73.8868 -27.0481 71.1335 -27.4415 68.3223C-24.5796 70.114 -21.7873 71.9614 -19.0834 73.9806C-15.9443 76.3066 -13.0141 78.8 -10.1723 81.465C-8.75147 82.7976 -7.33999 84.188 -5.98877 85.5764C-5.25758 86.3017 -4.59607 87.0827 -3.87426 87.866C-3.88364 87.9239 -3.82339 87.926 -3.83278 87.984C-7.4649 86.4563 -11.6972 86.0146 -15.7166 85.7552C-17.0519 85.7661 -18.3779 85.719 -19.6945 85.6139ZM-25.2621 85.183C-25.2019 85.1852 -25.1925 85.1272 -25.1831 85.0693C-25.1308 84.3718 -25.2592 83.668 -25.3877 82.9641C-25.4559 82.2624 -25.5938 81.6164 -25.662 80.9147C-25.6847 80.6808 -25.7168 80.5048 -25.7396 80.2709C-25.6378 80.3911 -25.5267 80.4533 -25.4249 80.5735C-25.1611 80.816 -24.9575 81.0563 -24.6937 81.2988C-24.166 81.7837 -23.6384 82.2687 -23.1711 82.7515C-22.1667 83.6613 -21.2507 84.7428 -20.1673 85.5388C-21.7946 85.481 -23.5424 85.4189 -25.2621 85.183ZM-32.4275 83.7629C-32.2373 83.7114 -32.1489 83.5397 -32.1207 83.3659C-32.0496 82.5526 -32.2102 81.6727 -32.3199 80.853C-32.3694 80.0354 -32.4791 79.2156 -32.5285 78.398C-32.6274 76.7628 -32.7866 75.1254 -32.8252 73.4924C-32.9146 71.7992 -32.9533 70.1661 -32.9825 68.4751C-32.9717 67.6596 -33.0211 66.842 -33.0103 66.0266C-33.0236 65.7347 -32.9673 65.3871 -32.9713 65.0373C-31.1927 66.0329 -29.4142 67.0285 -27.7053 68.0798C-27.8353 68.1335 -27.9143 68.2472 -27.8728 68.3653C-27.4098 71.1207 -27.0767 73.9297 -26.6833 76.7409C-26.4866 78.1465 -26.2806 79.4941 -26.0839 80.8997C-25.9554 81.6036 -25.8872 82.3053 -25.7588 83.0092C-25.6303 83.7131 -25.6317 84.4706 -25.3639 85.0629L-25.313 85.1229C-26.5599 84.9621 -27.8671 84.7991 -29.1047 84.5803C-30.2913 84.4216 -31.399 84.1491 -32.4275 83.7629ZM-45.7444 72.0427C-44.9764 68.049 -44.3892 64.0489 -43.7926 59.9908C-42.31 60.5679 -40.8368 61.203 -39.373 61.8961C-37.5663 62.7178 -35.769 63.5975 -33.9811 64.5352C-34.0749 65.1146 -33.9973 65.7584 -34.0215 66.282C-34.0323 67.0975 -33.9829 67.9151 -33.9937 68.7306C-33.9551 70.3636 -33.9165 71.9967 -33.8177 73.6319C-33.7188 75.2672 -33.6199 76.9024 -33.4607 78.5397C-33.4113 79.3573 -33.311 80.235 -33.2013 81.0548C-33.0916 81.8745 -33.1118 82.748 -32.8628 83.4561C-32.8722 83.514 -32.8119 83.5162 -32.761 83.5763C-35.5132 82.6044 -38.019 81.2333 -40.1201 79.2355C-42.5227 77.2271 -44.3077 74.7744 -45.7444 72.0427ZM-51.0114 57.4033C-48.7734 58.1821 -46.4752 58.9631 -44.3163 59.8556C-44.945 63.7377 -45.5831 67.6778 -46.031 71.5663C-46.4006 70.8539 -46.7608 70.0835 -47.07 69.3732C-48.0073 67.3003 -48.7543 65.1758 -49.4317 62.9956C-49.7959 61.8754 -50.0997 60.7574 -50.4036 59.6394C-50.5736 58.8175 -50.7624 58.1115 -51.0114 57.4033ZM-31.2049 57.8739C-32.1238 58.3075 -32.973 58.6852 -33.8222 59.063C-34.6714 59.4407 -35.5207 59.8185 -36.3096 60.1984C-36.9686 60.5246 -37.6879 60.8487 -38.2867 61.1771C-40.0331 60.3575 -41.7888 59.5958 -43.6143 58.8899C-43.5768 58.6581 -43.8781 58.6474 -44.0174 58.759C-45.1572 58.3106 -46.3572 57.86 -47.5572 57.4095C-46.412 57.4502 -45.2066 57.493 -44.0615 57.5337C-41.3399 57.5721 -38.5393 57.4968 -35.8271 57.5931C-34.26 57.6488 -32.7532 57.7023 -31.2049 57.8739ZM-9.37031 8.76606C-9.75214 9.62662 -10.0228 10.5494 -10.3444 11.4121C-10.7731 12.5624 -11.1323 13.6569 -11.561 14.8071L-15.901 27.0073C-16.591 29.0224 -17.3414 31.0354 -18.0314 33.0505C-18.6143 34.778 -19.2574 36.5034 -19.8497 38.2889C-20.4953 38.907 -21.2013 39.523 -21.847 40.1411C-21.8549 39.4415 -21.9325 38.7977 -21.9404 38.0981C-21.9617 37.1067 -21.9924 36.1732 -22.0137 35.1817C-22.1136 31.6817 -22.0327 28.188 -21.8822 24.6386C-21.7815 22.8939 -21.6808 21.1492 -21.5199 19.4067C-21.4394 18.5354 -21.3589 17.6642 -21.2878 16.8508C-21.2354 16.1534 -21.1228 15.4581 -21.0799 14.8186C-17.4445 12.2088 -13.4904 10.2514 -9.37031 8.76606ZM-0.909242 6.67738C-1.27628 7.07227 -1.58306 7.46929 -1.94072 7.80624C-2.52612 8.42647 -3.18115 9.1025 -3.76656 9.72273C-4.93733 10.9632 -6.04785 12.2058 -7.22801 13.5042C-9.30034 15.8198 -11.2615 18.1977 -13.1624 20.5778C-13.1436 20.4619 -13.0646 20.3481 -13.0458 20.2322C-12.3558 18.2171 -11.6054 16.2042 -10.9154 14.189C-10.5656 13.1525 -10.2253 12.1739 -9.8153 11.1395C-9.50311 10.3348 -9.18153 9.47207 -8.98989 8.66303C-7.50981 8.13286 -5.98826 7.72071 -4.41581 7.36865C-3.21435 7.06169 -2.03165 6.87061 -0.909242 6.67738ZM2.98167 6.23287C1.84949 9.1064 0.717304 11.9799 -0.354599 14.8556L-2.05085 19.3408C-2.57742 20.7207 -3.16428 22.0985 -3.57031 23.4826C-6.92313 26.219 -10.1327 29.1936 -13.2819 32.1703C-15.2189 34.0245 -17.2162 35.8767 -19.2134 37.7288C-18.5006 35.9476 -17.9084 34.1621 -17.2465 32.3208C-15.9039 28.5223 -14.5613 24.7239 -13.2187 20.9254C-11.1276 18.4939 -8.91595 16.0666 -6.76458 13.6372C-5.58443 12.3388 -4.41364 11.0983 -3.23348 9.79994C-2.64809 9.17971 -2.13236 8.61529 -1.54697 7.99506C-1.04062 7.48857 -0.474013 6.98422 -0.0279241 6.47559C0.955171 6.39397 1.9383 6.31235 2.98167 6.23287ZM27.77 10.377C24.7564 10.2699 21.6075 10.6242 18.5831 11.3326C12.5853 12.8095 6.88585 15.8122 1.82522 19.362C0.251318 20.4716 -1.20204 21.5854 -2.72507 22.7551C-2.2548 21.7229 -1.89568 20.6284 -1.48568 19.594C-0.880082 18.1004 -0.325348 16.5466 0.280252 15.053C1.4312 12.0636 2.57276 9.1321 3.72369 6.14268C8.12889 5.89126 12.5099 6.16346 16.6953 6.89491C21.1218 7.63493 25.3433 8.89214 29.3879 10.4927C28.8549 10.4155 28.3124 10.3962 27.77 10.377ZM19.6239 19.8778C19.1136 20.0345 18.5336 20.247 18.0233 20.4037C17.0027 20.7171 15.9727 21.0884 14.952 21.4018C11.2405 22.6102 7.49683 23.6427 3.75317 24.6752C0.269347 25.6004 -3.19569 26.4097 -6.67013 27.277C-3.48875 24.4762 -0.205571 21.7957 3.3923 19.4176C8.55469 15.988 14.2675 13.2772 20.2184 12.09C23.224 11.4975 26.3448 11.317 29.2699 11.5957C31.4811 11.7909 33.5062 12.3873 35.4616 13.0395C35.4616 13.0395 35.4615 13.0395 35.5218 13.0416C30.8676 12.5849 25.7442 15.0253 22.1449 18.1608C21.7176 18.5536 21.2903 18.9463 20.8629 19.339C20.4035 19.5558 20.0137 19.7168 19.6239 19.8778ZM9.28106 31.3402C8.34885 31.4819 7.34699 31.6794 6.41477 31.8211C2.99666 32.3407 -0.402694 32.7444 -3.84356 33.0301C-5.56869 33.2019 -7.34468 33.3136 -9.05105 33.3695C-9.90423 33.3975 -10.6972 33.4276 -11.5503 33.4556C-12.2227 33.49 -12.8857 33.4664 -13.4978 33.5029C-12.9218 32.9406 -12.2855 32.3805 -11.6398 31.7624C-10.1395 30.3588 -8.64862 29.0132 -7.15771 27.6676C-5.09371 27.2747 -3.07118 26.7638 -1.05806 26.3108C2.72711 25.3964 6.53103 24.366 10.2841 23.2756C12.1954 22.7024 14.1068 22.1293 16.0181 21.5562C16.9785 21.2407 17.8692 20.9809 18.8296 20.6654C19.21 20.5624 19.5997 20.4014 19.9802 20.2984C16.9742 23.5132 14.6766 27.2195 12.509 30.8721C12.4581 30.812 12.3979 30.8099 12.2773 30.8056C11.7951 30.7885 11.2848 30.9452 10.7839 31.0439C10.283 31.1427 9.78199 31.2414 9.28106 31.3402ZM-26.285 45.4612C-26.5261 45.4527 -26.7069 45.4463 -26.9574 45.4956C-26.8878 45.4398 -26.8181 45.384 -26.7484 45.3282C-22.3696 41.8707 -18.2866 37.9948 -14.2733 34.1747C-13.3787 34.2647 -12.3956 34.1831 -11.4821 34.1573C-10.5084 34.1336 -9.53467 34.1099 -8.4913 34.0305C-5.00894 33.8628 -1.55869 33.5192 1.9612 33.1198C3.69572 32.89 5.43023 32.6602 7.17413 32.3726C8.04608 32.2287 8.91798 32.0849 9.78993 31.941C10.5413 31.7929 11.3343 31.7628 12.1044 31.4988C10.616 33.9517 9.18793 36.4068 7.41695 38.7332C5.86433 40.8342 4.09879 42.7528 2.18057 44.4912C1.76265 44.826 1.40498 45.163 0.987055 45.4978C-0.992511 45.3692 -3.06988 45.4702 -5.06819 45.4575C-8.82377 45.4406 -12.5887 45.4817 -16.3443 45.4648C-18.2221 45.4563 -20.0999 45.4479 -21.9174 45.4416C-22.8308 45.4674 -23.7349 45.4353 -24.6483 45.4611C-25.251 45.4397 -25.7332 45.4226 -26.285 45.4612ZM-9.39908 50.4901C-10.4933 50.5095 -11.597 50.5868 -12.631 50.6084C-16.5955 50.7589 -20.5601 50.9094 -24.534 51.1179C-26.4908 51.2232 -28.4985 51.2684 -30.4553 51.3737C-31.429 51.3974 -32.4121 51.479 -33.4461 51.5006C-34.1788 51.5328 -34.9623 51.505 -35.6949 51.5372C-32.7521 49.8352 -29.9526 47.8951 -27.3151 45.8326C-26.991 46.0772 -26.5597 46.0342 -26.0775 46.0514C-25.5954 46.0685 -25.0529 46.0878 -24.5707 46.1049C-23.5461 46.1413 -22.4519 46.1219 -21.4273 46.1583C-17.6811 46.2331 -13.9255 46.25 -10.1191 46.327C-8.24129 46.3354 -6.3635 46.3438 -4.55538 46.4081C-3.09949 46.4015 -1.66237 46.5109 -0.136829 46.4485C-2.13805 47.9508 -4.36157 49.3287 -6.65873 50.4126C-7.56279 50.3805 -8.48562 50.4643 -9.39908 50.4901ZM-40.7072 54.0398C-39.278 53.4495 -37.8207 52.6855 -36.4236 51.9192L-36.3633 51.9214C-35.2182 51.9621 -34.0449 51.8289 -32.9412 51.7516C-31.8376 51.6742 -30.7433 51.6549 -29.6999 51.5754C-25.7354 51.4248 -21.7615 51.2164 -17.797 51.0659C-15.8401 50.9606 -13.8324 50.9153 -11.8756 50.81C-10.9019 50.7863 -9.91879 50.7047 -8.8848 50.6832C-8.33299 50.6445 -7.8508 50.6616 -7.29897 50.623C-8.34777 51.1102 -9.45683 51.5953 -10.5471 51.9645C-12.867 52.8144 -15.2793 53.4863 -17.705 53.8663C-18.8877 54.0574 -20.1212 54.1884 -21.3454 54.2615C-22.0178 54.2959 -22.6299 54.3324 -23.2928 54.3088C-25.2724 54.1802 -27.2613 54.1096 -29.19 54.0411C-33.0661 54.0199 -36.8819 54.0009 -40.7072 54.0398ZM-45.9468 54.2033C-45.7043 53.4543 -45.4711 52.7633 -45.2286 52.0144C-42.9386 44.9861 -40.2963 38.0287 -36.3242 31.4682C-32.8544 25.7639 -28.4257 20.5017 -23.0717 16.263C-22.7234 15.984 -22.3149 15.7071 -21.8969 15.3723C-21.9814 15.8938 -22.015 16.4753 -22.0392 16.999C-22.1384 17.9861 -22.2471 19.0312 -22.286 20.0205C-22.5571 23.5657 -22.7076 27.1151 -22.7376 30.6688C-22.7178 32.4178 -22.7676 34.2225 -22.6875 35.9737C-22.6474 36.8492 -22.6074 37.7248 -22.5673 38.6003C-22.5594 39.2999 -22.4818 39.9437 -22.4042 40.5875C-24.3827 42.3237 -26.3518 44.002 -28.432 45.6181C-30.9209 47.511 -33.5115 49.2838 -36.1944 50.8784C-38.2693 52.0868 -40.4271 53.0591 -42.585 54.0313C-43.7489 54.1065 -44.8526 54.1839 -45.9468 54.2033ZM104.219 2.07902C102.802 3.71865 101.223 5.23597 99.8563 6.93569C98.439 8.57531 97.1329 10.2772 95.8776 12.0391C93.5949 15.2797 91.5345 18.6447 89.7566 22.1363C87.8904 25.7997 86.4875 29.596 84.9132 33.3279C83.418 36.9461 81.691 40.4979 79.2877 43.7342C78.1999 45.2107 76.9501 46.5649 75.5985 47.7989C75.0922 48.3054 74.5349 48.7518 73.9871 49.1403C74.5631 48.578 75.1391 48.0157 75.6642 47.3933C77.0721 45.8116 78.3274 44.0497 79.4018 42.2813C83.9272 34.9246 85.6213 26.7097 88.6963 18.9518C91.3613 12.2283 95.45 5.32226 102.213 1.36672C102.857 1.50616 103.483 1.76148 104.048 2.01466C104.108 2.0168 104.159 2.07688 104.219 2.07902ZM76.0807 47.816C77.5207 46.4103 78.7987 44.8823 79.9052 43.2899C82.188 40.0493 83.8038 36.4354 85.2896 32.8751C86.0909 30.9222 86.8318 28.9672 87.6933 27.0164C88.5454 25.1236 89.3881 23.2888 90.3514 21.4582C92.1895 17.9687 94.3102 14.6058 96.6532 11.3674C97.8897 9.7213 99.1168 8.13319 100.464 6.54936L100.534 6.49356C99.1904 8.42718 98.0181 10.4252 97.0173 12.4875C93.4281 20.0523 91.1688 28.014 87.1162 35.4458C85.3852 38.6477 83.1909 41.7167 80.5801 44.3628C78.9124 46.0518 77.1107 47.4447 75.0961 48.6552C75.5047 48.3783 75.7927 48.0972 76.0807 47.816ZM104.839 2.74208C102.559 7.08999 101.206 11.7039 99.9822 16.2642C97.8434 24.2302 95.9403 32.6125 90.1225 39.3405C87.5853 42.2807 84.5111 44.7939 81.0994 46.7706C79.3635 47.7578 77.5954 48.5692 75.7256 49.2603C74.9554 49.5243 74.2455 49.7905 73.4847 49.9965C73.624 49.8849 73.7539 49.8313 73.833 49.7175C76.6686 48.3031 79.3061 46.2406 81.4387 43.9271C87.1439 37.8944 90.1211 30.3661 92.9401 23.0653C94.4127 19.2132 95.9869 15.4812 98.0434 11.7664C99.8627 8.3928 102.076 5.20801 104.835 2.39229C104.886 2.45237 105.007 2.45665 105.058 2.51674C104.988 2.57254 104.918 2.62834 104.839 2.74208ZM111.741 13.6516C111.536 14.1688 111.4 14.6302 111.195 15.1474C108.991 20.8966 106.375 26.5729 102.809 31.7493C99.6471 36.299 95.6378 40.4689 90.8933 43.5637C86.5574 46.3817 81.6859 48.0152 76.801 49.3568C78.7406 48.6098 80.6573 47.629 82.412 46.5258C85.7822 44.4311 88.8055 41.8578 91.2409 38.7975C93.904 35.4539 95.7891 31.6747 97.2013 27.8204C100.171 19.5926 101.216 10.8884 105.404 2.99526C105.414 2.93732 105.423 2.87938 105.433 2.82144C108.975 5.27829 110.45 9.64307 111.741 13.6516ZM112.746 16.4263C112.902 22.2011 111.022 28.1949 107.739 33.4978C104.613 38.5733 100.144 42.96 95.0008 46.2738C89.7875 49.6433 83.9783 51.8262 78.0877 53.0156C71.5755 54.2994 64.9121 54.6454 58.5645 57.1588C55.5159 58.3908 52.4432 60.1464 50.0601 62.5093C52.667 59.5134 56.2046 57.1332 59.8613 55.5149C62.7384 54.2185 65.74 53.2762 68.7229 52.4497L68.7832 52.4519C71.7058 51.6233 74.6605 50.9707 77.5229 50.14C83.2984 48.5387 88.9174 46.4073 93.7557 42.733C98.3247 39.224 102.061 34.8696 105.009 30.1375C108.116 25.1779 110.426 19.8987 112.434 14.6087C112.527 14.7868 112.559 14.9628 112.591 15.1387C112.655 15.4907 112.701 15.9585 112.746 16.4263ZM177.52 30.4409C171.676 31.3405 165.834 31.4826 160.02 31.4508C150.45 31.4022 140.914 30.772 131.253 32.4102C123.094 33.752 114.873 36.6068 108.246 41.9658C107.996 42.0152 107.796 42.1246 107.546 42.174C108.001 41.6074 108.457 41.0409 108.861 40.4142C110.907 37.5148 112.508 34.3666 113.576 31.1411C114.124 30.7527 114.672 30.3642 115.27 30.0358C120.265 26.8916 125.818 25.1658 131.504 24.4937C138.113 23.7378 144.607 24.4347 150.934 25.4171C157.493 26.466 164.033 27.6307 170.522 28.7354C172.112 29.025 173.711 29.2566 175.301 29.5462C176.126 29.692 176.932 29.9538 177.52 30.4409ZM177.551 35.8616C174.359 36.8554 171.117 37.7892 167.902 38.5491C162.053 39.8564 156.218 40.6981 150.348 41.014C147.408 41.2009 144.496 41.214 141.534 41.1671C138.752 41.1265 135.957 40.7941 133.184 40.6956C125.194 39.1297 116.588 39.1153 108.376 41.9121C112.059 39.0126 116.352 36.8342 120.713 35.3574C129.254 32.3974 138.204 31.783 146.87 31.7995C157.112 31.8137 167.292 32.5833 177.648 31.1447C177.829 31.1512 177.908 31.0374 177.987 30.9237C178.14 31.1039 178.223 31.34 178.306 31.576C178.813 32.9344 178.388 34.4345 177.723 35.926C177.672 35.8659 177.611 35.8637 177.551 35.8616ZM171.955 40.8492C166.041 44.427 159.499 46.6422 152.858 47.2221C148.61 45.3812 144.343 43.6562 139.83 42.3303C138.732 41.9999 137.624 41.7275 136.516 41.455C138.496 41.5836 140.485 41.6543 142.423 41.6649C153.972 41.8421 165.822 40.1652 177.239 36.6664C177.072 36.9518 176.913 37.1793 176.816 37.4089C175.274 38.6944 173.64 39.8019 171.955 40.8492ZM172.903 42.1067C169.029 45.8152 164.16 48.556 159.015 50.0049C157.885 49.4986 156.764 48.9343 155.573 48.4258C154.897 48.1104 154.211 47.8529 153.535 47.5375C155.009 47.4151 156.493 47.2347 157.996 46.9384C164.198 45.7019 170.202 43.0597 175.472 39.3425C174.659 40.246 173.836 41.2075 172.903 42.1067ZM163.235 52.0197C162.054 51.4532 160.873 50.8868 159.631 50.3182C160.582 50.0606 161.473 49.8009 162.373 49.4832C165.212 48.4186 167.877 46.9398 170.347 45.1628C171.313 44.4395 172.227 43.6562 173.082 42.8707C170.28 46.3259 166.991 49.4142 163.305 51.9639C163.314 51.9059 163.244 51.9617 163.235 52.0197ZM160.805 52.0499C155.281 50.9795 149.63 50.3125 143.974 50.0533C137.534 49.7663 131.01 50.0007 124.532 50.7029C118.113 51.4073 111.661 52.6932 105.274 54.3311C99.0161 55.9153 92.7717 57.7913 86.4952 59.4914C83.3315 60.3114 80.1678 61.1314 77.0323 61.7776C76.0907 61.9773 75.0888 62.1748 74.1566 62.3165C74.1057 62.2564 74.0455 62.2543 73.9249 62.25C73.9343 62.192 73.9437 62.1341 73.9531 62.0761C77.2467 61.2025 80.5082 60.1529 83.6867 58.8672C92.164 55.5553 100.311 50.5417 106.277 43.6441C106.337 43.6462 106.458 43.6505 106.588 43.5968C107.887 43.0603 109.168 42.6396 110.508 42.221C121.819 39.0097 133.258 40.9896 143.349 44.5533C148.168 46.2396 152.87 48.2715 157.503 50.3591C157.424 50.4729 157.456 50.6489 157.646 50.5973C157.767 50.6016 157.836 50.5458 157.957 50.5501C158.128 50.6145 158.3 50.6788 158.471 50.7432C159.17 51.2925 160.018 51.6723 160.805 52.0499ZM190.12 72.7884C189.735 72.5416 189.281 72.3507 188.897 72.1039C182.361 68.6666 175.235 66.2572 167.806 64.5947C159.964 62.8592 151.861 61.9886 143.702 61.4656C135.362 60.9362 127.016 60.8145 118.62 60.6327C110.404 60.4574 102.17 60.398 93.8414 60.9179C89.7376 61.1801 85.6244 61.5001 81.5339 62.0541C79.0573 62.374 76.6317 62.7541 74.1873 63.25C73.9462 63.2414 73.7145 63.1749 73.4734 63.1663C73.6636 63.1148 73.7842 63.1191 73.9744 63.0676C78.9556 62.2539 83.8819 61.0303 88.7574 59.7466C95.0339 58.0465 101.278 56.1705 107.527 54.6442C113.905 53.0643 120.319 52.0101 126.779 51.4238C133.239 50.8374 139.675 50.7747 146.035 51.1755C152.335 51.5742 158.491 52.4922 164.511 53.8715C167.087 55.1868 169.602 56.5 172.028 57.9848C176.456 60.5897 180.656 63.4778 184.479 66.8188C185.442 67.6106 186.335 68.4581 187.229 69.3057C188.062 70.1512 188.904 70.9387 189.588 71.9537C189.792 72.194 189.986 72.4923 190.12 72.7884ZM154.881 83.0167C154.446 82.7098 153.96 82.3429 153.455 82.0919C148.763 79.2445 143.737 76.968 138.464 75.0907C133.182 73.2714 127.774 71.8554 122.208 70.667C116.581 69.4764 110.917 68.5176 105.174 67.6726C99.0788 66.7567 92.9045 65.9546 86.7998 65.0967C82.9479 64.5519 79.1562 64.0093 75.3043 63.4645C82.4794 62.2042 89.6813 61.5277 96.8871 61.201C105.067 60.8505 113.241 60.9079 121.387 61.139C129.843 61.3229 138.3 61.5068 146.682 62.1542C154.702 62.7888 162.647 63.8869 170.27 65.8477C177.43 67.6756 184.347 70.2523 190.554 73.8528C190.669 74.2648 190.724 74.6747 190.718 75.0824C190.721 76.1897 190.13 77.2177 189.326 78.0633C187.459 79.8617 184.726 80.6388 182.342 81.1368C179.578 81.7379 176.828 81.8733 174.088 81.9508C171.287 82.0261 168.445 81.9834 165.644 82.0587C162.774 82.1899 159.894 82.3789 157.056 82.686C156.305 82.8342 155.563 82.9243 154.881 83.0167ZM64.8893 64.1434C64.9496 64.1456 65.0795 64.0919 65.1398 64.094C66.5863 64.1454 68.0234 64.2548 69.4511 64.422C69.3815 64.4778 69.4324 64.5379 69.4926 64.5401C69.6132 64.5443 69.7431 64.4907 69.8034 64.4928C73.966 64.9904 78.0536 65.9514 81.9001 66.904C91.1642 69.2144 100.218 72.4499 108.035 77.3313C111.888 79.741 115.485 82.6077 118.534 85.8629C121.574 89.176 124.057 92.9356 126.01 96.9677C129.765 104.852 131.561 113.598 132.495 122.431C131.98 122.238 131.526 122.047 131.072 121.856C124.239 118.758 121.267 111.659 118.664 105.273C117.312 102.02 115.899 98.7646 114.088 95.7282C112.368 92.8699 110.44 90.179 108.303 87.6556C103.968 82.6064 98.7276 78.2827 92.8456 74.9269C86.3569 71.1998 79.0082 68.666 71.3325 67.4026C64.2501 66.2186 56.7993 66.187 49.4206 67.2069C49.6202 67.0974 49.8197 66.988 50.0193 66.8785C52.3768 65.7968 54.7984 65.067 57.2335 64.629C57.2843 64.6891 57.3352 64.7492 57.4651 64.6955C58.0264 64.5989 58.5273 64.5001 59.0979 64.3456C60.9529 64.1201 62.7892 64.0105 64.6576 64.0769C64.6482 64.1349 64.7688 64.1391 64.8893 64.1434ZM140.053 85.8698C136.889 86.6898 133.706 87.6257 130.616 88.7397C130.496 88.7354 130.375 88.7311 130.245 88.7848C130.185 88.7826 130.115 88.8384 130.166 88.8985C128.296 89.5897 126.487 90.283 124.719 91.0943C124.658 91.0921 124.598 91.09 124.538 91.0878C124.357 91.0814 124.278 91.1952 124.259 91.311C124.19 91.3668 124.06 91.4205 123.999 91.4184C122.016 88.3176 119.685 85.4958 116.945 82.9509C113.636 79.8031 109.82 77.1617 105.707 74.8594C97.3613 70.2505 88.029 67.2383 78.4355 65.0909C77.731 64.9493 77.0265 64.8077 76.322 64.6661C80.4753 65.2216 84.638 65.7192 88.7913 66.2746C94.7848 67.0703 100.778 67.866 106.762 68.7197C112.506 69.5647 118.179 70.4656 123.796 71.7141C129.362 72.9026 134.812 74.4365 140.015 76.3696C142.586 77.3351 145.088 78.3564 147.562 79.5515C149.864 80.6822 152.018 81.9825 154.25 83.1691C149.548 83.7596 144.798 84.6398 140.053 85.8698ZM158.541 96.7248C157.133 95.6841 155.647 94.7572 154.091 93.886C150.635 92.015 146.804 90.5968 142.818 89.7559C140.765 89.3333 138.693 89.0266 136.611 88.7779C135.656 88.6857 134.701 88.5934 133.667 88.615C139.29 86.8334 144.968 85.4617 150.691 84.5578C150.742 84.6179 150.742 84.6179 150.802 84.62C154.313 86.9009 156.471 90.4158 157.79 94.2506C158.02 95.0746 158.311 95.9008 158.541 96.7248ZM160.182 104.184C158.056 102.71 155.852 101.35 153.508 100.101C149.164 97.732 144.563 95.8203 139.726 94.2498C137.307 93.4646 134.809 92.7931 132.223 92.2933C130.995 92.0166 129.697 91.7956 128.399 91.5747C127.634 91.431 126.8 91.343 126.035 91.1993C126.615 90.9868 127.126 90.8301 127.706 90.6176C129.255 90.0317 130.856 89.5058 132.457 88.9799C134.093 88.9798 135.79 88.9818 137.408 89.0975C141.488 89.359 145.487 90.4918 149.119 92.0194C152.64 93.4849 155.854 95.3473 158.692 97.6626C158.83 98.3085 159.028 98.9566 159.175 99.5446C159.585 101.133 159.944 102.66 160.182 104.184ZM158.53 117.004C156.159 115.172 153.71 113.453 151.27 111.676C142.422 105.301 133.583 98.8684 124.665 92.5492C124.522 92.3111 124.429 92.1329 124.286 91.8948C124.546 91.7874 124.806 91.6801 125.116 91.6329C126.294 91.8495 127.49 91.9503 128.667 92.1669C130.085 92.3922 131.494 92.6753 132.843 92.9563C142.849 95.1766 152.133 99.2361 160.06 104.937C160.111 104.997 160.171 105 160.231 105.002C160.295 105.354 160.36 105.706 160.364 106.055C160.651 108.397 160.688 110.787 160.063 113.154C159.787 114.485 159.218 115.747 158.53 117.004ZM150.554 124.705C150.402 124.524 150.179 124.4 149.957 124.275C149.573 124.029 149.188 123.782 148.804 123.535C148.035 123.042 147.197 122.604 146.428 122.11C144.881 121.181 143.265 120.308 141.708 119.437C138.647 117.755 135.506 116.186 132.375 114.56C131.068 107.287 129.009 100.163 125.492 93.8024C127.558 95.2744 129.683 96.7485 131.739 98.2784C136.253 101.469 140.707 104.658 145.222 107.848C149.625 110.977 153.95 114.219 158.441 117.176C158.116 117.689 157.79 118.202 157.405 118.712C155.564 121.095 153.177 123.108 150.554 124.705ZM134.125 130.706C133.995 128.137 133.736 125.622 133.476 123.107C133.606 123.053 133.634 122.88 133.463 122.815C133.463 122.815 133.463 122.815 133.403 122.813C133.334 122.111 133.276 121.352 133.147 120.648C132.956 118.835 132.695 117.077 132.383 115.259C135.422 116.708 138.382 118.27 141.332 119.89C142.949 120.763 144.505 121.634 146.052 122.563C146.83 122.999 147.659 123.494 148.427 123.988C148.812 124.235 149.196 124.481 149.59 124.67C149.761 124.735 149.923 124.857 150.095 124.921C149.087 125.527 148.029 126.072 146.981 126.559C142.915 128.454 138.499 129.521 134.125 130.706ZM104.295 151.325C103.971 151.08 103.647 150.835 103.323 150.591C97.9811 146.147 95.0958 139.634 92.864 133.203C91.6189 129.662 90.5734 126.012 89.1983 122.525C88.059 119.454 86.72 116.493 85.2418 113.643C82.2438 107.825 78.568 102.45 74.2748 97.5189C69.9909 92.5299 65.0801 88.043 59.6442 84.1786C55.7872 81.4191 51.3557 78.4645 48.8691 74.3552C48.9575 74.1835 48.995 73.9517 48.833 73.8294C48.7218 73.7672 48.6107 73.705 48.4901 73.7007C48.1112 73.0462 47.8113 72.2779 47.5623 71.5698C47.5168 71.102 47.4807 70.5762 47.4446 70.0505C47.991 70.4195 48.4678 70.8444 49.0142 71.2135C56.0103 76.2989 63.6199 80.5902 70.9322 85.2206C77.5775 89.4777 84.1062 94.0803 89.3623 99.8032C91.884 102.573 94.1778 105.627 95.9426 108.953C97.9016 112.577 99.1507 116.468 100.39 120.416C101.589 124.247 102.787 128.077 104.704 131.584C106.386 134.674 108.476 137.487 110.915 140.021C115.487 144.729 121.345 148.609 127.925 150.649C127.173 150.797 126.371 150.885 125.62 151.033C120.397 151.838 115.143 152.467 110.029 152.228C108.189 151.987 106.228 151.743 104.295 151.325ZM97.22 148.975C93.5142 147.154 90.4314 144.48 88.1844 141.137C85.9884 137.854 84.4607 134.186 83.2531 130.414C82.8154 129 82.4378 127.588 82.0604 126.176C82.0697 126.118 82.0791 126.06 82.0885 126.002C82.1073 125.886 82.0564 125.826 82.0055 125.766C80.2331 119.118 78.9014 112.369 75.8205 106.315C75.7696 106.255 75.779 106.197 75.7281 106.137C75.7562 105.963 75.6638 105.785 75.4924 105.721C73.5749 102.214 71.0306 99.2102 68.0777 96.4829C64.9721 93.5753 61.5598 91.0648 58.3752 88.271C54.5518 84.93 50.9013 80.8959 48.9492 76.1063C51.8764 80.1147 56.5169 82.902 60.5266 85.8416C65.9437 89.822 70.7754 94.4226 75.0406 99.5275C79.2454 104.63 82.8931 110.179 85.7424 116.166C87.2433 119.25 88.5354 122.501 89.7068 125.748C90.9425 129.347 92.1086 133.001 93.4836 136.488C95.6339 141.926 98.577 147.333 103.188 151.052C101.084 150.569 99.0682 149.915 97.22 148.975ZM78.2076 140.607C78.5039 138.404 77.7662 136.221 76.912 134.384C75.0469 130.18 71.7432 126.625 71.0568 121.88C70.3798 117.078 72.6239 112.204 74.872 107.68C75.2924 108.453 75.6432 109.281 75.9338 110.107C78.2781 115.843 79.4532 122.062 81.148 128.066C81.1144 128.648 81.0206 129.227 80.9267 129.807C80.8275 130.794 80.5983 131.835 80.4388 132.82C80.3691 132.875 80.3503 132.991 80.341 133.049C80.2847 133.397 80.219 133.802 80.1627 134.15C79.6855 136.348 79.037 138.481 78.2076 140.607ZM74.1723 148.681C75.1572 145.219 74.4639 141.64 73.1438 138.563C70.328 131.994 64.3472 127.003 63.4388 119.512C63.2476 117.698 63.367 115.838 63.9084 113.992C64.4216 112.32 65.338 110.78 66.2543 109.239C67.9289 106.384 69.7147 103.592 69.9804 100.455C71.7293 102.382 73.1996 104.532 74.4007 106.847C73.1346 109.425 71.9891 112.007 71.1355 114.657C70.3704 117.135 70.0084 119.745 70.3375 122.204C70.6948 124.49 71.6829 126.623 72.8197 128.586C74.0075 130.61 75.3251 132.58 76.3133 134.713C76.8073 135.779 77.1715 136.899 77.4057 138.073C77.6399 139.247 77.6839 140.472 77.6677 141.696C76.8008 144.054 75.5722 146.4 74.1723 148.681ZM73.4515 149.763C71.6055 152.552 69.4863 155.158 67.0938 157.579C65.5748 159.098 63.8561 160.727 61.9112 161.882C62.0599 161.712 62.1992 161.601 62.3479 161.431C64.4993 159.002 65.3582 155.944 65.4149 152.973C65.4489 149.77 64.4207 146.761 62.7147 144.195C60.8145 141.33 58.2969 138.909 55.7605 136.605C53.1732 134.24 50.6461 131.878 48.3977 129.292C43.9103 124.063 40.5748 117.709 40.5424 110.423C40.5421 103.313 43.171 96.0642 45.2105 89.0854C46.3495 85.0466 47.3962 80.8297 47.6914 76.7609C49.9849 82.4368 54.6453 86.973 59.2883 90.8676C62.6028 93.6077 66.0472 96.2942 69.0041 99.3713C69.1059 99.4914 69.2679 99.6138 69.3697 99.7339C69.3 99.7897 69.2907 99.8477 69.2813 99.9056C69.5848 103.646 66.5827 107.211 64.7728 110.526C63.9167 112.069 63.2321 113.677 62.8997 115.355C62.5579 117.091 62.6474 118.784 62.9271 120.426C63.5694 123.945 65.3718 127.04 67.3228 129.964C69.3247 132.949 71.5168 135.883 72.8503 139.252C74.2441 142.623 74.6963 146.194 73.4515 149.763ZM81.036 198.75C80.3492 196.628 79.8432 194.512 79.6668 192.233C79.4488 189.836 79.5322 187.449 79.7964 185.07C80.7741 175.664 84.2645 166.464 85.1217 157.054C85.9266 148.341 84.9045 139.68 82.2631 131.661C82.2725 131.603 82.2913 131.487 82.3007 131.429C82.6233 132.431 82.9553 133.375 83.3476 134.322C84.8057 138.045 86.6629 141.549 89.3371 144.499C91.3405 146.727 93.8314 148.563 96.5877 149.885C96.7068 150.647 96.8259 151.409 96.9449 152.171C97.0453 153.048 97.0853 153.924 97.1254 154.799C97.1654 155.675 97.2055 156.551 97.1853 157.424C97.1448 159.171 97.0441 160.915 96.8832 162.658C96.4822 166.257 95.8495 169.789 95.1471 173.377C94.4073 177.197 93.658 181.075 92.9181 184.895C92.5388 186.863 92.1688 188.773 91.7895 190.74C91.5697 191.723 91.4102 192.708 91.1998 193.633C91.059 194.502 90.9183 195.372 90.5967 196.234C90.3542 196.983 89.9402 197.668 89.1928 198.166C88.5846 198.552 87.8747 198.818 87.1327 198.908C85.579 199.145 84.012 199.089 82.524 198.919C82.0418 198.902 81.569 198.827 81.036 198.75ZM70.8213 194.075C69.2843 190.465 69.2367 186.268 70.0047 182.274C71.6855 173.767 76.9396 166.029 79.6771 157.734C82.0555 150.534 82.9834 142.933 81.7683 135.839C81.8246 135.491 81.8809 135.144 81.9372 134.796C81.9748 134.564 81.952 134.33 81.9802 134.156C83.1275 137.927 83.9546 141.802 84.3411 145.779C84.7825 150.165 84.7229 154.65 84.1812 159.118C83.6434 163.936 82.4332 168.788 81.2927 173.584C80.2595 178.093 79.3373 182.664 79.0781 187.259C78.8713 191.156 79.1279 195.186 80.5538 198.733C78.2087 198.242 75.9895 197.347 73.9283 196.225C72.8864 195.547 71.8539 194.811 70.8213 194.075ZM61.216 181.146C62.2384 177.453 63.7846 173.895 65.7338 170.467C69.4461 164.014 74.1174 158.003 77.2042 151.294C78.8709 147.741 80.1344 144.056 80.9761 140.356C81.1584 139.605 81.2897 138.794 81.472 138.043C81.8881 141.088 81.8635 144.234 81.5376 147.369C81.0334 151.605 79.9265 155.82 78.4164 159.904C76.818 164.16 74.6958 168.28 72.8657 172.469C69.89 179.24 67.5195 187.139 70.2843 193.648C66.7475 190.783 64.005 187.131 62.0514 183.099C61.7422 182.389 61.4837 181.738 61.216 181.146ZM60.9576 180.496C59.9012 177.661 59.2346 174.665 59.1199 171.631C60.1326 170.618 61.1038 169.487 62.0054 168.412C63.1252 167.111 64.2451 165.811 65.365 164.51C69.1989 159.926 72.8199 155.16 75.6534 150.016C77.1191 147.329 78.353 144.575 79.295 141.753C79.7613 140.371 80.1673 138.987 80.5225 137.543C80.2879 138.991 79.993 140.438 79.6379 141.882C78.7359 145.58 77.4121 149.262 75.6852 152.814C74.056 156.136 72.0934 159.271 70.0705 162.405C68.0476 165.538 66.0341 168.613 64.2938 171.873C62.8188 174.618 61.5567 177.545 60.9576 180.496ZM60.0345 163.738C61.765 163.159 63.3202 162.165 64.7226 160.991C66.8913 159.203 68.8565 157.175 70.5899 155.08C73.1365 152.082 75.2384 148.835 76.9974 145.46C75.111 149.996 72.5388 154.276 69.5729 158.366C67.7925 160.75 65.9613 163.075 64.0189 165.337C62.3738 167.259 60.6779 169.122 59.0932 171.047C59.0467 168.715 59.3711 166.337 59.9876 164.028C60.0666 163.914 60.0854 163.798 60.0345 163.738ZM57.5085 163.24C60.4596 159.616 61.3497 154.869 60.8105 150.712C59.6907 142.281 52.6585 136.669 45.3488 133.146C41.0778 131.072 36.4908 129.452 32.6753 126.81C29.8924 124.905 27.5235 122.315 26.4725 119.072C26.4285 117.847 26.4447 116.624 26.5306 115.345C27.0096 109.767 29.0556 104.246 31.8288 99.0995C33.2851 96.4706 34.9128 93.906 36.6516 91.4037C38.3999 88.8434 40.2593 86.3453 41.887 83.7808C42.1241 83.4396 42.2915 83.1541 42.4684 82.8108C42.5701 82.9309 42.751 82.9374 42.8394 82.7657C43.4529 81.9716 43.8951 81.1132 44.4577 80.2591C44.9507 79.4607 45.3928 78.6023 45.8349 77.7439C46.1002 77.2288 46.3748 76.6558 46.691 76.2009C46.5094 81.4392 45.0434 86.7484 43.5961 91.9418C41.6866 98.867 39.6377 105.904 40.2688 112.861C40.8585 119.7 44.4592 125.539 48.8824 130.416C51.2005 132.946 53.7972 135.253 56.3242 137.616C58.8512 139.978 61.3595 142.456 63.0507 145.489C64.5571 148.164 65.3254 151.28 64.9205 154.529C64.553 157.547 63.1798 160.412 60.7137 162.538C60.6441 162.594 60.5838 162.592 60.5141 162.648C59.5444 163.021 58.5425 163.219 57.5085 163.24ZM43.7282 141.655C44.7474 142.099 45.8175 142.604 46.8367 143.048C50.3992 144.631 54.3836 146.23 55.7813 149.951C56.4548 151.781 56.5388 153.882 56.2707 155.912C56.1433 157.073 55.835 158.228 55.5174 159.44C55.228 160.479 54.8876 161.457 54.6585 162.498C54.3853 162.314 54.1214 162.071 53.9273 161.773C52.5909 159.919 53.2033 157.26 53.0777 155.041C52.9013 152.762 52.094 150.635 50.9477 148.73C49.1775 145.812 46.5621 143.621 43.7282 141.655ZM29.3319 129.489C27.9085 127.049 27.0651 124.396 26.6811 121.527C28.0349 124.023 30.2472 126.083 32.6645 127.626C36.559 130.153 41.1648 131.657 45.3849 133.672C49.1509 135.496 52.6704 137.719 55.4558 140.732C58.2413 143.744 60.1909 147.427 60.5304 151.693C60.8473 155.725 59.7685 159.766 57.1375 163.286C56.354 163.258 55.6589 163.058 54.9919 162.685C55.5506 161.481 55.887 160.152 56.2046 158.94C56.541 157.612 56.8077 156.339 56.903 155.002C57.0412 153.026 56.8272 150.978 56.0841 149.204C55.2714 147.485 53.9108 146.155 52.3224 145.107C50.5627 143.996 48.5752 143.168 46.648 142.342C44.8319 141.578 43.0855 140.758 41.2694 139.994C36.787 136.98 32.0863 134.19 29.3319 129.489ZM-7.68652 146.588C-6.31364 146.346 -4.90321 145.872 -3.56246 145.453C-2.09176 144.981 -0.671991 144.448 0.757195 143.858C5.8243 141.765 10.7027 138.967 15.123 135.627C17.3332 133.958 19.4416 132.168 21.388 130.255C23.116 128.569 24.7932 126.822 26.248 124.95C27.0217 127.658 28.2455 130.208 30.0078 132.426C29.2416 133.04 28.5451 133.598 27.7789 134.212C20.0338 140.114 11.2804 144.756 2.01566 147.691C-0.406016 148.421 -3.06877 149.142 -5.34823 148.245C-6.30715 147.803 -7.06649 147.252 -7.68652 146.588ZM-9.20774 144.378C-8.61837 144.108 -8.08929 143.835 -7.56019 143.563C-2.3296 140.835 2.57295 137.512 7.01752 133.649C11.4527 129.844 15.4808 125.558 18.8513 120.841C22.6585 115.673 25.4465 110.062 27.8408 104.261C30.4119 98.1167 32.5799 91.8418 35.5542 85.8285C38.0675 80.7896 41.1555 75.9459 45.2853 71.7803C45.2665 71.8962 45.2572 71.9541 45.2384 72.07C44.4112 77.9264 40.8677 83.3366 37.3298 88.3392C35.5213 90.8973 33.7034 93.5134 32.0569 96.1938C30.4801 98.8185 29.135 101.51 28.0122 104.325C26.2932 108.576 25.2787 112.969 25.1776 117.336C25.1682 117.394 25.1588 117.452 25.1494 117.51C25.1494 117.51 25.1494 117.51 25.14 117.568C25.1011 118.557 25.1224 119.549 25.2133 120.485C25.3082 121.77 25.5331 123.002 25.8275 124.178C24.9354 125.195 24.0941 126.272 23.2019 127.29C22.1705 128.418 21.139 129.547 19.9964 130.614C16.0527 134.378 11.5815 137.658 6.84245 140.345C4.44747 141.658 1.95074 142.852 -0.57812 143.869C-1.80773 144.35 -3.09761 144.828 -4.37812 145.249C-5.59832 145.672 -6.86004 145.977 -8.08027 146.4C-8.39894 145.747 -8.83816 145.091 -9.20774 144.378ZM22.9434 90.3339C22.4811 92.0657 22.0282 93.7396 21.5149 95.4114C19.9338 100.309 17.8196 105.129 14.3018 109.258C12.7961 111.069 11.0775 112.698 9.1044 114.026C8.14801 114.692 7.14073 115.297 6.08255 115.842C5.09403 116.332 4.07339 116.645 3.03397 117.074C5.61662 114.602 8.18986 112.187 10.5502 109.591C13.942 105.865 16.616 101.706 19.0676 97.4223C20.3658 95.0209 21.6546 92.6774 22.9434 90.3339ZM43.0823 69.6624C38.7879 72.5984 35.3077 76.4957 32.5547 80.7686C29.0716 86.181 26.7376 91.9838 24.4036 97.7867C21.953 103.935 19.3819 110.079 15.4393 115.708C11.8129 120.883 7.23701 125.557 2.05982 129.452C-0.349956 131.231 -2.92178 132.888 -5.28066 134.728C-7.09167 136.178 -8.93087 137.803 -10.2651 139.679C-10.325 137.054 -9.64292 134.339 -8.50677 131.816C-6.08038 126.191 -1.78304 121.74 2.66693 117.469C2.71783 117.529 2.71783 117.529 2.77809 117.531C4.02106 117.342 5.32967 116.748 6.44811 116.205C7.69649 115.608 8.84308 114.891 9.94818 114.056C14.0015 111.112 17.0786 107.084 19.2289 102.789C21.6351 98.038 22.9939 93.0163 24.2322 87.9904C24.9115 86.7908 25.6416 85.6512 26.3717 84.5116C30.3384 78.3588 36.0021 72.208 43.0823 69.6624ZM45.425 69.0463L45.4853 69.0484C45.5214 69.5742 45.5066 70.0399 45.4824 70.5635C45.1247 70.9004 44.767 71.2374 44.4 71.6323C40.0236 76.1971 36.8834 81.7382 34.295 87.2407C31.4319 93.3161 29.2639 99.5911 26.6418 105.675C24.2155 111.3 21.2654 116.79 17.4769 121.841C13.9953 126.496 9.90691 130.78 5.29093 134.579C2.98294 136.478 0.582544 138.199 -1.91961 139.8C-4.35212 141.346 -6.81671 142.715 -9.39249 144.022C-9.92806 142.837 -10.2038 141.546 -10.2987 140.26C-10.0616 139.919 -9.83387 139.636 -9.59675 139.294C-5.874 134.648 -0.263 131.817 4.3436 128.076C9.22883 124.112 13.5034 119.427 16.8887 114.245C20.5996 108.549 22.9899 102.399 25.5008 96.2523C27.816 90.5653 30.2009 84.8225 33.8875 79.6504C36.8722 75.4441 40.7235 71.5017 45.425 69.0463ZM47.7395 68.6041L50.0002 69.6168C57.843 73.2171 65.6161 76.8732 73.4683 80.4156C80.4727 83.5782 87.7369 86.6335 93.7741 91.2769C96.6909 93.4785 99.2313 96.1328 101.373 99.0061C103.453 101.877 105.265 104.914 107.007 108.006C110.339 114.01 113.401 120.179 117.749 125.52C121.732 130.499 126.842 134.876 133.469 136.627C133.473 136.977 133.467 137.384 133.471 137.734C133.37 142.101 132.48 146.848 128.894 150.275L128.885 150.333C128.25 150.136 127.625 149.881 126.939 149.623C120.091 146.991 114.049 142.755 109.599 137.294C107.369 134.592 105.497 131.554 104.075 128.356C102.395 124.509 101.304 120.391 99.953 116.38C98.6757 112.663 97.069 109.11 94.9332 105.829C92.8898 102.726 90.4981 99.9018 87.9577 97.2475C85.2968 94.5888 82.4363 92.0396 79.4177 89.7179C76.1862 87.2138 72.7363 84.9351 69.2771 82.7143C61.9648 78.0838 54.4757 73.7968 47.7395 68.6041ZM74.0324 69.072C81.4804 70.6187 88.4808 73.4315 94.64 77.3216C100.355 80.9629 105.437 85.5141 109.493 90.7864C111.491 93.4215 113.34 96.2262 114.86 99.1939C116.574 102.46 117.879 106.003 119.393 109.378C120.806 112.634 122.548 115.726 124.977 118.318C126.999 120.429 129.56 122.21 132.531 122.957C132.544 123.249 132.618 123.543 132.631 123.835C132.858 126.174 133.025 128.511 133.132 130.846C133.123 130.903 133.113 130.961 133.164 131.021C132.965 131.131 132.987 131.365 133.21 131.489C133.309 133.125 133.408 134.76 133.386 136.391C132.631 136.189 131.945 135.932 131.208 135.614C124.764 133.112 119.868 128.16 116.071 122.78C112.081 117.102 109.237 110.707 105.715 104.755C103.964 101.721 102.013 98.7958 99.7831 96.0942C97.5026 93.3325 94.8041 90.9056 91.7989 88.8757C88.6919 86.7257 85.3986 84.977 81.9755 83.282C78.3809 81.5226 74.6564 79.8168 70.9921 78.1132C63.8859 74.8304 56.84 71.5498 49.7245 68.3249C49.7245 68.3249 49.7244 68.3249 49.7847 68.3271C58.0354 67.1633 66.2925 67.4567 74.0324 69.072ZM47.0325 67.3552C47.2977 66.8401 47.563 66.3251 47.8886 65.8121C50.8465 61.0221 56.4348 57.9572 61.7697 56.4568C68.4548 54.4799 75.3913 54.3184 82.1179 52.4594C87.7635 50.9118 93.2164 48.3083 98.0266 44.8078C102.916 41.1937 107.051 36.6203 109.783 31.356C112.072 26.9502 113.394 22.1603 113.491 17.4434C114.365 21.0293 114.288 24.8727 113.377 28.6282C111.124 38.047 104.177 46.1336 95.6857 51.776C92.0182 54.2098 88.0641 56.1672 83.9761 57.8285C83.9159 57.8264 83.8556 57.8242 83.8556 57.8242C83.0627 57.8543 82.0742 58.3437 81.304 58.6077C80.4736 58.8696 79.7034 59.1336 78.8729 59.3955C77.2723 59.9213 75.6208 60.3871 73.9787 60.795C72.5268 61.1513 71.0842 61.4497 69.6417 61.7482C68.2367 61.8148 66.892 61.8836 65.5191 62.1262C64.1556 62.3108 62.7827 62.5534 61.4514 62.914C60.7602 63.0643 59.9994 63.2704 59.2895 63.5365C55.2084 64.0326 51.1446 65.1702 47.3847 67.4259C47.1624 67.3015 47.1021 67.2994 47.0325 67.3552ZM45.6838 67.0741C46.2612 65.7543 46.8896 64.4946 47.6385 63.2391C47.885 62.84 48.2011 62.385 48.4476 61.9858C49.159 60.9622 49.9212 59.9986 50.7437 59.0371C52.7464 56.7773 55.0731 54.762 57.6865 53.2231C60.5181 51.4589 63.6363 50.1711 66.6622 48.7052C70.0175 47.0761 73.6475 44.8741 76.0548 41.9876C75.4679 43.3654 74.7699 44.6809 73.9608 45.9342C72.668 47.9279 71.102 49.7371 69.3231 51.3638C64.9486 52.5488 60.5968 53.9676 56.6467 56.2748C52.2974 58.8009 48.2332 62.561 46.5182 67.1621C46.3976 67.1578 46.2771 67.1535 46.1472 67.2072C45.8458 67.1965 45.7347 67.1342 45.6838 67.0741ZM72.5587 44.4858C70.1114 46.4967 67.1552 47.9069 64.2593 49.3191C61.3031 50.7293 58.3563 52.0814 55.6773 54.0259C53.4859 55.5797 51.4792 57.4898 49.8061 59.5866C49.9039 59.3569 50.062 59.1294 50.1598 58.8998C51.5558 56.2688 52.7897 53.5154 54.6304 51.1332C55.5601 49.8842 56.6518 48.7575 57.9056 47.7531C59.3496 46.6971 60.9971 45.8815 62.6767 45.2419C65.9664 44.0185 69.3524 43.3229 72.5175 41.7454C74.3647 40.8203 76.2078 39.5455 77.4951 37.9595C76.6001 40.4918 74.7273 42.698 72.5587 44.4858ZM44.7249 66.6321C44.7851 66.6343 44.8454 66.6364 44.8548 66.5785C44.9245 66.5227 44.9338 66.4647 45.0035 66.409C45.3612 66.072 45.7282 65.6771 46.0952 65.2822C45.8206 65.8552 45.6156 66.3724 45.4012 66.9476C45.1695 66.881 44.9472 66.7566 44.7155 66.6901C44.6552 66.6879 44.6552 66.6879 44.7249 66.6321ZM77.5814 34.0581C76.1252 36.6871 73.1636 38.5049 70.2731 39.5094C66.8026 40.7265 63.181 41.0057 59.6784 42.0468C56.4959 42.9827 53.5719 44.5688 51.5035 47.2342C49.4954 49.9018 48.5574 53.0736 47.8792 56.1381C47.4772 57.8721 47.1354 59.6082 46.6637 61.398C46.2107 63.0719 45.5355 64.6213 44.7905 66.2266C44.6419 66.3961 44.5628 66.5098 44.4141 66.6794C46.5991 63.6684 46.7268 59.8851 46.8398 56.5674C46.9434 53.3077 46.9038 49.8097 48.5048 46.6615C50.2638 43.2858 53.8054 41.2554 57.3174 40.1564C61.6598 38.7955 66.1065 38.6621 70.4716 37.5351C72.9629 36.7495 75.5012 35.6742 77.5814 34.0581ZM78.9236 32.882C78.6436 33.8628 78.4144 34.9036 78.0741 35.8822C76.7329 38.9231 73.4418 40.9041 70.333 42.134C67.0942 43.4175 63.6479 44.1109 60.4922 45.6305C57.6057 46.9848 55.3901 49.0623 53.5816 51.6204C51.903 54.1249 50.6784 56.8203 49.2824 59.4514C48.8403 60.3098 48.4076 61.1103 47.9052 61.9666C47.589 62.4215 47.3331 62.8786 47.017 63.3336C46.6218 63.9023 46.1663 64.4689 45.7109 65.0355C46.3486 63.7178 46.8149 62.3358 47.1513 61.0074C47.7114 59.0459 48.0305 57.0759 48.5303 55.1123C49.2687 52.05 50.397 48.8266 52.7385 46.3457C55.2194 43.7532 58.7407 42.5962 62.0758 41.8406C65.6012 41.0335 69.3019 40.6404 72.6572 39.0114C75.2839 37.7644 77.62 35.6912 78.5941 33.0452C78.7843 32.9936 78.9143 32.94 78.9236 32.882ZM101.337 1.16078C98.0366 3.1997 95.3374 6.01756 93.1431 9.08646C88.1824 16.1363 86.2566 24.2847 83.483 32.0533C82.1591 35.7359 80.5942 39.4099 78.4641 42.8308C77.4085 44.4833 76.2417 46.0735 74.9128 47.5414C74.0207 48.5587 72.9758 49.3957 71.9819 50.2928C71.7917 50.3443 71.6524 50.4559 71.4622 50.5074C71.4019 50.5053 71.3925 50.5632 71.3925 50.5632C71.2626 50.6169 71.1421 50.6126 71.0122 50.6663C74.7093 47.3011 76.9534 42.4274 78.3992 37.9916C80.2229 32.3454 81.2122 26.6113 83.3881 21.036C84.4225 18.392 85.6377 15.7546 87.0752 13.2415C88.3734 10.8401 89.8523 8.44507 91.5443 6.23245C93.0085 4.30311 94.8249 2.44457 97.2051 1.59673C98.574 1.00433 100.039 0.939842 101.337 1.16078Z" fill="#DCBB8C"/>
</svg>
