<svg width="39" height="40" viewBox="0 0 39 40" fill="none" xmlns="http://www.w3.org/2000/svg">
<circle cx="19.3546" cy="19.8163" r="18.8857" stroke="black" stroke-width="0.803646"/>
<path d="M17.7473 22.2271L21.9182 19.8162L17.7473 17.4053V22.2271ZM27.0374 15.9346C27.1419 16.3123 27.2142 16.8186 27.2625 17.4615C27.3187 18.1044 27.3428 18.6589 27.3428 19.1411L27.391 19.8162C27.391 21.5762 27.2624 22.87 27.0374 23.6978C26.8365 24.4211 26.3704 24.8872 25.6471 25.0881C25.2694 25.1926 24.5783 25.2649 23.5175 25.3131C22.4727 25.3694 21.5164 25.3935 20.6324 25.3935L19.3546 25.4417C15.9873 25.4417 13.8898 25.3131 13.062 25.0881C12.3387 24.8872 11.8726 24.4211 11.6717 23.6978C11.5672 23.3201 11.4949 22.8138 11.4467 22.1709C11.3904 21.528 11.3663 20.9734 11.3663 20.4913L11.3181 19.8162C11.3181 18.0562 11.4467 16.7623 11.6717 15.9346C11.8726 15.2113 12.3387 14.7452 13.062 14.5443C13.4397 14.4398 14.1309 14.3675 15.1917 14.3193C16.2364 14.263 17.1928 14.2389 18.0768 14.2389L19.3546 14.1907C22.7219 14.1907 24.8194 14.3193 25.6471 14.5443C26.3704 14.7452 26.8365 15.2113 27.0374 15.9346Z" fill="black"/>
</svg>
